<svg width="511" height="339" viewBox="0 0 511 339" fill="none" xmlns="http://www.w3.org/2000/svg">
<g clip-path="url(#clip0_6943_42103)">
<path d="M182.975 195.096C200.456 164.345 233.802 140.732 269.102 143.007C243.064 171.322 227.88 207.935 226.238 246.367C225.659 261.191 226.557 277.739 216.715 288.839C210.59 295.746 201.229 299.091 192.026 299.793C182.821 300.494 173.619 298.831 164.538 297.175L162.335 297.852C161.496 262.488 165.493 225.848 182.975 195.096Z" fill="#F0F0F0"/>
<path d="M269.154 143.748C243.05 156.314 220.792 177.301 207.129 202.896C204.175 208.43 201.66 214.3 200.563 220.508C199.465 226.717 200.232 232.629 202.353 238.527C204.292 243.919 206.9 249.209 207.494 254.979C208.121 261.06 205.883 266.746 201.856 271.259C196.928 276.78 190.31 280.202 183.721 283.323C176.406 286.788 168.753 290.272 163.572 296.739C162.945 297.523 161.765 296.503 162.392 295.721C171.406 284.468 186.836 282.353 197.536 273.289C202.529 269.059 206.277 263.299 206.041 256.55C205.834 250.649 203.149 245.19 201.139 239.748C199.028 234.033 197.975 228.287 198.732 222.194C199.507 215.962 201.797 209.98 204.597 204.396C210.911 191.8 219.551 180.237 229.45 170.241C240.826 158.751 254.083 149.292 268.649 142.272C269.551 141.838 270.05 143.316 269.154 143.748Z" fill="white"/>
<path d="M211.131 194.342C207.13 191.416 204.298 187.162 203.143 182.342C201.988 177.521 202.584 172.446 204.825 168.024C205.281 167.131 206.69 167.798 206.233 168.693C204.139 172.807 203.584 177.534 204.669 182.021C205.754 186.508 208.408 190.459 212.15 193.162C212.963 193.75 211.939 194.927 211.131 194.342Z" fill="white"/>
<path d="M201.01 235.923C211.037 234.458 220.144 229.267 226.514 221.386C227.145 220.604 228.324 221.624 227.694 222.404C221.05 230.594 211.562 235.976 201.124 237.478C200.129 237.62 200.02 236.065 201.01 235.923V235.923Z" fill="white"/>
<path d="M241.596 160.668C242.909 162.123 244.562 163.229 246.407 163.887C248.253 164.545 250.233 164.734 252.17 164.438C253.162 164.283 253.27 165.839 252.284 165.993C250.143 166.31 247.956 166.099 245.915 165.376C243.875 164.654 242.042 163.443 240.577 161.848C240.427 161.71 240.335 161.519 240.32 161.315C240.305 161.11 240.368 160.908 240.497 160.749C240.632 160.593 240.824 160.498 241.03 160.483C241.236 160.467 241.439 160.534 241.596 160.668Z" fill="white"/>
<path d="M339.337 240.019C338.72 240.133 338.103 240.247 337.48 240.374C329.191 241.955 321.045 244.207 313.121 247.107C312.505 247.322 311.883 247.548 311.274 247.78C292.258 254.972 274.742 265.631 259.617 279.216C253.604 284.628 248.011 290.489 242.886 296.749C235.81 305.395 228.825 315.332 219.578 320.97C218.62 321.569 217.625 322.108 216.601 322.584L163.33 300.488C163.234 300.377 163.133 300.278 163.036 300.167L160.869 299.382C161.111 299.04 161.369 298.692 161.611 298.35C161.75 298.152 161.901 297.958 162.041 297.759C162.137 297.629 162.235 297.498 162.315 297.374C162.347 297.331 162.379 297.287 162.406 297.256C162.486 297.132 162.573 297.026 162.648 296.914C164.085 294.961 165.538 293.014 167.008 291.073C167.013 291.061 167.013 291.061 167.03 291.054C178.265 276.298 190.83 262.351 205.113 250.754C205.543 250.405 205.977 250.044 206.431 249.705C212.898 244.514 219.779 239.859 227.004 235.789C230.968 233.573 235.041 231.558 239.208 229.754C249.985 225.113 261.424 222.195 273.107 221.109C296.397 218.946 320.12 224.256 337.983 238.887C338.44 239.262 338.885 239.632 339.337 240.019Z" fill="#F0F0F0"/>
<path d="M338.937 240.645C310.529 234.962 280.121 238.318 253.802 250.528C248.111 253.168 242.569 256.341 237.956 260.636C233.341 264.934 230.394 270.115 228.536 276.101C226.838 281.574 225.735 287.368 222.736 292.333C219.575 297.566 214.365 300.759 208.432 301.937C201.173 303.378 193.829 302.126 186.69 300.651C178.763 299.014 170.555 297.188 162.524 299.232C161.551 299.48 161.224 297.956 162.195 297.708C176.167 294.151 189.761 301.752 203.761 300.957C210.294 300.586 216.755 298.244 220.63 292.713C224.018 287.876 225.16 281.901 226.832 276.346C228.587 270.512 231.206 265.29 235.479 260.881C239.849 256.371 245.28 252.974 250.877 250.201C263.502 243.945 277.363 239.915 291.284 237.893C307.285 235.568 323.566 235.998 339.422 239.163C340.403 239.359 339.912 240.84 338.937 240.645V240.645Z" fill="white"/>
<path d="M262.147 246.106C260.714 241.361 261.014 236.26 262.994 231.715C264.974 227.17 268.505 223.477 272.957 221.296C273.859 220.857 274.583 222.239 273.679 222.678C269.53 224.702 266.241 228.142 264.406 232.378C262.571 236.614 262.31 241.366 263.671 245.777C263.966 246.736 262.44 247.06 262.147 246.106Z" fill="white"/>
<path d="M229.032 273.215C237.921 278.082 248.317 279.42 258.149 276.963C259.122 276.718 259.45 278.243 258.478 278.487C248.242 281.025 237.426 279.61 228.187 274.525C227.307 274.039 228.157 272.732 229.032 273.215Z" fill="white"/>
<path d="M306.745 237.565C306.917 239.517 307.571 241.396 308.649 243.032C309.726 244.669 311.193 246.012 312.918 246.941C313.804 247.415 312.953 248.722 312.073 248.252C310.172 247.216 308.554 245.73 307.359 243.925C306.165 242.12 305.431 240.049 305.221 237.894C305.185 237.693 305.226 237.485 305.337 237.313C305.448 237.141 305.62 237.018 305.819 236.968C306.021 236.925 306.231 236.964 306.405 237.076C306.578 237.188 306.701 237.364 306.745 237.565Z" fill="white"/>
<path d="M237.861 276.473C230.4 240.401 221.075 228.375 221.075 228.375L217.512 225.612L213.228 222.284L213.249 221.856L212.233 221.511L211.994 221.325L211.603 221.025L211.54 221.093L211.407 221.23L192.02 214.64L167.425 206.286L156.035 191.482C154.18 189.071 151.792 187.122 149.058 185.789C146.324 184.455 143.318 183.773 140.276 183.795L103.903 184.065C98.9846 184.101 94.258 185.976 90.6521 189.321L66.7442 211.497L29.4911 229.289L29.4282 229.226L29.037 229.505L23.2811 232.257L23.5186 233.494L19.9561 236.065C19.9561 236.065 10.6306 247.255 3.17017 280.82C1.27233 289.36 0.338139 307.681 0.000947579 330.256C-0.0159895 331.398 0.194277 332.532 0.619515 333.592C1.04475 334.652 1.67648 335.617 2.47797 336.431C3.27946 337.245 4.23471 337.891 5.2882 338.332C6.34168 338.773 7.47236 339.001 8.61451 339.001H207.591V339.001H232.425C233.567 339.001 234.697 338.773 235.749 338.333C236.802 337.892 237.757 337.246 238.558 336.434C239.36 335.621 239.992 334.657 240.417 333.598C240.843 332.539 241.055 331.406 241.039 330.265C240.71 305.699 239.776 285.735 237.861 276.473Z" fill="#3F3D56"/>
<path d="M263.39 31.457C255.649 31.457 248.225 34.5323 242.751 40.0062C237.277 45.4802 234.201 52.9044 234.201 60.6458C234.201 68.3871 237.277 75.8114 242.751 81.2853C248.225 86.7593 255.649 89.8345 263.39 89.8345H480.916C488.657 89.8345 496.081 86.7593 501.555 81.2853C507.029 75.8114 510.104 68.3871 510.104 60.6458C510.104 52.9044 507.029 45.4802 501.555 40.0062C496.081 34.5323 488.657 31.457 480.916 31.457H263.39Z" fill="#E5E5E5"/>
<path d="M263.39 37.3633C257.216 37.3633 251.294 39.8161 246.928 44.1823C242.562 48.5484 240.109 54.4701 240.109 60.6448C240.109 66.8194 242.562 72.7412 246.928 77.1073C251.294 81.4734 257.216 83.9263 263.39 83.9263H480.916C487.09 83.9263 493.012 81.4734 497.378 77.1073C501.744 72.7412 504.197 66.8194 504.197 60.6448C504.197 54.4701 501.744 48.5484 497.378 44.1823C493.012 39.8161 487.09 37.3633 480.916 37.3633H263.39Z" fill="white"/>
<path d="M127.802 170.128C154.12 170.128 175.455 148.793 175.455 122.475C175.455 96.1573 154.12 74.8223 127.802 74.8223C101.484 74.8223 80.1487 96.1573 80.1487 122.475C80.1487 148.793 101.484 170.128 127.802 170.128Z" fill="#9E616A"/>
<path d="M115.611 167.795C115.408 167.346 115.205 166.897 115.002 166.445C115.08 166.448 115.157 166.459 115.235 166.461L115.611 167.795Z" fill="#2F2E41"/>
<path d="M78.8236 76.9895C81.2337 75.0669 84.0506 73.2979 87.1321 73.3973C90.2135 73.4966 93.3383 76.2797 92.6999 79.296C98.3599 69.2744 107.369 61.5667 118.146 57.5257C128.922 53.4848 140.778 53.3688 151.632 57.1981C159.29 59.9001 166.801 65.3058 168.56 73.2343C169.012 75.2696 169.109 77.5012 170.38 79.154C171.982 81.2377 175.048 81.7091 177.572 80.976C177.597 80.9687 177.622 80.9613 177.647 80.9538C178.074 80.8081 178.534 80.7938 178.969 80.9127C179.404 81.0315 179.793 81.278 180.086 81.6204C180.379 81.9627 180.562 82.3851 180.612 82.8329C180.663 83.2807 180.578 83.7333 180.368 84.1321L178.201 88.1736C180.933 88.7825 183.771 88.7221 186.474 87.9977C186.923 87.8799 187.398 87.9039 187.833 88.0665C188.268 88.2291 188.642 88.5222 188.903 88.9057C189.165 89.2892 189.302 89.7442 189.294 90.2084C189.287 90.6726 189.137 91.1232 188.863 91.4984C181.718 101.309 169.78 107.644 157.598 107.569C148.939 107.517 140.192 104.532 131.765 106.524C128.506 107.294 125.459 108.784 122.851 110.885C120.242 112.986 118.137 115.645 116.689 118.666C115.242 121.686 114.489 124.993 114.486 128.343C114.484 131.692 115.231 135 116.673 138.023C114.084 135.192 109.08 135.862 106.432 138.638C103.784 141.415 103.099 145.558 103.366 149.385C103.774 155.239 106.067 160.755 108.485 166.123C88.2139 165.485 69.0407 151.265 62.587 132.032C56.1063 112.719 62.8983 89.6936 78.8236 76.9895Z" fill="#2F2E41"/>
<path opacity="0.2" d="M46.9031 265.582L60.2687 338.302L68.2884 339L46.9031 265.582Z" fill="black"/>
<path opacity="0.2" d="M194.128 260.096L180.762 338.247L172.743 338.998L194.128 260.096Z" fill="black"/>
<path d="M90.2232 52.5166C87.6605 53.5866 84.9865 52.4139 83.8651 49.7282C82.7265 47.0015 83.7899 44.2335 86.3936 43.1463C88.9976 42.059 91.6241 43.2346 92.781 46.0053C93.9206 48.7344 92.8687 51.4119 90.2232 52.5166ZM85.3142 37.7792L83.2766 38.6301C82.7676 38.8401 82.1983 38.8514 81.6813 38.6618C81.1643 38.4722 80.7373 38.0954 80.4848 37.6061L80.384 37.4089C78.1916 33.4549 77.9405 28.6494 79.6419 23.1333C81.2179 18.1852 81.8725 14.7051 80.5561 11.5524C79.034 7.90724 75.7838 6.7654 71.639 8.41949C70.0315 9.09074 69.5199 9.08004 68.2549 10.335C67.9797 10.6113 67.6517 10.8293 67.2904 10.9762C66.9292 11.123 66.542 11.1955 66.1521 11.1895C65.7752 11.185 65.403 11.1047 65.0578 10.9534C64.7125 10.802 64.4013 10.5826 64.1427 10.3084C63.6444 9.77991 63.3653 9.08203 63.3616 8.35569C63.3579 7.62935 63.63 6.92868 64.123 6.39518C66.2493 4.16932 68.8139 2.40837 71.655 1.22348C80.5603 -2.49507 85.0433 2.99483 87.0948 7.90777C89.1014 12.7132 87.9726 17.1718 86.159 22.9462C84.6392 27.7443 84.7277 31.2997 86.4542 34.8348C86.5788 35.1021 86.6481 35.3918 86.658 35.6865C86.6679 35.9812 86.6181 36.2749 86.5117 36.5499C86.4052 36.8249 86.2442 37.0756 86.0385 37.2868C85.8327 37.4981 85.5864 37.6655 85.3143 37.7792L85.3142 37.7792Z" fill="#6C63FF"/>
<path d="M311.439 74.5674H268.159C268.022 74.5683 267.885 74.542 267.758 74.49C267.631 74.4381 267.515 74.3614 267.418 74.2646C267.32 74.1677 267.243 74.0524 267.19 73.9255C267.137 73.7985 267.11 73.6624 267.11 73.5249C267.11 73.3874 267.137 73.2513 267.19 73.1243C267.243 72.9974 267.32 72.8821 267.418 72.7853C267.515 72.6884 267.631 72.6117 267.758 72.5598C267.885 72.5078 268.022 72.4815 268.159 72.4824H311.439C311.714 72.4843 311.977 72.595 312.171 72.7903C312.365 72.9856 312.474 73.2496 312.474 73.5249C312.474 73.8001 312.365 74.0642 312.171 74.2595C311.977 74.4548 311.714 74.5655 311.439 74.5674Z" fill="#6C63FF"/>
<path d="M366.341 74.915H323.062C322.924 74.9159 322.788 74.8897 322.661 74.8377C322.533 74.7858 322.418 74.7091 322.32 74.6122C322.223 74.5153 322.145 74.4001 322.092 74.2731C322.039 74.1462 322.012 74.0101 322.012 73.8726C322.012 73.7351 322.039 73.5989 322.092 73.472C322.145 73.345 322.223 73.2298 322.32 73.1329C322.418 73.036 322.533 72.9594 322.661 72.9074C322.788 72.8554 322.924 72.8292 323.062 72.8301H366.341C366.479 72.8292 366.615 72.8554 366.742 72.9074C366.87 72.9594 366.985 73.036 367.083 73.1329C367.181 73.2298 367.258 73.345 367.311 73.472C367.364 73.5989 367.391 73.7351 367.391 73.8726C367.391 74.0101 367.364 74.1462 367.311 74.2731C367.258 74.4001 367.181 74.5153 367.083 74.6122C366.985 74.7091 366.87 74.7858 366.742 74.8377C366.615 74.8897 366.479 74.9159 366.341 74.915Z" fill="#6C63FF"/>
<path d="M421.244 75.2627H377.965C377.689 75.2608 377.426 75.1501 377.232 74.9548C377.038 74.7595 376.929 74.4955 376.929 74.2202C376.929 73.945 377.038 73.6809 377.232 73.4856C377.426 73.2903 377.689 73.1796 377.965 73.1778H421.244C421.382 73.1768 421.518 73.2031 421.645 73.2551C421.773 73.307 421.888 73.3837 421.986 73.4806C422.083 73.5775 422.161 73.6927 422.214 73.8196C422.267 73.9466 422.294 74.0827 422.294 74.2202C422.294 74.3577 422.267 74.4939 422.214 74.6208C422.161 74.7477 422.083 74.863 421.986 74.9599C421.888 75.0568 421.773 75.1334 421.645 75.1854C421.518 75.2373 421.382 75.2636 421.244 75.2627H421.244Z" fill="#6C63FF"/>
<path d="M476.147 75.6103H432.867C432.592 75.6084 432.329 75.4978 432.135 75.3025C431.941 75.1072 431.832 74.8431 431.832 74.5678C431.832 74.2926 431.941 74.0285 432.135 73.8332C432.329 73.6379 432.592 73.5273 432.867 73.5254H476.147C476.422 73.5273 476.685 73.6379 476.879 73.8332C477.073 74.0285 477.182 74.2926 477.182 74.5678C477.182 74.8431 477.073 75.1072 476.879 75.3025C476.685 75.4978 476.422 75.6084 476.147 75.6103Z" fill="#6C63FF"/>
<path d="M289.704 64.9744C294.146 64.9744 297.747 61.373 297.747 56.9305C297.747 52.4881 294.146 48.8867 289.704 48.8867C285.261 48.8867 281.66 52.4881 281.66 56.9305C281.66 61.373 285.261 64.9744 289.704 64.9744Z" fill="#6C63FF"/>
<path d="M344.938 64.9744C349.38 64.9744 352.982 61.373 352.982 56.9305C352.982 52.4881 349.38 48.8867 344.938 48.8867C340.496 48.8867 336.894 52.4881 336.894 56.9305C336.894 61.373 340.496 64.9744 344.938 64.9744Z" fill="#6C63FF"/>
<path d="M400.172 64.9744C404.615 64.9744 408.216 61.373 408.216 56.9305C408.216 52.4881 404.615 48.8867 400.172 48.8867C395.73 48.8867 392.128 52.4881 392.128 56.9305C392.128 61.373 395.73 64.9744 400.172 64.9744Z" fill="#6C63FF"/>
<path d="M455.406 64.9744C459.849 64.9744 463.45 61.373 463.45 56.9305C463.45 52.4881 459.849 48.8867 455.406 48.8867C450.964 48.8867 447.363 52.4881 447.363 56.9305C447.363 61.373 450.964 64.9744 455.406 64.9744Z" fill="#6C63FF"/>
</g>
<defs>
<clipPath id="clip0_6943_42103">
<rect width="510.105" height="339" fill="white"/>
</clipPath>
</defs>
</svg>
