<svg width="51" height="51" viewBox="0 0 51 51" fill="none" xmlns="http://www.w3.org/2000/svg">
<path d="M2.125 40.875V47.25H8.5C8.5 43.7225 5.6525 40.875 2.125 40.875ZM2.125 32.375V36.625C7.99 36.625 12.75 41.385 12.75 47.25H17C17 39.0262 10.3488 32.375 2.125 32.375ZM40.375 17.5H10.625V20.9637C19.04 23.6838 25.6912 30.335 28.4112 38.75H40.375V17.5ZM2.125 23.875V28.125C12.6862 28.125 21.25 36.6888 21.25 47.25H25.5C25.5 34.33 15.0238 23.875 2.125 23.875ZM44.625 9H6.375C4.0375 9 2.125 10.9125 2.125 13.25V19.625H6.375V13.25H44.625V43H29.75V47.25H44.625C46.9625 47.25 48.875 45.3375 48.875 43V13.25C48.875 10.9125 46.9625 9 44.625 9Z" fill="#2B365A"/>
</svg>
