<svg width="474" height="477" viewBox="0 0 474 477" fill="none" xmlns="http://www.w3.org/2000/svg">
<g clip-path="url(#clip0_6914_35229)">
<path d="M236.524 477C367.153 477 473.048 470.78 473.048 463.108C473.048 455.435 367.153 449.215 236.524 449.215C105.895 449.215 0 455.435 0 463.108C0 470.78 105.895 477 236.524 477Z" fill="#E6E6E6"/>
<path d="M268.131 110.052H265.586V40.3446C265.586 29.6445 261.336 19.3827 253.77 11.8166C246.204 4.25057 235.942 0 225.242 0H77.5577C66.8576 0 56.5958 4.25057 49.0298 11.8166C41.4637 19.3827 37.2131 29.6445 37.2131 40.3446V422.763C37.2131 433.463 41.4637 443.725 49.0298 451.291C56.5958 458.857 66.8576 463.108 77.5577 463.108H225.242C235.942 463.108 246.204 458.857 253.77 451.291C261.336 443.725 265.586 433.463 265.586 422.763V159.671H268.131V110.052Z" fill="#2B365A"/>
<path d="M256.999 40.626V422.481C256.998 430.472 253.824 438.136 248.174 443.786C242.523 449.437 234.86 452.611 226.869 452.611H78.4761C70.4855 452.611 62.8222 449.437 57.172 443.786C51.5217 438.136 48.3473 430.473 48.3469 422.482V40.626C48.3471 32.6351 51.5216 24.9716 57.172 19.3211C62.8224 13.6707 70.4859 10.4963 78.4768 10.4961H96.479C95.5944 12.6698 95.2574 15.0275 95.4978 17.362C95.7383 19.6964 96.5487 21.936 97.8578 23.8837C99.1669 25.8315 100.935 27.4276 103.005 28.5319C105.076 29.6361 107.387 30.2145 109.733 30.2162H194.34C196.687 30.2146 198.998 29.6363 201.069 28.5321C203.139 27.4279 204.907 25.8318 206.216 23.884C207.526 21.9363 208.336 19.6966 208.577 17.3621C208.817 15.0276 208.48 12.6698 207.595 10.4961H226.869C234.86 10.4963 242.523 13.6707 248.174 19.3211C253.824 24.9716 256.998 32.6351 256.999 40.626Z" fill="white"/>
<path d="M116.898 329.74H113.777L114.819 268.781H115.861L116.898 329.74Z" fill="#E6E6E6"/>
<path d="M119.498 230.403L124.536 222.619C123.042 218.492 121.316 214.453 119.367 210.521L116.11 213.152L118.69 209.166C116.231 204.328 114.297 201.279 114.297 201.279C114.297 201.279 104.196 217.198 100.819 234.056L107.284 244.046L100.129 238.266C99.874 240.229 99.7429 242.207 99.7363 244.187C99.7363 264.15 106.256 280.333 114.299 280.333C122.341 280.333 128.861 264.148 128.861 244.187C128.861 237.999 127.461 231.524 125.527 225.534L119.498 230.403Z" fill="#CCCCCC"/>
<path d="M198.142 329.74H195.021L196.063 268.781H197.105L198.142 329.74Z" fill="#E6E6E6"/>
<path d="M200.743 230.403L205.78 222.619C204.286 218.492 202.561 214.453 200.612 210.521L197.355 213.152L199.934 209.166C197.476 204.328 195.542 201.279 195.542 201.279C195.542 201.279 185.439 217.2 182.066 234.056L188.525 244.045L181.37 238.265C181.116 240.228 180.985 242.206 180.978 244.186C180.978 264.149 187.498 280.332 195.54 280.332C203.583 280.332 210.103 264.147 210.103 244.186C210.103 237.997 208.702 231.522 206.769 225.533L200.743 230.403Z" fill="#CCCCCC"/>
<path d="M114.523 127.672C130.359 127.672 143.197 114.833 143.197 98.9969C143.197 83.1603 130.359 70.3223 114.523 70.3223C98.6862 70.3223 85.8481 83.1603 85.8481 98.9969C85.8481 114.833 98.6862 127.672 114.523 127.672Z" fill="#E6E6E6"/>
<path d="M154.239 320.863H147.805L149.95 195.172H152.094L154.239 320.863Z" fill="#E6E6E6"/>
<path d="M159.601 116.04L169.988 99.9901C166.907 91.4813 163.349 83.153 159.331 75.045L152.615 80.4694L157.933 72.2504C152.862 62.2741 148.877 55.9883 148.877 55.9883C148.877 55.9883 128.046 88.8141 121.086 123.57L134.412 144.169L119.656 132.251C119.131 136.3 118.86 140.378 118.847 144.46C118.847 185.622 132.29 218.991 148.873 218.991C165.456 218.991 178.9 185.622 178.9 144.46C178.9 131.7 176.013 118.349 172.03 105.999L159.601 116.04Z" fill="#CCCCCC"/>
<path d="M256.998 338.98V424.426C256.998 441.757 243.509 455.806 226.868 455.807H78.4753C61.8353 455.807 48.3454 441.758 48.3447 424.426V347.311C74.0727 315.856 111.271 297.057 150.916 295.474C190.561 293.891 229.033 309.669 256.998 338.98Z" fill="#E6E6E6"/>
<path opacity="0.2" d="M152.834 423.27C177.083 423.27 196.741 403.613 196.741 379.364C196.741 355.115 177.083 335.457 152.834 335.457C128.585 335.457 108.928 355.115 108.928 379.364C108.928 403.613 128.585 423.27 152.834 423.27Z" fill="#6C63FF"/>
<path d="M152.834 414.715C172.359 414.715 188.188 398.887 188.188 379.361C188.188 359.836 172.359 344.008 152.834 344.008C133.309 344.008 117.48 359.836 117.48 379.361C117.48 398.887 133.309 414.715 152.834 414.715Z" fill="#6C63FF"/>
<path d="M148.711 394.475L136.252 378.456L143.497 372.821L149.396 380.406L169.325 359.369L175.989 365.682L148.711 394.475Z" fill="white"/>
<path d="M340.711 324.373C353.371 324.373 363.634 314.11 363.634 301.45C363.634 288.79 353.371 278.527 340.711 278.527C328.051 278.527 317.788 288.79 317.788 301.45C317.788 314.11 328.051 324.373 340.711 324.373Z" fill="#2F2E41"/>
<path d="M350 430.138L351.766 438.469L384.74 435.621L382.135 423.326L350 430.138Z" fill="#FFB8B8"/>
<path d="M347.432 456.174L341.884 429.99L352 427.846L355.405 443.914C355.686 445.242 355.704 446.613 355.455 447.948C355.207 449.283 354.698 450.556 353.958 451.695C353.217 452.833 352.26 453.815 351.141 454.583C350.021 455.352 348.761 455.892 347.432 456.174Z" fill="#2F2E41"/>
<path d="M329.342 429.691L325.63 437.357L294.302 426.689L299.78 415.377L329.342 429.691Z" fill="#FFB8B8"/>
<path d="M320.793 441.781L327.951 426.999L337.258 431.505L325.594 455.595C323.126 454.399 321.233 452.273 320.333 449.682C319.433 447.092 319.598 444.25 320.793 441.781Z" fill="#2F2E41"/>
<path d="M267.616 414.554C268.689 414.753 269.792 414.715 270.848 414.443C271.904 414.17 272.888 413.669 273.73 412.975C274.571 412.281 275.251 411.41 275.72 410.426C276.189 409.441 276.436 408.365 276.444 407.274L328.107 359.642L315.277 349.705L268.502 399.679C266.668 399.785 264.937 400.561 263.637 401.86C262.337 403.158 261.558 404.888 261.449 406.722C261.34 408.556 261.907 410.367 263.044 411.81C264.181 413.253 265.808 414.229 267.617 414.553L267.616 414.554Z" fill="#FFB8B8"/>
<path d="M337.834 325.409C347.256 325.409 354.895 317.771 354.895 308.348C354.895 298.926 347.256 291.287 337.834 291.287C328.411 291.287 320.773 298.926 320.773 308.348C320.773 317.771 328.411 325.409 337.834 325.409Z" fill="#FFB8B8"/>
<path d="M353.145 408.635C341.177 408.635 326.764 406.115 317.872 395.801L317.672 395.569L317.88 395.341C317.95 395.266 324.489 387.791 317.958 374.459L308.976 377.222L300.036 365.421L304.989 350.563L325.256 334.239C328.16 331.912 331.695 330.511 335.404 330.216C342.117 329.567 348.657 327.704 354.705 324.719C357.472 323.374 360.52 322.708 363.596 322.774L363.995 322.785C364.93 322.812 365.851 323.028 366.7 323.42C367.55 323.813 368.311 324.374 368.937 325.069C369.563 325.765 370.041 326.58 370.343 327.466C370.645 328.352 370.763 329.29 370.692 330.223C369.317 348.027 366.891 391.034 374.02 405.842L374.204 406.225L373.793 406.329C367.017 407.854 360.093 408.627 353.146 408.635L353.145 408.635Z" fill="#6C63FF"/>
<path d="M320.219 395.576C320.219 395.576 275.067 391.408 270.205 404.606C265.342 417.804 270.9 424.056 279.235 426.834C287.571 429.613 307.715 433.086 307.715 433.086L316.746 421.972L340.363 423.361C340.363 423.361 366.68 438.624 373.956 454.949C375.517 458.482 378.007 461.525 381.16 463.755C384.312 465.986 388.011 467.32 391.862 467.617C397.697 468.022 402.881 465.82 402.881 456.702C402.881 435.863 373.706 405.994 373.706 405.994L320.219 395.576Z" fill="#2F2E41"/>
<path d="M285.834 416.065C285.834 416.065 297.643 412.592 316.398 421.622L285.834 416.065Z" fill="#2F2E41"/>
<path d="M320.815 297.465C327.478 301.533 334.989 304.008 342.765 304.698L340.451 301.926C342.136 302.548 343.909 302.9 345.704 302.968C346.602 302.994 347.494 302.809 348.309 302.428C349.123 302.047 349.837 301.48 350.392 300.773C350.846 300.039 351.116 299.207 351.178 298.346C351.241 297.485 351.094 296.622 350.751 295.831C350.046 294.252 348.948 292.879 347.563 291.844C345.107 289.902 342.209 288.597 339.127 288.046C336.045 287.495 332.874 287.715 329.898 288.687C327.855 289.297 326.025 290.47 324.618 292.071C323.927 292.878 323.447 293.844 323.221 294.882C322.996 295.92 323.031 296.997 323.324 298.018" fill="#2F2E41"/>
<path d="M340.588 283.83C343.619 276.791 348.157 270.502 353.881 265.406C357.557 262.141 361.851 259.333 366.694 258.485C371.538 257.638 376.998 259.09 379.969 263.008C382.401 266.212 382.854 270.505 382.586 274.517C382.319 278.53 381.422 282.506 381.507 286.524C381.595 290.626 382.706 294.641 384.739 298.205C386.772 301.769 389.663 304.769 393.149 306.932C396.636 309.095 400.608 310.354 404.704 310.593C408.8 310.832 412.891 310.044 416.605 308.301C412.422 310.614 409.163 314.275 405.283 317.059C401.402 319.843 396.278 321.755 391.868 319.914C387.201 317.969 385.06 312.677 383.389 307.904L375.934 286.62C374.667 283.002 373.337 279.276 370.751 276.447C368.165 273.618 363.968 271.892 360.408 273.315C357.71 274.393 355.954 276.967 354.414 279.428C352.874 281.888 351.248 284.513 348.648 285.804C346.048 287.095 342.188 286.301 341.339 283.522" fill="#2F2E41"/>
<path d="M346.442 408.694C346.148 408.694 345.854 408.678 345.561 408.646C343.62 408.427 341.836 407.473 340.576 405.98C339.316 404.487 338.676 402.568 338.787 400.617C338.898 398.667 339.752 396.833 341.174 395.493C342.595 394.153 344.476 393.408 346.43 393.412C346.771 393.413 347.111 393.439 347.448 393.487L370.773 368.657L368.338 360.541L380.564 355.059L383.991 363.436C385.14 366.274 385.344 369.406 384.572 372.369C383.799 375.331 382.092 377.966 379.704 379.881L354.029 400.304C354.056 400.553 354.07 400.803 354.071 401.053C354.071 402.128 353.844 403.191 353.405 404.172C352.967 405.154 352.326 406.032 351.526 406.749C350.132 408.007 348.319 408.701 346.442 408.694Z" fill="#FFB8B8"/>
<path d="M364.676 326.111C365.485 325.752 366.358 325.559 367.243 325.546C368.128 325.532 369.006 325.698 369.826 326.032C370.645 326.367 371.388 326.863 372.011 327.492C372.633 328.121 373.122 328.87 373.448 329.693L385.515 360.148L366.76 372.652L364.676 326.111Z" fill="#6C63FF"/>
</g>
<defs>
<clipPath id="clip0_6914_35229">
<rect width="473.048" height="477" fill="white"/>
</clipPath>
</defs>
</svg>
