<svg width="60" height="51" viewBox="0 0 60 51" fill="none" xmlns="http://www.w3.org/2000/svg">
<path d="M38.75 9.95122C41.5 9.95122 43.75 7.7122 43.75 4.97561C43.75 2.23902 41.5 0 38.75 0C36 0 33.75 2.23902 33.75 4.97561C33.75 7.7122 36 9.95122 38.75 9.95122ZM12.5 26.122C5.5 26.122 0 31.5951 0 38.561C0 45.5268 5.5 51 12.5 51C19.5 51 25 45.5268 25 38.561C25 31.5951 19.5 26.122 12.5 26.122ZM12.5 47.2683C7.75 47.2683 3.75 43.2878 3.75 38.561C3.75 33.8341 7.75 29.8537 12.5 29.8537C17.25 29.8537 21.25 33.8341 21.25 38.561C21.25 43.2878 17.25 47.2683 12.5 47.2683ZM27 22.3902L33 16.4195L35 18.4098C38.25 21.6439 42.5 23.6341 47.75 23.6341V18.6585C44 18.6585 41 17.1659 38.75 14.9268L34 10.2C32.75 9.20488 31.5 8.70732 30 8.70732C28.5 8.70732 27.25 9.20488 26.5 10.2L19.5 17.1659C18.5 18.161 18 19.4049 18 20.6488C18 22.1415 18.5 23.3854 19.5 24.1317L27.5 31.0976V43.5366H32.5V28.1122L27 22.3902ZM47.5 26.122C40.5 26.122 35 31.5951 35 38.561C35 45.5268 40.5 51 47.5 51C54.5 51 60 45.5268 60 38.561C60 31.5951 54.5 26.122 47.5 26.122ZM47.5 47.2683C42.75 47.2683 38.75 43.2878 38.75 38.561C38.75 33.8341 42.75 29.8537 47.5 29.8537C52.25 29.8537 56.25 33.8341 56.25 38.561C56.25 43.2878 52.25 47.2683 47.5 47.2683Z" fill="#2B365A"/>
</svg>
