<svg width="43" height="44" viewBox="0 0 43 44" fill="none" xmlns="http://www.w3.org/2000/svg">
<path d="M20.9167 16.6667H25.0833V10.4167H31.3333V6.25H25.0833V0H20.9167V6.25H14.6667V10.4167H20.9167V16.6667ZM12.5833 35.4167C10.2917 35.4167 8.43751 37.2917 8.43751 39.5833C8.43751 41.875 10.2917 43.75 12.5833 43.75C14.875 43.75 16.75 41.875 16.75 39.5833C16.75 37.2917 14.875 35.4167 12.5833 35.4167ZM33.4167 35.4167C31.125 35.4167 29.2708 37.2917 29.2708 39.5833C29.2708 41.875 31.125 43.75 33.4167 43.75C35.7083 43.75 37.5833 41.875 37.5833 39.5833C37.5833 37.2917 35.7083 35.4167 33.4167 35.4167ZM12.9375 28.6458L13 28.3958L14.875 25H30.3958C31.9583 25 33.3333 24.1458 34.0417 22.8542L42.0833 8.25L38.4583 6.25H38.4375L36.1458 10.4167L30.3958 20.8333H15.7708L15.5 20.2708L10.8333 10.4167L8.85418 6.25L6.89584 2.08333H0.0833435V6.25H4.25001L11.75 22.0625L8.93751 27.1667C8.60418 27.75 8.41668 28.4375 8.41668 29.1667C8.41668 31.4583 10.2917 33.3333 12.5833 33.3333H37.5833V29.1667H13.4583C13.1875 29.1667 12.9375 28.9375 12.9375 28.6458Z" fill="#2B365A"/>
</svg>
