<svg width="573" height="390" viewBox="0 0 573 390" fill="none" xmlns="http://www.w3.org/2000/svg">
<g clip-path="url(#clip0_7814_44115)">
<path d="M243.47 94.6222C238.822 111.805 222.9 122.447 222.9 122.447C222.9 122.447 214.515 105.23 219.163 88.0467C223.812 70.8636 239.734 60.2217 239.734 60.2217C239.734 60.2217 248.119 77.4391 243.47 94.6222Z" fill="#6C63FF"/>
<path d="M201.184 94.6222C205.832 111.805 221.754 122.447 221.754 122.447C221.754 122.447 230.139 105.23 225.491 88.0467C220.842 70.8636 204.921 60.2217 204.921 60.2217C204.921 60.2217 196.535 77.4391 201.184 94.6222Z" fill="#6C63FF"/>
<path d="M208.014 90.9275C220.769 103.344 222.327 122.431 222.327 122.431C222.327 122.431 203.205 121.387 190.45 108.971C177.695 96.5541 176.137 77.4668 176.137 77.4668C176.137 77.4668 195.259 78.5109 208.014 90.9275Z" fill="#3F3D56"/>
<path d="M236.641 90.9275C223.886 103.344 222.328 122.431 222.328 122.431C222.328 122.431 241.45 121.387 254.205 108.971C266.96 96.5541 268.518 77.4668 268.518 77.4668C268.518 77.4668 249.396 78.5109 236.641 90.9275Z" fill="#3F3D56"/>
<path d="M542.769 348.14C545.759 359.191 555.999 366.036 555.999 366.036C555.999 366.036 561.392 354.963 558.402 343.911C555.413 332.86 545.173 326.016 545.173 326.016C545.173 326.016 539.78 337.089 542.769 348.14Z" fill="#6C63FF"/>
<path d="M547.162 345.766C555.365 353.751 556.367 366.027 556.367 366.027C556.367 366.027 544.069 365.356 535.866 357.37C527.662 349.384 526.66 337.108 526.66 337.108C526.66 337.108 538.959 337.78 547.162 345.766Z" fill="#3F3D56"/>
<path d="M64.1024 117.588V365.886H380.551V117.588H64.1024ZM271.848 243.405C271.848 245.648 271.714 247.89 271.447 250.117L270.068 249.951C269.807 252.124 269.414 254.279 268.892 256.404L270.243 256.735C269.707 258.916 269.039 261.063 268.242 263.163L266.942 262.67C266.166 264.717 265.266 266.715 264.247 268.653L265.477 269.299C264.432 271.286 263.268 273.208 261.991 275.055L260.848 274.264C259.603 276.065 258.251 277.788 256.799 279.426L257.839 280.348C256.351 282.027 254.763 283.616 253.084 285.105L252.162 284.064C250.525 285.516 248.802 286.868 247.003 288.113L247.794 289.256C245.949 290.532 244.029 291.695 242.044 292.741L241.396 291.511C239.46 292.53 237.463 293.431 235.417 294.208L235.911 295.507C233.812 296.304 231.667 296.973 229.487 297.509L229.156 296.16C227.031 296.683 224.876 297.076 222.704 297.338L222.87 298.718C220.643 298.985 218.402 299.12 216.158 299.121L216.158 297.735L216.131 297.735C213.952 297.734 211.775 297.604 209.611 297.344L209.445 298.724C207.217 298.457 205.007 298.056 202.827 297.523L203.158 296.172C201.032 295.651 198.939 295.001 196.891 294.225L196.398 295.525C194.299 294.729 192.249 293.807 190.261 292.763L190.907 291.533C188.969 290.515 187.095 289.381 185.294 288.137L184.504 289.28C182.657 288.004 180.889 286.619 179.208 285.132L180.13 284.091C178.492 282.64 176.942 281.092 175.489 279.455L174.45 280.379C172.961 278.7 171.573 276.934 170.295 275.09L171.438 274.298C170.193 272.5 169.057 270.628 168.038 268.693L166.808 269.341C165.762 267.355 164.837 265.307 164.038 263.21L165.338 262.716C164.56 260.67 163.907 258.58 163.383 256.455L162.033 256.788C161.496 254.609 161.092 252.399 160.822 250.171L162.201 250.004C161.936 247.823 161.803 245.628 161.802 243.431L160.415 243.458L160.415 243.384C160.416 241.166 160.547 238.949 160.809 236.747L162.189 236.911C162.448 234.738 162.838 232.583 163.358 230.457L162.007 230.127C162.541 227.945 163.207 225.798 164.001 223.697L165.301 224.189C166.076 222.141 166.974 220.143 167.991 218.204L166.76 217.558C167.804 215.57 168.966 213.647 170.241 211.799L171.385 212.588C172.628 210.787 173.978 209.062 175.428 207.423L174.387 206.502C175.874 204.822 177.46 203.232 179.137 201.741L180.061 202.781C181.697 201.327 183.418 199.974 185.216 198.727L184.424 197.584C186.268 196.306 188.187 195.141 190.171 194.093L190.82 195.323C192.755 194.302 194.751 193.4 196.796 192.621L196.301 191.321C198.398 190.522 200.543 189.852 202.722 189.313L203.056 190.663C205.18 190.138 207.334 189.742 209.506 189.478L209.338 188.099C211.565 187.829 213.807 187.692 216.05 187.689L216.052 189.076C216.078 189.076 216.105 189.075 216.131 189.075C218.293 189.076 220.453 189.204 222.599 189.46L222.763 188.079C224.991 188.344 227.202 188.743 229.382 189.274L229.053 190.625C231.18 191.144 233.274 191.792 235.322 192.566L235.814 191.265C237.915 192.058 239.965 192.979 241.955 194.021L241.309 195.253C243.248 196.269 245.124 197.401 246.926 198.643L247.715 197.498C249.562 198.773 251.332 200.157 253.014 201.642L252.093 202.684C253.733 204.133 255.284 205.68 256.738 207.315L257.777 206.391C259.268 208.067 260.657 209.832 261.937 211.674L260.794 212.468C262.041 214.265 263.179 216.135 264.201 218.07L265.43 217.42C266.478 219.405 267.405 221.452 268.206 223.549L266.906 224.045C267.686 226.089 268.341 228.179 268.867 230.303L270.217 229.969C270.755 232.148 271.162 234.357 271.434 236.585L270.056 236.753C270.321 238.925 270.456 241.111 270.46 243.299H271.848L271.848 243.405Z" fill="#3F3D56"/>
<path d="M78.1922 135.702C81.2549 135.702 83.7377 133.22 83.7377 130.157C83.7377 127.094 81.2549 124.611 78.1922 124.611C75.1295 124.611 72.6466 127.094 72.6466 130.157C72.6466 133.22 75.1295 135.702 78.1922 135.702Z" fill="#6C63FF"/>
<path d="M95.3827 135.702C98.4454 135.702 100.928 133.22 100.928 130.157C100.928 127.094 98.4454 124.611 95.3827 124.611C92.32 124.611 89.8372 127.094 89.8372 130.157C89.8372 133.22 92.32 135.702 95.3827 135.702Z" fill="#6C63FF"/>
<path d="M112.574 135.702C115.637 135.702 118.12 133.22 118.12 130.157C118.12 127.094 115.637 124.611 112.574 124.611C109.512 124.611 107.029 127.094 107.029 130.157C107.029 133.22 109.512 135.702 112.574 135.702Z" fill="#6C63FF"/>
<path d="M365.45 141.805H78.1919V142.914H365.45V141.805Z" fill="#E6E6E6"/>
<path d="M270.621 319.814H160.265V320.924H270.621V319.814Z" fill="#E6E6E6"/>
<path d="M270.621 331.459H160.265V332.568H270.621V331.459Z" fill="#E6E6E6"/>
<path d="M270.621 343.106H160.265V344.216H270.621V343.106Z" fill="#E6E6E6"/>
<path d="M572.298 365.287H0V366.396H572.298V365.287Z" fill="#3F3D56"/>
<path d="M424.436 109.515C413.5 109.515 404.635 119.353 404.635 131.49V146.909H409.377L412.122 141.196L411.436 146.909H441.918L444.414 141.716L443.79 146.909H447.222V134.802C447.222 120.836 437.02 109.515 424.436 109.515Z" fill="#2F2E41"/>
<path d="M424.584 340.71L433.639 365.016L444.601 370.735L436.022 340.71H424.584Z" fill="#FFB8B8"/>
<path d="M474.625 342.615L488.446 370.733L495.595 366.445L485.11 337.85L474.625 342.615Z" fill="#FFB8B8"/>
<path d="M421.249 142.454C428.618 142.454 434.593 136.48 434.593 129.11C434.593 121.74 428.618 115.766 421.249 115.766C413.879 115.766 407.904 121.74 407.904 129.11C407.904 136.48 413.879 142.454 421.249 142.454Z" fill="#FFB8B8"/>
<path d="M419.342 139.595C419.342 139.595 424.107 151.986 421.248 155.322C418.388 158.658 439.358 150.08 439.358 150.08C439.358 150.08 430.303 139.118 430.779 134.353L419.342 139.595Z" fill="#FFB8B8"/>
<path d="M436.022 149.126L443.171 147.696L450.32 139.118C450.32 139.118 453.656 127.203 457.945 123.867V122.438C457.945 122.438 436.022 108.14 429.35 108.617C429.35 108.617 406.951 115.289 411.24 108.617C412.447 106.74 414.52 105.241 416.877 104.055C420.263 102.389 423.954 101.433 427.723 101.247C431.492 101.06 435.26 101.647 438.794 102.97L469.86 114.336C470.554 116.011 470.872 117.819 470.79 119.631C470.707 121.443 470.227 123.215 469.383 124.821C466.523 130.54 456.515 160.087 456.515 160.087C454.154 164.882 452.085 169.816 450.32 174.861C447.937 182.01 446.031 186.776 446.031 186.776L405.521 186.299L408.857 171.525C408.857 171.525 405.521 165.33 400.756 164.853C400.756 164.853 366.442 151.509 365.012 143.407C365.012 143.407 364.535 140.548 366.442 139.118C368.348 137.688 389.794 114.336 389.794 114.336C389.794 114.336 399.326 101.945 404.092 105.757C408.857 109.57 395.513 119.102 395.513 119.102C395.513 119.102 381.692 140.071 379.786 141.501C379.786 141.501 393.13 149.603 396.943 150.556C400.756 151.509 409.811 150.556 414.1 154.369C416.006 154.895 417.998 155.04 419.961 154.795C421.924 154.549 423.819 153.919 425.538 152.939C431.257 149.603 436.022 149.126 436.022 149.126Z" fill="#FFB8B8"/>
<path d="M416.006 152.464L408.857 171.527C408.857 171.527 402.662 177.246 405.045 190.59C405.045 190.59 405.998 202.981 403.139 206.794C400.279 210.607 360.723 253.976 398.373 345.479C398.373 345.479 423.631 340.713 442.695 348.815C461.758 356.917 493.212 340.236 493.212 340.236L443.648 218.232C443.648 218.232 442.218 192.973 450.32 181.535L445.078 177.246C445.078 177.246 438.882 161.996 439.835 157.23C439.835 157.23 441.741 147.698 442.695 146.745H438.882L433.64 159.136C433.64 159.136 425.061 175.34 417.913 173.91C410.764 172.48 416.483 162.472 416.483 162.472L418.866 152.941L416.006 152.464Z" fill="#2F2E41"/>
<path d="M444.6 366.443C444.6 366.443 433.774 362.015 432.992 363.276C432.209 364.537 428.397 372.162 428.397 372.162C428.397 372.162 413.623 387.413 425.537 389.319C437.452 391.225 438.881 384.553 438.881 384.553C438.881 384.553 439.358 384.076 441.264 384.076C443.171 384.076 450.796 381.217 450.319 379.787C449.843 378.358 444.6 366.443 444.6 366.443Z" fill="#2F2E41"/>
<path d="M496.071 363.109C496.071 363.109 486.063 365.492 485.587 367.399C485.11 369.305 481.774 382.173 484.633 383.126C487.493 384.079 491.782 385.509 493.212 385.032C494.642 384.555 497.978 391.228 505.126 389.798C512.275 388.368 515.611 387.415 515.135 386.938C514.658 386.462 512.752 379.313 507.033 376.454C501.314 373.594 496.071 363.109 496.071 363.109Z" fill="#2F2E41"/>
<path d="M430.065 115.568C429.112 114.289 427.877 113.246 426.456 112.521C425.035 111.795 423.466 111.407 421.871 111.387H421.482C413.987 111.387 407.911 118.169 407.911 126.536V126.536H410.422L410.828 123.449L411.423 126.536H426.318L427.566 123.924L427.254 126.536H430.185C431.552 133.327 429.587 140.118 424.29 146.909H429.282L431.778 141.685L431.154 146.909H440.67L442.542 134.894C442.542 125.896 437.314 118.266 430.065 115.568Z" fill="#2F2E41"/>
<path d="M459.134 55.6109C459.134 55.5665 459.136 55.5225 459.136 55.4781C459.135 53.3432 459.009 51.2102 458.76 49.09L460.347 48.8964C460.074 46.6687 459.668 44.4595 459.129 42.2808L457.61 42.6568C457.097 40.5362 456.456 38.4487 455.69 36.4058L457.118 35.8609C456.318 33.7638 455.391 31.7171 454.343 29.7321L453.025 30.4281C452.017 28.4906 450.892 26.6157 449.657 24.8136L450.849 23.9868C449.569 22.1439 448.18 20.3792 446.69 18.7023L445.636 19.6397C444.191 17.9957 442.65 16.44 441.019 14.9808L441.926 13.9542C440.244 12.4684 438.475 11.0846 436.627 9.81025L435.872 10.9051C434.075 9.65002 432.203 8.50487 430.268 7.47592L430.867 6.33294C428.877 5.29124 426.827 4.37072 424.726 3.57643L424.284 4.74798C422.234 3.96029 420.138 3.29861 418.007 2.76663L418.295 1.58567C416.115 1.05425 413.904 0.655214 411.675 0.390732L411.537 1.56296C409.356 1.29381 407.161 1.15592 404.964 1.15003L404.963 0C402.719 0.0031826 400.478 0.140076 398.251 0.409953L398.387 1.52729C396.202 1.78425 394.036 2.17413 391.899 2.69477L391.634 1.62412C389.455 2.1631 387.311 2.83379 385.213 3.63248L385.599 4.64481C383.54 5.4232 381.531 6.32669 379.582 7.35022L379.083 6.40526C377.099 7.45252 375.18 8.61816 373.337 9.89585L373.94 10.7661C372.129 12.0184 370.396 13.379 368.75 14.8405L368.051 14.0526C366.373 15.5434 364.787 17.1334 363.299 18.8139L364.089 19.512C362.63 21.1617 361.273 22.8982 360.024 24.712L359.153 24.1106C357.878 25.9586 356.716 27.8818 355.673 29.8697L356.619 30.366C355.6 32.3178 354.7 34.3302 353.927 36.3918L352.914 36.0086C352.12 38.1096 351.454 40.2569 350.92 42.4387L351.991 42.7006C351.476 44.8388 351.091 47.0063 350.84 49.1912L349.721 49.0582C349.459 51.268 349.328 53.4913 349.327 55.7166V55.7691L350.479 55.7473C350.489 57.9517 350.631 60.1536 350.906 62.3408L349.735 62.4825C350.005 64.7104 350.409 66.92 350.945 69.0992L352.126 68.8085C352.663 70.9365 353.329 73.0297 354.121 75.0765L352.95 75.5221C353.749 77.6197 354.674 79.6672 355.72 81.6533L356.862 81.0514C357.895 82.9833 359.043 84.8511 360.302 86.6444L359.209 87.4013C360.486 89.2454 361.873 91.0114 363.362 92.6899L364.387 91.7803C365.85 93.408 367.409 94.9463 369.056 96.3871L368.121 97.4426C369.802 98.9304 371.57 100.316 373.416 101.592L374.24 100.399C376.046 101.63 377.925 102.751 379.866 103.756L379.173 105.075C381.161 106.119 383.211 107.041 385.311 107.837L385.852 106.408C387.899 107.169 389.989 107.806 392.113 108.314L391.74 109.834C393.92 110.367 396.13 110.769 398.359 111.036L398.549 109.448C400.626 109.687 402.715 109.807 404.806 109.808C404.894 109.808 404.982 109.805 405.07 109.805L405.071 111.433C407.314 111.432 409.556 111.297 411.783 111.029L411.585 109.388C413.745 109.118 415.887 108.719 418 108.191L418.401 109.821C420.58 109.284 422.725 108.616 424.824 107.819L424.221 106.232C426.253 105.454 428.236 104.555 430.159 103.538L430.956 105.053C432.942 104.008 434.862 102.844 436.707 101.568L435.727 100.152C437.514 98.9125 439.225 97.5675 440.852 96.124L441.997 97.4161C443.676 95.9269 445.264 94.3386 446.752 92.6596L445.46 91.5144C446.904 89.8872 448.249 88.1751 449.488 86.3873L450.904 87.3664C452.18 85.5196 453.344 83.5977 454.39 81.6111L452.874 80.8141C453.891 78.8896 454.79 76.9055 455.568 74.8726L457.156 75.4747C457.952 73.3745 458.619 71.228 459.155 69.047L457.525 68.6467C458.052 66.5343 458.45 64.392 458.718 62.2316L460.36 62.4289C460.627 60.2014 460.76 57.96 460.76 55.7166V55.611L459.134 55.6109Z" fill="#3F3D56"/>
</g>
<defs>
<clipPath id="clip0_7814_44115">
<rect width="572.298" height="390" fill="white"/>
</clipPath>
</defs>
</svg>
