<svg width="295" height="231" viewBox="0 0 295 231" fill="none" xmlns="http://www.w3.org/2000/svg">
<g clip-path="url(#clip0_7814_39454)">
<path d="M267.818 210.879C262.178 216.918 255.715 222.132 248.621 226.368C248.458 226.468 248.293 226.562 248.126 226.659L236.641 216.493C236.761 216.381 236.895 216.255 237.039 216.117C245.597 207.99 288.083 151.172 290.914 137.336C290.719 138.489 293.469 183.693 267.818 210.879Z" fill="#F0F0F0"/>
<path d="M250.837 228.329C250.62 228.381 250.399 228.429 250.177 228.473L241.56 220.847C241.728 220.788 241.925 220.718 242.15 220.641C245.847 219.332 256.859 215.38 267.817 210.878C279.592 206.04 291.311 200.572 293.831 197.07C293.29 197.884 276.637 222.56 250.837 228.329Z" fill="#F0F0F0"/>
<path d="M267.659 60.4989H266.432V26.8822C266.432 24.3272 265.929 21.7971 264.951 19.4366C263.973 17.076 262.54 14.9311 260.733 13.1244C258.926 11.3177 256.782 9.88459 254.421 8.90681C252.06 7.92904 249.53 7.42578 246.975 7.42578H175.754C173.199 7.42578 170.669 7.92902 168.308 8.9068C165.948 9.88457 163.803 11.3177 161.996 13.1244C160.189 14.9311 158.756 17.076 157.778 19.4365C156.801 21.7971 156.297 24.3271 156.297 26.8822V211.306C156.297 213.861 156.801 216.391 157.778 218.752C158.756 221.112 160.189 223.257 161.996 225.064C163.803 226.87 165.948 228.304 168.308 229.281C170.669 230.259 173.199 230.762 175.754 230.762H246.975C249.53 230.762 252.06 230.259 254.421 229.281C256.782 228.304 258.926 226.871 260.733 225.064C262.54 223.257 263.973 221.112 264.951 218.752C265.928 216.391 266.432 213.861 266.432 211.306V84.4279H267.659V60.4989Z" fill="#3F3D56"/>
<path d="M262.29 27.0151V211.171C262.29 213.079 261.914 214.968 261.184 216.731C260.453 218.494 259.383 220.095 258.033 221.444C256.684 222.793 255.082 223.863 253.319 224.593C251.556 225.323 249.666 225.698 247.758 225.697H176.193C174.286 225.698 172.397 225.322 170.634 224.592C168.872 223.862 167.27 222.792 165.921 221.443C164.572 220.094 163.502 218.492 162.772 216.73C162.042 214.967 161.666 213.078 161.667 211.171V27.0151C161.666 25.1074 162.042 23.2183 162.772 21.4558C163.502 19.6932 164.572 18.0917 165.921 16.7428C167.27 15.3938 168.872 14.3238 170.634 13.5938C172.397 12.8638 174.286 12.4881 176.193 12.4883H184.878C184.452 13.5365 184.29 14.6734 184.406 15.799C184.522 16.9246 184.913 18.0045 185.544 18.9435C186.176 19.8826 187.028 20.6521 188.027 21.1844C189.025 21.7167 190.139 21.9955 191.271 21.9963H232.072C233.204 21.9974 234.319 21.7198 235.319 21.1879C236.318 20.6561 237.172 19.8865 237.804 18.9469C238.435 18.0073 238.826 16.9266 238.941 15.8002C239.057 14.6739 238.893 13.5364 238.465 12.4883H247.758C249.666 12.4876 251.556 12.8628 253.319 13.5926C255.082 14.3223 256.684 15.3922 258.033 16.7412C259.383 18.0903 260.453 19.6919 261.184 21.4547C261.914 23.2176 262.29 25.107 262.29 27.0151Z" fill="white"/>
<path d="M240.029 122.712H177.126C176.025 122.711 174.968 122.272 174.189 121.493C173.41 120.714 172.972 119.658 172.971 118.556V116.488C172.972 115.386 173.41 114.33 174.189 113.551C174.968 112.771 176.025 112.333 177.126 112.332H240.029C241.131 112.333 242.187 112.771 242.966 113.551C243.746 114.33 244.184 115.386 244.185 116.488V118.556C244.184 119.658 243.746 120.714 242.966 121.493C242.187 122.272 241.131 122.711 240.029 122.712Z" fill="#F0F0F0"/>
<path d="M240.029 140.543H177.126C176.025 140.542 174.968 140.103 174.189 139.324C173.41 138.545 172.972 137.489 172.971 136.387V134.319C172.972 133.217 173.41 132.161 174.189 131.382C174.968 130.603 176.025 130.164 177.126 130.163H240.029C241.131 130.164 242.187 130.603 242.966 131.382C243.746 132.161 244.184 133.217 244.185 134.319V136.387C244.184 137.489 243.746 138.545 242.966 139.324C242.187 140.103 241.131 140.542 240.029 140.543Z" fill="#F0F0F0"/>
<path d="M243.176 118.724H180.273C179.116 118.723 178.007 118.263 177.189 117.445C176.371 116.627 175.91 115.518 175.909 114.361V112.292C175.91 111.135 176.371 110.026 177.189 109.208C178.007 108.39 179.116 107.93 180.273 107.929H243.176C244.332 107.93 245.442 108.39 246.26 109.208C247.078 110.026 247.538 111.135 247.539 112.292V114.361C247.538 115.518 247.078 116.627 246.26 117.445C245.442 118.263 244.332 118.723 243.176 118.724ZM180.273 108.76C179.336 108.761 178.438 109.133 177.776 109.796C177.114 110.458 176.741 111.356 176.74 112.292V114.361C176.741 115.297 177.114 116.195 177.776 116.857C178.438 117.519 179.336 117.892 180.273 117.893H243.176C244.112 117.892 245.01 117.519 245.672 116.857C246.334 116.195 246.707 115.297 246.708 114.361V112.292C246.707 111.356 246.334 110.458 245.672 109.796C245.01 109.133 244.112 108.761 243.176 108.76H180.273Z" fill="#3F3D56"/>
<path d="M243.176 136.555H180.273C179.116 136.554 178.007 136.094 177.189 135.276C176.371 134.458 175.91 133.349 175.909 132.192V130.123C175.91 128.966 176.371 127.857 177.189 127.039C178.007 126.221 179.116 125.761 180.273 125.76H243.176C244.332 125.761 245.442 126.221 246.26 127.039C247.078 127.857 247.538 128.966 247.539 130.123V132.192C247.538 133.349 247.078 134.458 246.26 135.276C245.442 136.094 244.332 136.554 243.176 136.555ZM180.273 126.591C179.336 126.592 178.438 126.964 177.776 127.627C177.114 128.289 176.741 129.187 176.74 130.123V132.192C176.741 133.128 177.114 134.026 177.776 134.688C178.438 135.35 179.336 135.723 180.273 135.724H243.176C244.112 135.723 245.01 135.35 245.672 134.688C246.334 134.026 246.707 133.128 246.708 132.192V130.123C246.707 129.187 246.334 128.289 245.672 127.627C245.01 126.964 244.112 126.592 243.176 126.591H180.273Z" fill="#3F3D56"/>
<path d="M262.29 27.0151V67.0715C255.925 68.746 249.261 68.9381 242.811 67.6331C236.36 66.328 230.295 63.5606 225.081 59.5437C219.868 55.5268 215.646 50.3675 212.739 44.4628C209.832 38.558 208.319 32.0652 208.315 25.4838C208.315 24.3091 208.363 23.1466 208.457 21.9963H232.072C233.204 21.9974 234.32 21.7198 235.319 21.1879C236.319 20.6561 237.172 19.8865 237.804 18.9469C238.436 18.0073 238.826 16.9266 238.942 15.8002C239.057 14.6739 238.894 13.5364 238.465 12.4883H247.758C249.666 12.4876 251.556 12.8628 253.319 13.5926C255.082 14.3223 256.684 15.3922 258.034 16.7412C259.383 18.0903 260.454 19.6919 261.184 21.4547C261.914 23.2176 262.29 25.107 262.29 27.0151Z" fill="#F0F0F0"/>
<path d="M197.826 223.197C197.826 224.041 197.795 224.875 197.727 225.698H176.193C174.286 225.698 172.397 225.323 170.634 224.593C168.872 223.863 167.27 222.793 165.921 221.444C164.572 220.095 163.502 218.493 162.772 216.731C162.042 214.968 161.666 213.079 161.667 211.171V191.474C166.18 190.887 170.767 191.268 175.122 192.593C179.476 193.918 183.498 196.156 186.92 199.158C190.342 202.16 193.084 205.857 194.965 210.002C196.845 214.147 197.821 218.645 197.826 223.197H197.826Z" fill="#6C63FF"/>
<path d="M24.1533 188.634C24.7584 188.9 25.4443 188.915 26.0606 188.676C26.6769 188.437 27.1733 187.963 27.4409 187.359L46.8392 143.395C47.2832 142.388 47.4189 141.273 47.2291 140.19C47.0393 139.107 46.5325 138.104 45.7728 137.309C45.0132 136.514 44.0348 135.962 42.9614 135.723C41.888 135.484 40.7678 135.568 39.7424 135.966H39.7424C38.5578 136.418 37.5666 137.267 36.9373 138.368C36.8372 138.542 36.7464 138.722 36.6653 138.905L17.2669 182.87C17.1347 183.169 17.0628 183.492 17.0553 183.819C17.0479 184.147 17.1049 184.472 17.2233 184.778C17.3417 185.083 17.519 185.362 17.7452 185.599C17.9714 185.836 18.242 186.025 18.5416 186.158L24.1533 188.634Z" fill="#6C63FF"/>
<path d="M46.0429 161.445L26.8555 157.181L31.6046 144.617C32.4136 141.547 34.2964 138.867 36.9115 137.066C39.5265 135.265 42.7006 134.46 45.8581 134.798L46.0429 134.819L46.0429 161.445Z" fill="#2B365A"/>
<path d="M84.7986 189.263C84.2342 189.262 83.6822 189.097 83.2093 188.789C82.7365 188.481 82.363 188.043 82.134 187.527L62.7357 143.562C62.1188 142.164 62.0614 140.581 62.5754 139.142C63.0895 137.702 64.1357 136.514 65.4991 135.822C66.8624 135.13 68.439 134.987 69.9046 135.422C71.3702 135.857 72.6133 136.837 73.3781 138.161V138.161C73.4856 138.348 73.5831 138.541 73.6701 138.738L93.0684 182.702C93.3798 183.408 93.3981 184.209 93.1192 184.928C92.8403 185.648 92.2871 186.227 91.5813 186.538L85.7794 189.098L85.7764 189.091C85.4628 189.204 85.132 189.262 84.7986 189.263Z" fill="#6C63FF"/>
<path d="M57.9656 174.165C57.3045 174.166 56.6707 174.429 56.2033 174.896C55.7358 175.364 55.4729 175.997 55.4722 176.658V227.779C55.4729 228.44 55.7358 229.074 56.2033 229.541C56.6707 230.009 57.3045 230.272 57.9656 230.272H64.0991C64.7602 230.272 65.394 230.009 65.8614 229.541C66.3289 229.074 66.5918 228.44 66.5925 227.779V176.658C66.5918 175.997 66.3289 175.364 65.8614 174.896C65.394 174.429 64.7602 174.166 64.0991 174.165H57.9656Z" fill="#6C63FF"/>
<path d="M45.8342 174.165C45.1732 174.166 44.5394 174.429 44.0719 174.896C43.6045 175.364 43.3416 175.997 43.3408 176.658V227.779C43.3416 228.44 43.6045 229.074 44.0719 229.541C44.5394 230.009 45.1732 230.272 45.8342 230.272H51.9679C52.6289 230.272 53.2627 230.009 53.7302 229.541C54.1976 229.074 54.4605 228.44 54.4613 227.779V176.658C54.4605 175.997 54.1976 175.364 53.7302 174.896C53.2627 174.429 52.6289 174.166 51.9679 174.165H45.8342Z" fill="#6C63FF"/>
<path d="M54.7833 120.608C66.4883 120.608 75.9772 111.12 75.9772 99.4146C75.9772 87.7095 66.4883 78.2207 54.7833 78.2207C43.0782 78.2207 33.5894 87.7095 33.5894 99.4146C33.5894 111.12 43.0782 120.608 54.7833 120.608Z" fill="#6C63FF"/>
<path d="M61.8361 108.311C63.2099 108.273 64.9197 108.225 66.237 107.263C66.6292 106.964 66.9515 106.584 67.1812 106.148C67.4109 105.712 67.5425 105.231 67.5668 104.739C67.5906 104.389 67.5332 104.039 67.3991 103.715C67.265 103.391 67.0578 103.102 66.7937 102.872C66.1057 102.29 65.1011 102.154 64.0185 102.472L65.1402 94.2749L64.3167 94.1621L62.9981 103.799L63.6857 103.484C64.4829 103.118 65.5772 102.932 66.2572 103.506C66.4242 103.657 66.5543 103.843 66.6374 104.052C66.7204 104.261 66.7543 104.486 66.7362 104.71C66.7161 105.076 66.6172 105.434 66.4465 105.758C66.2757 106.083 66.0371 106.367 65.7467 106.591C64.7216 107.34 63.3587 107.437 61.813 107.48L61.8361 108.311Z" fill="#2B365A"/>
<path d="M73.6887 94.9824H69.2124V95.8136H73.6887V94.9824Z" fill="#2B365A"/>
<path d="M59.5598 94.9824H55.0835V95.8136H59.5598V94.9824Z" fill="#2B365A"/>
<path d="M75.7834 189.52L68.1552 133.834C68.0734 133.237 67.7781 132.69 67.3239 132.294C66.8698 131.897 66.2875 131.679 65.6848 131.679H59.9269C59.9509 131.542 59.9634 131.403 59.9643 131.264V129.186C59.9642 128.524 59.7015 127.89 59.2339 127.423C58.7663 126.955 58.1321 126.692 57.4709 126.692H52.4841C51.8228 126.692 51.1886 126.955 50.721 127.423C50.2534 127.89 49.9907 128.524 49.9907 129.186V131.264C49.9915 131.403 50.004 131.542 50.028 131.679H44.2701C43.6674 131.679 43.0852 131.897 42.631 132.294C42.1768 132.69 41.8815 133.237 41.7997 133.834L34.1715 189.52C34.1232 189.873 34.151 190.232 34.253 190.573C34.355 190.914 34.5288 191.229 34.7629 191.498C34.9969 191.766 35.2857 191.981 35.6098 192.128C35.9339 192.276 36.2858 192.352 36.6418 192.352H73.3131C73.6691 192.352 74.021 192.276 74.3451 192.128C74.6692 191.981 74.958 191.766 75.192 191.498C75.426 191.229 75.5999 190.914 75.7019 190.573C75.8039 190.232 75.8317 189.873 75.7834 189.52Z" fill="#2B365A"/>
<path d="M63.9121 161.444V134.818L64.097 134.798C67.2583 134.46 70.4359 135.267 73.0526 137.073C75.6694 138.879 77.5516 141.563 78.3573 144.639L83.0995 157.18L63.9121 161.444Z" fill="#2B365A"/>
<path d="M53.7161 121.267L39.0568 115.577C36.6597 114.647 34.2492 113.745 31.8648 112.782C30.8434 112.427 29.9026 111.872 29.0965 111.151C28.3947 110.408 27.9163 109.482 27.7163 108.48C27.2079 106.331 27.2998 103.981 27.3361 101.788C27.3642 99.3892 27.5616 96.9951 27.9269 94.6237C28.5671 90.1676 30.0705 85.8791 32.3528 81.9986C36.4639 75.2534 43.547 70.1784 51.6945 70.5834C55.4664 70.771 59.2601 72.1245 62.0626 74.7034C62.3549 75.0527 62.6829 75.3706 63.0413 75.6519C63.2904 75.7453 63.5614 75.7635 63.8208 75.7042C64.1627 75.6822 64.505 75.6654 64.8476 75.6538C66.0362 75.6037 67.2269 75.6537 68.4071 75.8032C70.5579 76.0355 72.5964 76.882 74.2792 78.2414C75.6797 79.4462 76.8193 81.1469 76.9366 83.037C76.9932 83.9047 76.8497 84.7737 76.5172 85.5771C76.1848 86.3806 75.6722 87.0969 75.019 87.6708C73.2701 89.1448 70.7748 88.6267 68.6769 88.5156L60.9915 88.1084L57.0976 87.9021C56.2958 87.8596 56.2981 89.1065 57.0976 89.1488L67.4472 89.6971C69.1104 89.7852 70.8245 90.0012 72.4891 89.9015C73.768 89.8435 74.9893 89.3522 75.9521 88.5083C76.8313 87.7006 77.4863 86.6788 77.8531 85.5425C78.22 84.4063 78.2861 83.1944 78.0451 82.025C77.5115 79.4744 75.6133 77.3646 73.388 76.1094C70.3601 74.4015 66.7439 74.2378 63.3559 74.4903L63.7967 74.6729C59.9642 70.5595 54.0938 68.8228 48.5827 69.4306C42.7638 70.0723 37.5884 73.3186 33.8699 77.7575C29.724 82.7067 27.4648 88.8779 26.5865 95.2237C26.1294 98.6499 25.9789 102.11 26.1368 105.563C26.1303 107.086 26.3909 108.598 26.9066 110.031C27.495 111.425 28.5589 112.566 29.9091 113.25C31.4571 113.997 33.0485 114.651 34.6748 115.207L40.0756 117.304L50.6843 121.421L53.3847 122.47C54.133 122.76 54.4572 121.555 53.7161 121.267Z" fill="#2B365A"/>
<path d="M30.6669 78.9021C29.3929 78.9021 28.1475 78.5243 27.0883 77.8166C26.029 77.1088 25.2034 76.1028 24.7159 74.9258C24.2284 73.7488 24.1008 72.4537 24.3494 71.2042C24.5979 69.9547 25.2114 68.807 26.1122 67.9061C27.013 67.0053 28.1608 66.3918 29.4102 66.1433C30.6597 65.8948 31.9549 66.0223 33.1318 66.5099C34.3088 66.9974 35.3148 67.823 36.0226 68.8822C36.7304 69.9415 37.1082 71.1869 37.1082 72.4608C37.1062 74.1686 36.427 75.8058 35.2194 77.0134C34.0119 78.2209 32.3746 78.9002 30.6669 78.9021ZM30.6669 67.2662C29.6395 67.2662 28.6352 67.5709 27.7809 68.1417C26.9267 68.7125 26.2609 69.5238 25.8677 70.4729C25.4745 71.4221 25.3717 72.4666 25.5721 73.4742C25.7725 74.4819 26.2673 75.4075 26.9937 76.1339C27.7202 76.8604 28.6458 77.3552 29.6535 77.5556C30.6611 77.756 31.7056 77.6532 32.6548 77.26C33.6039 76.8668 34.4152 76.201 34.986 75.3468C35.5568 74.4925 35.8615 73.4882 35.8615 72.4608C35.8599 71.0836 35.3121 69.7632 34.3383 68.7894C33.3645 67.8156 32.0441 67.2678 30.6669 67.2662Z" fill="#2B365A"/>
<path d="M138.342 118.82L124.4 108.157L113.737 122.099L127.679 132.762L138.342 118.82Z" fill="#F0F0F0"/>
<path d="M59.5486 23.6322C61.7514 23.6305 63.924 24.1446 65.8925 25.1334C67.8609 26.1222 69.5704 27.5582 70.8842 29.3264L79.025 18.6822L54.5985 0L35.9165 24.4266L46.4442 32.4785C47.4978 29.8657 49.3083 27.6273 51.6434 26.051C53.9784 24.4747 56.7313 23.6324 59.5486 23.6322Z" fill="#F0F0F0"/>
<path d="M293.806 230.999H0.415567C0.305352 230.999 0.19965 230.955 0.121716 230.877C0.0437825 230.799 0 230.694 0 230.584C0 230.473 0.0437825 230.368 0.121716 230.29C0.19965 230.212 0.305352 230.168 0.415567 230.168H293.806C293.916 230.168 294.022 230.212 294.099 230.29C294.177 230.368 294.221 230.473 294.221 230.584C294.221 230.694 294.177 230.799 294.099 230.877C294.022 230.955 293.916 230.999 293.806 230.999Z" fill="#3F3D56"/>
<path d="M222.198 162.044H192.335C191.233 162.043 190.177 161.604 189.398 160.825C188.619 160.046 188.18 158.99 188.179 157.888V155.82C188.18 154.718 188.619 153.662 189.398 152.883C190.177 152.104 191.233 151.665 192.335 151.664H222.198C223.3 151.665 224.356 152.104 225.135 152.883C225.915 153.662 226.353 154.718 226.354 155.82V157.888C226.353 158.99 225.915 160.046 225.135 160.825C224.356 161.604 223.3 162.043 222.198 162.044Z" fill="#6C63FF"/>
<path d="M225.345 158.057H195.482C194.325 158.056 193.216 157.596 192.398 156.778C191.58 155.96 191.119 154.851 191.118 153.694V151.625C191.119 150.468 191.58 149.359 192.398 148.541C193.216 147.723 194.325 147.263 195.482 147.262H225.345C226.502 147.263 227.611 147.723 228.429 148.541C229.247 149.359 229.707 150.468 229.709 151.625V153.694C229.707 154.851 229.247 155.96 228.429 156.778C227.611 157.596 226.502 158.056 225.345 158.057ZM195.482 148.093C194.545 148.094 193.647 148.466 192.985 149.129C192.323 149.791 191.95 150.689 191.949 151.625V153.694C191.95 154.63 192.323 155.528 192.985 156.19C193.647 156.852 194.545 157.225 195.482 157.226H225.345C226.282 157.225 227.18 156.852 227.842 156.19C228.504 155.528 228.876 154.63 228.878 153.694V151.625C228.876 150.689 228.504 149.791 227.842 149.129C227.18 148.466 226.282 148.094 225.345 148.093H195.482Z" fill="#3F3D56"/>
</g>
<defs>
<clipPath id="clip0_7814_39454">
<rect width="294.221" height="231" fill="white"/>
</clipPath>
</defs>
</svg>
