<svg width="559" height="386" viewBox="0 0 559 386" fill="none" xmlns="http://www.w3.org/2000/svg">
<g clip-path="url(#clip0_6908_30504)">
<path opacity="0.1" d="M316.187 52.5402C280.356 52.5881 245.867 42.4307 212.878 31.1469C179.889 19.8631 147.155 7.22749 111.99 1.87318C89.3742 -1.56853 63.6572 -1.25216 45.9789 11.2444C28.9621 23.2664 24.0344 43.1641 21.6568 61.5471C19.8689 75.3762 19.0444 89.8909 25.7409 102.541C30.3906 111.322 38.3477 118.561 43.9561 126.93C63.5326 156.046 51.7598 193.238 32.7346 223.029C23.8139 237.007 13.3641 250.405 6.61974 265.183C-0.124674 279.961 -2.89051 296.719 3.98812 311.306C10.8044 325.763 26.2011 336.256 42.7241 343.422C76.2784 358.004 115.345 361.129 153.362 362.332C237.516 365.002 321.833 359.557 405.925 354.112C437.044 352.098 468.303 350.071 498.78 344.237C515.701 341.002 533.125 336.198 545.123 325.672C560.352 312.308 563.467 290.488 552.385 274.804C533.801 248.497 484.797 243.536 471.471 215.072C464.123 199.402 470.46 181.432 479.793 166.328C499.81 133.919 534.266 104.89 534.846 68.6414C535.243 43.7489 517.326 19.4652 490.564 8.64635C462.512 -2.68541 424.265 0.229022 404.612 21.349C384.403 43.1066 347.824 52.5066 316.187 52.5402Z" fill="#6C63FF"/>
<path d="M475.766 309.351C475.766 309.351 469.875 305.464 464.036 308.23C464.036 308.23 465.834 311.691 473.225 311.365L475.766 309.351Z" fill="#6C63FF"/>
<path d="M476.514 309.557C476.514 309.557 478.307 316.383 473.81 321.027C473.81 321.027 471.107 318.214 473.81 311.321L476.514 309.557Z" fill="#6C63FF"/>
<path d="M483.839 303.004C483.839 303.004 483.402 297.199 470.292 299.126C470.292 299.126 470.23 302.87 474.832 304.644C479.433 306.417 481.543 304.922 483.839 303.004Z" fill="#6C63FF"/>
<path d="M484.663 302.967C484.663 302.967 490.204 304.745 485.262 317.04C485.262 317.04 481.605 316.226 480.948 311.331C480.291 306.437 482.237 304.75 484.663 302.967Z" fill="#6C63FF"/>
<path d="M492.064 294.732C492.064 294.732 492.817 285.178 479.419 286.156C479.419 286.156 478.46 294.784 489.701 297.028L492.064 294.732Z" fill="#6C63FF"/>
<path d="M500.918 283.947C500.918 283.947 499.082 273.118 485.689 276.344C485.689 276.344 485.641 285.706 498.732 286.526L500.918 283.947Z" fill="#6C63FF"/>
<path d="M507.389 272.797C507.389 272.797 504.312 262.251 491.043 265.405C491.043 265.405 494.202 274.891 506.507 274.743L507.389 272.797Z" fill="#6C63FF"/>
<path d="M513.534 261.906C513.534 261.906 510.529 250.962 497.716 254.236C497.716 254.236 501.991 264.633 512.686 263.756L513.534 261.906Z" fill="#6C63FF"/>
<path d="M517.493 251.562C517.493 251.562 515.183 238.179 503.238 241.141C503.238 241.141 506.708 253.316 516.616 253.513L517.493 251.562Z" fill="#6C63FF"/>
<path d="M521.208 239.065C521.208 239.065 518.433 225.576 506.349 229.478C506.349 229.478 511.085 242.229 520.35 240.91L521.208 239.065Z" fill="#6C63FF"/>
<path d="M523.49 227.435C523.49 227.435 519.085 213.942 509.742 214.306C509.742 214.306 514.244 228.557 522.709 230.125L523.49 227.435Z" fill="#6C63FF"/>
<path d="M524.966 216.085C524.966 216.085 520.173 199.845 512.57 201.096C512.57 201.096 515.887 213.511 524.698 218.616L524.966 216.085Z" fill="#6C63FF"/>
<path d="M525.801 202.542C525.801 202.542 521.304 189.01 513.817 188.469C513.817 188.469 516.875 201.785 525.652 206.061L525.801 202.542Z" fill="#6C63FF"/>
<path d="M526.706 189.908C526.706 189.908 521.103 176.361 516.161 176.055C516.161 176.055 518.596 189.395 526.227 192.132L526.706 189.908Z" fill="#6C63FF"/>
<path d="M527.325 178.154C527.325 178.154 523.878 163.443 518.927 162.221C518.927 162.221 519.603 174.257 526.826 179.257L527.325 178.154Z" fill="#6C63FF"/>
<path d="M529.194 162.758C529.194 162.758 525.57 151.028 521.558 149.24C521.558 149.24 522.349 163.069 528.269 165.624L529.194 162.758Z" fill="#6C63FF"/>
<path d="M530.743 152.691L531.471 132.012C531.471 132.012 523.969 147.6 530.201 156.319L530.743 152.691Z" fill="#6C63FF"/>
<path d="M536.533 132.123C536.533 132.123 541.935 117.023 543.244 116.18C543.244 116.18 532.65 125.978 533.685 138.58L536.533 132.123Z" fill="#6C63FF"/>
<path d="M492.428 294.659C492.428 294.659 501.929 293.418 501.646 306.844C501.646 306.844 493.061 308.244 490.257 297.137L492.428 294.659Z" fill="#6C63FF"/>
<path d="M501.368 283.582C501.368 283.582 512.345 283.548 511.434 297.291C511.434 297.291 502.217 298.94 499.177 286.18L501.368 283.582Z" fill="#6C63FF"/>
<path d="M507.494 273.684C507.494 273.684 517.46 269.01 523.835 281.075C523.835 281.075 514.632 284.967 506.612 275.635L507.494 273.684Z" fill="#6C63FF"/>
<path d="M513.754 262.006C513.754 262.006 523.96 257.035 529.951 268.817C529.951 268.817 519.32 272.48 512.911 263.871L513.754 262.006Z" fill="#6C63FF"/>
<path d="M517.364 251.853C517.364 251.853 527.186 242.472 535.023 251.958C535.023 251.958 524.99 259.681 516.913 253.943L517.364 251.853Z" fill="#6C63FF"/>
<path d="M520.652 238.743C520.652 238.743 530.531 229.156 538.306 239.184C538.306 239.184 527.219 247.059 520.297 240.756L520.652 238.743Z" fill="#6C63FF"/>
<path d="M522.498 227.052C522.498 227.052 530.11 215.068 539.073 217.743C539.073 217.743 531.174 230.431 522.584 229.866L522.498 227.052Z" fill="#6C63FF"/>
<path d="M524.741 216.008C524.741 216.008 532.411 200.919 539.668 203.545C539.668 203.545 534.136 215.146 524.544 218.554L524.741 216.008Z" fill="#6C63FF"/>
<path d="M525.273 201.756C525.273 201.756 533.158 189.878 540.545 191.33C540.545 191.33 534.098 203.376 524.506 205.193L525.273 201.756Z" fill="#6C63FF"/>
<path d="M525.887 189.644C525.887 189.644 531.998 176.314 536.964 176.223C536.964 176.223 534.031 189.457 526.299 191.907L525.887 189.644Z" fill="#6C63FF"/>
<path d="M527.085 177.867C527.085 177.867 533.877 164.369 538.982 164.34C538.982 164.34 535.507 175.883 527.31 179.051L527.085 177.867Z" fill="#6C63FF"/>
<path d="M528.106 163.6C528.106 163.6 533.187 152.431 537.396 151.166C537.396 151.166 534.855 164.779 528.667 166.563L528.106 163.6Z" fill="#6C63FF"/>
<path d="M531.346 152.284L542.702 134.984C542.702 134.984 539.792 152.049 529.688 155.596L531.346 152.284Z" fill="#6C63FF"/>
<path d="M539.14 133.517C539.14 133.517 552.337 124.409 552.816 122.938C552.816 122.938 546.105 135.693 533.642 137.946L539.14 133.517Z" fill="#6C63FF"/>
<path d="M539.931 129.42C539.931 129.42 555.084 114.853 558.952 114.867C558.952 114.867 546.455 115.438 539.567 128.644L539.931 129.42Z" fill="#6C63FF"/>
<path d="M528.255 165.763L528.806 165.835C531.653 143.55 535.805 130.363 540.493 128.748L540.31 128.221C535.34 129.946 531.16 142.932 528.255 165.763Z" fill="#444053"/>
<path d="M524.065 219.057L524.899 219.124C525.077 217.044 525.211 214.915 525.302 212.792C526.098 194.347 527.33 177.406 528.95 164.709L528.47 164.109C526.845 176.836 525.264 194.284 524.468 212.758C524.377 214.867 524.243 216.986 524.065 219.057Z" fill="#444053"/>
<path d="M460.216 319.983C460.36 319.92 475.043 313.363 490.281 297.727C499.209 288.569 506.627 278.052 512.259 266.569C519.306 252.222 523.6 234.592 525.039 217.465L524.171 217.872C520.935 256.316 503.434 282.584 489.519 296.893C474.429 312.39 459.91 318.88 459.766 318.943L460.216 319.983Z" fill="#444053"/>
<path d="M498.233 40.8555H37.6384C36.5501 40.8555 35.5065 41.2878 34.737 42.0573C33.9675 42.8268 33.5352 43.8704 33.5352 44.9587V56.9136H502.336V44.9587C502.336 43.8704 501.904 42.8268 501.135 42.0573C500.365 41.2878 499.321 40.8555 498.233 40.8555Z" fill="#2B365A"/>
<path d="M33.5352 56.9121V325.941C33.5352 328.135 34.4068 330.239 35.9584 331.791C37.51 333.343 39.6144 334.214 41.8087 334.214H494.063C496.257 334.214 498.362 333.343 499.913 331.791C501.465 330.239 502.336 328.135 502.336 325.941V56.9121H33.5352Z" fill="white"/>
<path opacity="0.8" d="M40.9604 50.6824C42.0193 50.6824 42.8777 49.824 42.8777 48.765C42.8777 47.7061 42.0193 46.8477 40.9604 46.8477C39.9014 46.8477 39.043 47.7061 39.043 48.765C39.043 49.824 39.9014 50.6824 40.9604 50.6824Z" fill="#FA5959"/>
<path opacity="0.8" d="M46.2333 50.6824C47.2922 50.6824 48.1507 49.824 48.1507 48.765C48.1507 47.7061 47.2922 46.8477 46.2333 46.8477C45.1744 46.8477 44.3159 47.7061 44.3159 48.765C44.3159 49.824 45.1744 50.6824 46.2333 50.6824Z" fill="#FED253"/>
<path opacity="0.8" d="M51.5058 50.6824C52.5647 50.6824 53.4232 49.824 53.4232 48.765C53.4232 47.7061 52.5647 46.8477 51.5058 46.8477C50.4468 46.8477 49.5884 47.7061 49.5884 48.765C49.5884 49.824 50.4468 50.6824 51.5058 50.6824Z" fill="#8CCF4D"/>
<path opacity="0.05" d="M453.879 101.77H77.1128V267.441H453.879V101.77Z" fill="black"/>
<path d="M451.003 103.025H79.9888V265.045H451.003V103.025Z" fill="#2B365A"/>
<path d="M181.131 144.725C173.831 144.725 166.695 146.889 160.625 150.945C154.555 155.001 149.824 160.765 147.031 167.51C144.237 174.254 143.506 181.675 144.93 188.835C146.355 195.995 149.87 202.571 155.032 207.733C160.194 212.895 166.77 216.411 173.93 217.835C181.09 219.259 188.511 218.528 195.256 215.734C202 212.941 207.765 208.21 211.82 202.14C215.876 196.07 218.041 188.934 218.041 181.634C218.041 176.787 217.086 171.988 215.231 167.51C213.376 163.031 210.657 158.963 207.23 155.535C203.803 152.108 199.734 149.389 195.256 147.534C190.778 145.679 185.978 144.725 181.131 144.725ZM187.751 182.521V199.998H174.703V182.521C172.897 181.154 171.567 179.255 170.899 177.091C170.23 174.927 170.259 172.608 170.98 170.462C171.701 168.315 173.078 166.449 174.916 165.127C176.755 163.805 178.962 163.093 181.227 163.093C183.491 163.093 185.699 163.805 187.537 165.127C189.376 166.449 190.753 168.315 191.474 170.462C192.195 172.608 192.223 174.927 191.555 177.091C190.887 179.255 189.556 181.154 187.751 182.521Z" fill="#6C63FF"/>
<path opacity="0.05" d="M181.131 144.725C173.831 144.725 166.695 146.889 160.625 150.945C154.555 155.001 149.824 160.765 147.031 167.51C144.237 174.254 143.506 181.675 144.93 188.835C146.355 195.995 149.87 202.571 155.032 207.733C160.194 212.895 166.77 216.411 173.93 217.835C181.09 219.259 188.511 218.528 195.256 215.734C202 212.941 207.765 208.21 211.82 202.14C215.876 196.07 218.041 188.934 218.041 181.634C218.041 176.787 217.086 171.988 215.231 167.51C213.376 163.031 210.657 158.963 207.23 155.535C203.803 152.108 199.734 149.389 195.256 147.534C190.778 145.679 185.978 144.725 181.131 144.725ZM187.751 182.521V199.998H174.703V182.521C172.897 181.154 171.567 179.255 170.899 177.091C170.23 174.927 170.259 172.608 170.98 170.462C171.701 168.315 173.078 166.449 174.916 165.127C176.755 163.805 178.962 163.093 181.227 163.093C183.491 163.093 185.699 163.805 187.537 165.127C189.376 166.449 190.753 168.315 191.474 170.462C192.195 172.608 192.223 174.927 191.555 177.091C190.887 179.255 189.556 181.154 187.751 182.521Z" fill="black"/>
<path d="M181.131 134.18C171.745 134.18 162.57 136.963 154.766 142.177C146.962 147.392 140.879 154.803 137.288 163.475C133.696 172.146 132.756 181.688 134.587 190.893C136.418 200.099 140.938 208.554 147.575 215.191C154.211 221.828 162.667 226.347 171.873 228.179C181.078 230.01 190.62 229.07 199.291 225.478C207.962 221.886 215.374 215.804 220.588 208C225.803 200.196 228.586 191.021 228.586 181.635C228.586 169.049 223.586 156.979 214.687 148.079C205.787 139.179 193.717 134.18 181.131 134.18ZM189.639 182.776V205.243H172.862V182.776C170.54 181.018 168.828 178.576 167.968 175.793C167.109 173.01 167.145 170.028 168.072 167.267C168.999 164.506 170.77 162.106 173.135 160.405C175.499 158.705 178.338 157.79 181.25 157.79C184.163 157.79 187.002 158.705 189.366 160.405C191.731 162.106 193.502 164.506 194.429 167.267C195.356 170.028 195.392 173.01 194.533 175.793C193.673 178.576 191.961 181.018 189.639 182.776Z" fill="#6C63FF"/>
<path d="M401.63 175.408H248.239V191.706H401.63V175.408Z" fill="white"/>
<path d="M401.631 205.127H368.556V221.425H401.631V205.127Z" fill="#6C63FF"/>
<path d="M263.339 183.312H260.563L263.032 180.849C263.076 180.803 263.101 180.742 263.101 180.678C263.101 180.615 263.076 180.554 263.032 180.508C263.01 180.486 262.983 180.468 262.954 180.456C262.925 180.444 262.893 180.437 262.862 180.437C262.83 180.437 262.799 180.444 262.77 180.456C262.74 180.468 262.714 180.486 262.692 180.508L260.223 182.977V180.197C260.223 180.133 260.198 180.072 260.153 180.027C260.108 179.982 260.047 179.957 259.983 179.957C259.92 179.958 259.86 179.984 259.815 180.029C259.77 180.073 259.745 180.134 259.744 180.197V182.977L257.28 180.494C257.257 180.471 257.231 180.454 257.202 180.441C257.173 180.429 257.141 180.423 257.11 180.423C257.078 180.423 257.047 180.429 257.017 180.441C256.988 180.454 256.962 180.471 256.939 180.494C256.895 180.54 256.87 180.601 256.87 180.664C256.87 180.728 256.895 180.789 256.939 180.834L259.408 183.298H256.628C256.565 183.299 256.504 183.325 256.46 183.37C256.415 183.414 256.389 183.475 256.388 183.538C256.388 183.601 256.413 183.662 256.458 183.707C256.503 183.752 256.564 183.777 256.628 183.777H259.408L256.939 186.246C256.895 186.292 256.87 186.353 256.87 186.416C256.87 186.48 256.895 186.541 256.939 186.586C256.986 186.63 257.046 186.654 257.11 186.654C257.173 186.654 257.234 186.63 257.28 186.586L259.744 184.118V186.893C259.744 186.957 259.769 187.018 259.814 187.063C259.859 187.108 259.92 187.133 259.983 187.133C260.047 187.133 260.108 187.108 260.153 187.063C260.198 187.018 260.223 186.957 260.223 186.893V184.118L262.692 186.586C262.738 186.63 262.799 186.654 262.862 186.654C262.925 186.654 262.986 186.63 263.032 186.586C263.076 186.541 263.101 186.48 263.101 186.416C263.101 186.353 263.076 186.292 263.032 186.246L260.563 183.777H263.339C263.402 183.777 263.463 183.752 263.508 183.707C263.553 183.662 263.578 183.601 263.578 183.538C263.575 183.477 263.548 183.419 263.503 183.377C263.459 183.336 263.4 183.312 263.339 183.312Z" fill="#6C63FF"/>
<path d="M273.405 183.312H270.63L273.098 180.849C273.143 180.803 273.167 180.742 273.167 180.678C273.167 180.615 273.143 180.554 273.098 180.508C273.076 180.486 273.05 180.468 273.02 180.456C272.991 180.444 272.96 180.437 272.928 180.437C272.897 180.437 272.865 180.444 272.836 180.456C272.807 180.468 272.78 180.486 272.758 180.508L270.289 182.977V180.197C270.289 180.133 270.264 180.072 270.219 180.027C270.174 179.982 270.113 179.957 270.05 179.957C269.987 179.958 269.926 179.984 269.882 180.029C269.837 180.073 269.811 180.134 269.81 180.197V182.977L267.346 180.494C267.324 180.471 267.297 180.454 267.268 180.441C267.239 180.429 267.208 180.423 267.176 180.423C267.144 180.423 267.113 180.429 267.084 180.441C267.055 180.454 267.028 180.471 267.006 180.494C266.962 180.54 266.937 180.601 266.937 180.664C266.937 180.728 266.962 180.789 267.006 180.834L269.474 183.298H266.694C266.631 183.299 266.571 183.325 266.526 183.37C266.481 183.414 266.456 183.475 266.455 183.538C266.455 183.601 266.48 183.662 266.525 183.707C266.57 183.752 266.631 183.777 266.694 183.777H269.474L267.006 186.246C266.962 186.292 266.937 186.353 266.937 186.416C266.937 186.48 266.962 186.541 267.006 186.586C267.052 186.63 267.113 186.654 267.176 186.654C267.239 186.654 267.3 186.63 267.346 186.586L269.81 184.118V186.893C269.81 186.957 269.835 187.018 269.88 187.063C269.925 187.108 269.986 187.133 270.05 187.133C270.113 187.133 270.174 187.108 270.219 187.063C270.264 187.018 270.289 186.957 270.289 186.893V184.118L272.758 186.586C272.804 186.63 272.865 186.654 272.928 186.654C272.991 186.654 273.052 186.63 273.098 186.586C273.143 186.541 273.167 186.48 273.167 186.416C273.167 186.353 273.143 186.292 273.098 186.246L270.63 183.777H273.405C273.469 183.777 273.53 183.752 273.575 183.707C273.62 183.662 273.645 183.601 273.645 183.538C273.641 183.477 273.614 183.419 273.57 183.377C273.525 183.336 273.466 183.312 273.405 183.312Z" fill="#6C63FF"/>
<path d="M283.472 183.312H280.696L283.165 180.849C283.209 180.803 283.234 180.742 283.234 180.678C283.234 180.615 283.209 180.554 283.165 180.508C283.142 180.486 283.116 180.468 283.087 180.456C283.058 180.444 283.026 180.437 282.995 180.437C282.963 180.437 282.932 180.444 282.902 180.456C282.873 180.468 282.847 180.486 282.824 180.508L280.356 182.977V180.197C280.356 180.133 280.331 180.072 280.286 180.027C280.241 179.982 280.18 179.957 280.116 179.957C280.053 179.958 279.993 179.984 279.948 180.029C279.903 180.073 279.878 180.134 279.876 180.197V182.977L277.413 180.494C277.39 180.471 277.364 180.454 277.335 180.441C277.305 180.429 277.274 180.423 277.242 180.423C277.211 180.423 277.179 180.429 277.15 180.441C277.121 180.454 277.095 180.471 277.072 180.494C277.028 180.54 277.003 180.601 277.003 180.664C277.003 180.728 277.028 180.789 277.072 180.834L279.541 183.298H276.761C276.697 183.299 276.637 183.325 276.593 183.37C276.548 183.414 276.522 183.475 276.521 183.538C276.521 183.601 276.546 183.662 276.591 183.707C276.636 183.752 276.697 183.777 276.761 183.777H279.541L277.072 186.246C277.028 186.292 277.003 186.353 277.003 186.416C277.003 186.48 277.028 186.541 277.072 186.586C277.118 186.63 277.179 186.654 277.242 186.654C277.306 186.654 277.366 186.63 277.413 186.586L279.876 184.118V186.893C279.876 186.957 279.902 187.018 279.947 187.063C279.992 187.108 280.053 187.133 280.116 187.133C280.18 187.133 280.241 187.108 280.286 187.063C280.331 187.018 280.356 186.957 280.356 186.893V184.118L282.824 186.586C282.871 186.63 282.931 186.654 282.995 186.654C283.058 186.654 283.119 186.63 283.165 186.586C283.209 186.541 283.234 186.48 283.234 186.416C283.234 186.353 283.209 186.292 283.165 186.246L280.696 183.777H283.472C283.535 183.777 283.596 183.752 283.641 183.707C283.686 183.662 283.711 183.601 283.711 183.538C283.708 183.477 283.681 183.419 283.636 183.377C283.592 183.336 283.533 183.312 283.472 183.312Z" fill="#6C63FF"/>
<path d="M293.538 183.312H290.762L293.231 180.849C293.275 180.803 293.3 180.742 293.3 180.678C293.3 180.615 293.275 180.554 293.231 180.508C293.209 180.486 293.182 180.468 293.153 180.456C293.124 180.444 293.093 180.437 293.061 180.437C293.029 180.437 292.998 180.444 292.969 180.456C292.94 180.468 292.913 180.486 292.891 180.508L290.422 182.977V180.197C290.422 180.133 290.397 180.072 290.352 180.027C290.307 179.982 290.246 179.957 290.183 179.957C290.119 179.958 290.059 179.984 290.014 180.029C289.97 180.073 289.944 180.134 289.943 180.197V182.977L287.479 180.494C287.457 180.471 287.43 180.454 287.401 180.441C287.372 180.429 287.34 180.423 287.309 180.423C287.277 180.423 287.246 180.429 287.217 180.441C287.187 180.454 287.161 180.471 287.139 180.494C287.094 180.54 287.07 180.601 287.07 180.664C287.07 180.728 287.094 180.789 287.139 180.834L289.607 183.298H286.827C286.764 183.299 286.704 183.325 286.659 183.37C286.614 183.414 286.589 183.475 286.587 183.538C286.587 183.601 286.613 183.662 286.658 183.707C286.703 183.752 286.764 183.777 286.827 183.777H289.607L287.139 186.246C287.094 186.292 287.07 186.353 287.07 186.416C287.07 186.48 287.094 186.541 287.139 186.586C287.185 186.63 287.246 186.654 287.309 186.654C287.372 186.654 287.433 186.63 287.479 186.586L289.943 184.118V186.893C289.943 186.957 289.968 187.018 290.013 187.063C290.058 187.108 290.119 187.133 290.183 187.133C290.246 187.133 290.307 187.108 290.352 187.063C290.397 187.018 290.422 186.957 290.422 186.893V184.118L292.891 186.586C292.937 186.63 292.998 186.654 293.061 186.654C293.124 186.654 293.185 186.63 293.231 186.586C293.275 186.541 293.3 186.48 293.3 186.416C293.3 186.353 293.275 186.292 293.231 186.246L290.762 183.777H293.538C293.601 183.777 293.662 183.752 293.707 183.707C293.752 183.662 293.778 183.601 293.778 183.538C293.774 183.477 293.747 183.419 293.703 183.377C293.658 183.336 293.599 183.312 293.538 183.312Z" fill="#6C63FF"/>
<path d="M303.604 183.312H300.828L303.297 180.849C303.341 180.803 303.366 180.742 303.366 180.678C303.366 180.615 303.341 180.554 303.297 180.508C303.275 180.486 303.248 180.468 303.219 180.456C303.19 180.444 303.159 180.437 303.127 180.437C303.095 180.437 303.064 180.444 303.035 180.456C303.006 180.468 302.979 180.486 302.957 180.508L300.488 182.977V180.197C300.488 180.133 300.463 180.072 300.418 180.027C300.373 179.982 300.312 179.957 300.248 179.957C300.185 179.958 300.125 179.984 300.08 180.029C300.036 180.073 300.01 180.134 300.009 180.197V182.977L297.545 180.494C297.523 180.471 297.496 180.454 297.467 180.441C297.438 180.429 297.406 180.423 297.375 180.423C297.343 180.423 297.312 180.429 297.283 180.441C297.253 180.454 297.227 180.471 297.205 180.494C297.16 180.54 297.136 180.601 297.136 180.664C297.136 180.728 297.16 180.789 297.205 180.834L299.673 183.298H296.893C296.83 183.299 296.77 183.325 296.725 183.37C296.68 183.414 296.655 183.475 296.653 183.538C296.653 183.601 296.679 183.662 296.724 183.707C296.768 183.752 296.829 183.777 296.893 183.777H299.673L297.205 186.246C297.16 186.292 297.136 186.353 297.136 186.416C297.136 186.48 297.16 186.541 297.205 186.586C297.251 186.63 297.312 186.654 297.375 186.654C297.438 186.654 297.499 186.63 297.545 186.586L300.009 184.118V186.893C300.009 186.957 300.034 187.018 300.079 187.063C300.124 187.108 300.185 187.133 300.248 187.133C300.312 187.133 300.373 187.108 300.418 187.063C300.463 187.018 300.488 186.957 300.488 186.893V184.118L302.957 186.586C303.003 186.63 303.064 186.654 303.127 186.654C303.19 186.654 303.251 186.63 303.297 186.586C303.341 186.541 303.366 186.48 303.366 186.416C303.366 186.353 303.341 186.292 303.297 186.246L300.828 183.777H303.604C303.667 183.777 303.728 183.752 303.773 183.707C303.818 183.662 303.844 183.601 303.844 183.538C303.84 183.477 303.813 183.419 303.768 183.377C303.724 183.336 303.665 183.312 303.604 183.312Z" fill="#6C63FF"/>
<path d="M313.67 183.312H310.895L313.363 180.849C313.408 180.803 313.432 180.742 313.432 180.678C313.432 180.615 313.408 180.554 313.363 180.508C313.341 180.486 313.315 180.468 313.285 180.456C313.256 180.444 313.225 180.437 313.193 180.437C313.162 180.437 313.13 180.444 313.101 180.456C313.072 180.468 313.045 180.486 313.023 180.508L310.555 182.977V180.197C310.555 180.133 310.529 180.072 310.484 180.027C310.439 179.982 310.378 179.957 310.315 179.957C310.252 179.958 310.191 179.984 310.147 180.029C310.102 180.073 310.076 180.134 310.075 180.197V182.977L307.611 180.494C307.589 180.471 307.563 180.454 307.533 180.441C307.504 180.429 307.473 180.423 307.441 180.423C307.409 180.423 307.378 180.429 307.349 180.441C307.32 180.454 307.293 180.471 307.271 180.494C307.227 180.54 307.202 180.601 307.202 180.664C307.202 180.728 307.227 180.789 307.271 180.834L309.74 183.298H306.959C306.896 183.299 306.836 183.325 306.791 183.37C306.747 183.414 306.721 183.475 306.72 183.538C306.72 183.601 306.745 183.662 306.79 183.707C306.835 183.752 306.896 183.777 306.959 183.777H309.74L307.271 186.246C307.227 186.292 307.202 186.353 307.202 186.416C307.202 186.48 307.227 186.541 307.271 186.586C307.317 186.63 307.378 186.654 307.441 186.654C307.504 186.654 307.565 186.63 307.611 186.586L310.075 184.118V186.893C310.075 186.957 310.1 187.018 310.145 187.063C310.19 187.108 310.251 187.133 310.315 187.133C310.378 187.133 310.439 187.108 310.484 187.063C310.529 187.018 310.555 186.957 310.555 186.893V184.118L313.023 186.586C313.069 186.63 313.13 186.654 313.193 186.654C313.256 186.654 313.317 186.63 313.363 186.586C313.408 186.541 313.432 186.48 313.432 186.416C313.432 186.353 313.408 186.292 313.363 186.246L310.895 183.777H313.67C313.734 183.777 313.795 183.752 313.84 183.707C313.885 183.662 313.91 183.601 313.91 183.538C313.906 183.477 313.879 183.419 313.835 183.377C313.79 183.336 313.731 183.312 313.67 183.312Z" fill="#6C63FF"/>
<path d="M323.737 183.312H320.961L323.43 180.849C323.474 180.803 323.499 180.742 323.499 180.678C323.499 180.615 323.474 180.554 323.43 180.508C323.408 180.486 323.381 180.468 323.352 180.456C323.323 180.444 323.291 180.437 323.26 180.437C323.228 180.437 323.197 180.444 323.168 180.456C323.138 180.468 323.112 180.486 323.09 180.508L320.621 182.977V180.197C320.621 180.133 320.596 180.072 320.551 180.027C320.506 179.982 320.445 179.957 320.381 179.957C320.318 179.958 320.258 179.984 320.213 180.029C320.168 180.073 320.143 180.134 320.142 180.197V182.977L317.678 180.494C317.655 180.471 317.629 180.454 317.6 180.441C317.571 180.429 317.539 180.423 317.508 180.423C317.476 180.423 317.445 180.429 317.415 180.441C317.386 180.454 317.36 180.471 317.337 180.494C317.293 180.54 317.268 180.601 317.268 180.664C317.268 180.728 317.293 180.789 317.337 180.834L319.806 183.298H317.026C316.963 183.299 316.902 183.325 316.858 183.37C316.813 183.414 316.787 183.475 316.786 183.538C316.786 183.601 316.811 183.662 316.856 183.707C316.901 183.752 316.962 183.777 317.026 183.777H319.806L317.337 186.246C317.293 186.292 317.268 186.353 317.268 186.416C317.268 186.48 317.293 186.541 317.337 186.586C317.384 186.63 317.444 186.654 317.508 186.654C317.571 186.654 317.632 186.63 317.678 186.586L320.142 184.118V186.893C320.142 186.957 320.167 187.018 320.212 187.063C320.257 187.108 320.318 187.133 320.381 187.133C320.445 187.133 320.506 187.108 320.551 187.063C320.596 187.018 320.621 186.957 320.621 186.893V184.118L323.09 186.586C323.136 186.63 323.197 186.654 323.26 186.654C323.323 186.654 323.384 186.63 323.43 186.586C323.474 186.541 323.499 186.48 323.499 186.416C323.499 186.353 323.474 186.292 323.43 186.246L320.961 183.777H323.737C323.8 183.777 323.861 183.752 323.906 183.707C323.951 183.662 323.976 183.601 323.976 183.538C323.973 183.477 323.946 183.419 323.901 183.377C323.857 183.336 323.798 183.312 323.737 183.312Z" fill="#6C63FF"/>
<path d="M333.803 183.312H331.028L333.496 180.849C333.54 180.803 333.565 180.742 333.565 180.678C333.565 180.615 333.54 180.554 333.496 180.508C333.474 180.486 333.447 180.468 333.418 180.456C333.389 180.444 333.358 180.437 333.326 180.437C333.294 180.437 333.263 180.444 333.234 180.456C333.205 180.468 333.178 180.486 333.156 180.508L330.687 182.977V180.197C330.687 180.133 330.662 180.072 330.617 180.027C330.572 179.982 330.511 179.957 330.448 179.957C330.384 179.958 330.324 179.984 330.28 180.029C330.235 180.073 330.209 180.134 330.208 180.197V182.977L327.744 180.494C327.722 180.471 327.695 180.454 327.666 180.441C327.637 180.429 327.606 180.423 327.574 180.423C327.542 180.423 327.511 180.429 327.482 180.441C327.453 180.454 327.426 180.471 327.404 180.494C327.36 180.54 327.335 180.601 327.335 180.664C327.335 180.728 327.36 180.789 327.404 180.834L329.872 183.298H327.092C327.029 183.299 326.969 183.325 326.924 183.37C326.879 183.414 326.854 183.475 326.853 183.538C326.853 183.601 326.878 183.662 326.923 183.707C326.968 183.752 327.029 183.777 327.092 183.777H329.872L327.404 186.246C327.36 186.292 327.335 186.353 327.335 186.416C327.335 186.48 327.36 186.541 327.404 186.586C327.45 186.63 327.511 186.654 327.574 186.654C327.637 186.654 327.698 186.63 327.744 186.586L330.208 184.118V186.893C330.208 186.957 330.233 187.018 330.278 187.063C330.323 187.108 330.384 187.133 330.448 187.133C330.511 187.133 330.572 187.108 330.617 187.063C330.662 187.018 330.687 186.957 330.687 186.893V184.118L333.156 186.586C333.202 186.63 333.263 186.654 333.326 186.654C333.389 186.654 333.45 186.63 333.496 186.586C333.54 186.541 333.565 186.48 333.565 186.416C333.565 186.353 333.54 186.292 333.496 186.246L331.028 183.777H333.803C333.867 183.777 333.928 183.752 333.973 183.707C334.017 183.662 334.043 183.601 334.043 183.538C334.039 183.477 334.012 183.419 333.968 183.377C333.923 183.336 333.864 183.312 333.803 183.312Z" fill="#6C63FF"/>
<path d="M343.869 183.312H341.094L343.562 180.849C343.606 180.803 343.631 180.742 343.631 180.678C343.631 180.615 343.606 180.554 343.562 180.508C343.54 180.486 343.513 180.468 343.484 180.456C343.455 180.444 343.424 180.437 343.392 180.437C343.36 180.437 343.329 180.444 343.3 180.456C343.271 180.468 343.244 180.486 343.222 180.508L340.753 182.977V180.197C340.753 180.133 340.728 180.072 340.683 180.027C340.638 179.982 340.577 179.957 340.514 179.957C340.45 179.958 340.39 179.984 340.345 180.029C340.301 180.073 340.275 180.134 340.274 180.197V182.977L337.81 180.494C337.788 180.471 337.761 180.454 337.732 180.441C337.703 180.429 337.671 180.423 337.64 180.423C337.608 180.423 337.577 180.429 337.548 180.441C337.518 180.454 337.492 180.471 337.47 180.494C337.425 180.54 337.401 180.601 337.401 180.664C337.401 180.728 337.425 180.789 337.47 180.834L339.938 183.298H337.158C337.095 183.299 337.035 183.325 336.99 183.37C336.945 183.414 336.92 183.475 336.918 183.538C336.918 183.601 336.944 183.662 336.989 183.707C337.034 183.752 337.095 183.777 337.158 183.777H339.938L337.47 186.246C337.425 186.292 337.401 186.353 337.401 186.416C337.401 186.48 337.425 186.541 337.47 186.586C337.516 186.63 337.577 186.654 337.64 186.654C337.703 186.654 337.764 186.63 337.81 186.586L340.274 184.118V186.893C340.274 186.957 340.299 187.018 340.344 187.063C340.389 187.108 340.45 187.133 340.514 187.133C340.577 187.133 340.638 187.108 340.683 187.063C340.728 187.018 340.753 186.957 340.753 186.893V184.118L343.222 186.586C343.268 186.63 343.329 186.654 343.392 186.654C343.455 186.654 343.516 186.63 343.562 186.586C343.606 186.541 343.631 186.48 343.631 186.416C343.631 186.353 343.606 186.292 343.562 186.246L341.094 183.777H343.869C343.933 183.777 343.993 183.752 344.038 183.707C344.083 183.662 344.109 183.601 344.109 183.538C344.105 183.477 344.078 183.419 344.034 183.377C343.989 183.336 343.93 183.312 343.869 183.312Z" fill="#6C63FF"/>
<path d="M353.935 183.312H351.16L353.629 180.849C353.673 180.803 353.698 180.742 353.698 180.678C353.698 180.615 353.673 180.554 353.629 180.508C353.606 180.486 353.58 180.468 353.551 180.456C353.521 180.444 353.49 180.437 353.458 180.437C353.427 180.437 353.395 180.444 353.366 180.456C353.337 180.468 353.311 180.486 353.288 180.508L350.82 182.977V180.197C350.82 180.133 350.794 180.072 350.749 180.027C350.704 179.982 350.644 179.957 350.58 179.957C350.517 179.958 350.457 179.984 350.412 180.029C350.367 180.073 350.342 180.134 350.34 180.197V182.977L347.876 180.494C347.854 180.471 347.828 180.454 347.798 180.441C347.769 180.429 347.738 180.423 347.706 180.423C347.675 180.423 347.643 180.429 347.614 180.441C347.585 180.454 347.558 180.471 347.536 180.494C347.492 180.54 347.467 180.601 347.467 180.664C347.467 180.728 347.492 180.789 347.536 180.834L350.005 183.298H347.225C347.161 183.299 347.101 183.325 347.056 183.37C347.012 183.414 346.986 183.475 346.985 183.538C346.985 183.601 347.01 183.662 347.055 183.707C347.1 183.752 347.161 183.777 347.225 183.777H350.005L347.536 186.246C347.492 186.292 347.467 186.353 347.467 186.416C347.467 186.48 347.492 186.541 347.536 186.586C347.582 186.63 347.643 186.654 347.706 186.654C347.769 186.654 347.83 186.63 347.876 186.586L350.34 184.118V186.893C350.34 186.957 350.366 187.018 350.41 187.063C350.455 187.108 350.516 187.133 350.58 187.133C350.644 187.133 350.704 187.108 350.749 187.063C350.794 187.018 350.82 186.957 350.82 186.893V184.118L353.288 186.586C353.334 186.63 353.395 186.654 353.458 186.654C353.522 186.654 353.582 186.63 353.629 186.586C353.673 186.541 353.698 186.48 353.698 186.416C353.698 186.353 353.673 186.292 353.629 186.246L351.16 183.777H353.935C353.999 183.777 354.06 183.752 354.105 183.707C354.15 183.662 354.175 183.601 354.175 183.538C354.171 183.477 354.145 183.419 354.1 183.377C354.055 183.336 353.997 183.312 353.935 183.312Z" fill="#6C63FF"/>
<path d="M364.002 183.312H361.226L363.695 180.849C363.739 180.803 363.764 180.742 363.764 180.678C363.764 180.615 363.739 180.554 363.695 180.508C363.673 180.486 363.646 180.468 363.617 180.456C363.588 180.444 363.556 180.437 363.525 180.437C363.493 180.437 363.462 180.444 363.433 180.456C363.403 180.468 363.377 180.486 363.355 180.508L360.886 182.977V180.197C360.886 180.133 360.861 180.072 360.816 180.027C360.771 179.982 360.71 179.957 360.646 179.957C360.583 179.958 360.523 179.984 360.478 180.029C360.434 180.073 360.408 180.134 360.407 180.197V182.977L357.943 180.494C357.921 180.471 357.894 180.454 357.865 180.441C357.836 180.429 357.804 180.423 357.773 180.423C357.741 180.423 357.71 180.429 357.681 180.441C357.651 180.454 357.625 180.471 357.603 180.494C357.558 180.54 357.534 180.601 357.534 180.664C357.534 180.728 357.558 180.789 357.603 180.834L360.071 183.298H357.291C357.228 183.299 357.167 183.325 357.123 183.37C357.078 183.414 357.052 183.475 357.051 183.538C357.051 183.601 357.077 183.662 357.121 183.707C357.166 183.752 357.227 183.777 357.291 183.777H360.071L357.603 186.246C357.558 186.292 357.534 186.353 357.534 186.416C357.534 186.48 357.558 186.541 357.603 186.586C357.649 186.63 357.709 186.654 357.773 186.654C357.836 186.654 357.897 186.63 357.943 186.586L360.407 184.118V186.893C360.407 186.957 360.432 187.018 360.477 187.063C360.522 187.108 360.583 187.133 360.646 187.133C360.71 187.133 360.771 187.108 360.816 187.063C360.861 187.018 360.886 186.957 360.886 186.893V184.118L363.355 186.586C363.401 186.63 363.462 186.654 363.525 186.654C363.588 186.654 363.649 186.63 363.695 186.586C363.739 186.541 363.764 186.48 363.764 186.416C363.764 186.353 363.739 186.292 363.695 186.246L361.226 183.777H364.002C364.065 183.777 364.126 183.752 364.171 183.707C364.216 183.662 364.241 183.601 364.241 183.538C364.238 183.477 364.211 183.419 364.166 183.377C364.122 183.336 364.063 183.312 364.002 183.312Z" fill="#6C63FF"/>
<path d="M441.172 241.625C441.158 241.045 441.086 240.469 440.956 239.904C440.525 238.284 439.552 236.323 437.951 235.834C436.298 235.328 434.701 234.654 433.186 233.821C432.898 228.683 434.077 223.424 432.793 218.444C432.313 216.622 431.523 214.877 431.312 213.013C431.048 210.693 431.681 208.219 430.756 206.081C430.027 204.394 428.426 203.205 426.705 202.582C424.984 201.959 423.129 201.791 421.303 201.623C419.002 201.436 411.553 200.554 408.955 202.611C408.776 202.75 408.615 202.911 408.476 203.09C408.418 203.169 408.367 203.253 408.322 203.339L408.298 203.378C408.246 203.478 408.203 203.582 408.169 203.689C408.132 203.807 408.105 203.927 408.087 204.049C408.087 204.087 408.087 204.126 408.087 204.164C408.087 204.202 408.087 204.332 408.087 204.418V204.547C408.087 204.634 408.087 204.72 408.087 204.811C408.087 204.902 408.087 204.878 408.087 204.912C408.121 205.343 408.183 205.775 408.183 206.201C408.188 206.414 408.169 206.626 408.126 206.834C407.966 207.399 407.695 207.927 407.33 208.387L407.244 208.512C407.191 208.588 407.138 208.66 407.09 208.737C407.042 208.814 407.004 208.871 406.966 208.938C406.927 209.005 406.889 209.048 406.855 209.111C406.809 209.19 406.767 209.271 406.731 209.355C406.731 209.403 406.678 209.446 406.659 209.494C406.599 209.624 406.551 209.759 406.515 209.897C406.403 210.313 406.393 210.751 406.486 211.172C406.615 211.71 406.838 212.221 407.143 212.682C407.263 212.878 407.392 213.07 407.526 213.262L407.862 213.717C407.799 214.162 407.766 214.61 407.761 215.059C407.762 216.561 408.102 218.042 408.758 219.392C409.414 220.742 410.368 221.926 411.548 222.854C411.738 224.878 411.717 226.917 411.486 228.937C411.443 229.358 411.39 229.785 411.332 230.207C411.275 230.629 411.232 230.907 411.174 231.257C410.473 231.357 409.758 231.303 409.08 231.098C408.767 230.959 408.447 230.836 408.121 230.729C406.726 230.379 405.302 231.77 403.922 231.348C403.922 231.415 403.883 231.477 403.859 231.539C403.571 231.36 403.24 231.263 402.901 231.257C402.081 231.218 401.415 230.624 400.82 230.063L398.994 228.342C398.875 228.237 398.769 228.118 398.678 227.987C398.579 227.801 398.505 227.603 398.457 227.398C398.15 226.406 397.407 225.615 396.688 224.862C396.552 224.69 396.371 224.56 396.166 224.483C396.086 224.471 396.006 224.471 395.926 224.483C395.877 224.416 395.824 224.352 395.768 224.292C395.644 224.149 395.511 224.015 395.37 223.889C394.498 223.084 394.411 222.393 393.654 221.492C392.994 220.633 392.394 219.728 391.861 218.784C391.799 218.281 391.713 217.763 391.607 217.241C391.366 216.044 391.014 214.873 390.558 213.741L389.599 211.618L389.489 211.728C388.794 210.693 388.051 210.127 387.384 210.261C386.267 210.491 385.716 212.658 385.893 215.491L386.277 218.367C386.277 218.439 386.311 218.511 386.33 218.583C386.261 218.924 386.225 219.27 386.224 219.618C386.224 220.021 386.598 220.318 386.795 220.677C387.109 221.164 387.276 221.732 387.274 222.312C387.25 222.518 387.188 222.715 387.178 222.916C387.204 223.366 387.361 223.799 387.629 224.162L390.025 228.189L390.505 229.032L390.534 229.071C390.685 229.365 390.905 229.618 391.176 229.809C391.27 230.817 391.537 231.802 391.967 232.719C392.048 232.901 392.139 233.073 392.235 233.246C392.88 234.305 393.638 235.291 394.498 236.184L395.639 237.464C396.765 238.72 397.892 239.981 399.114 241.141C399.551 241.606 400.08 241.977 400.667 242.229C400.954 242.344 401.267 242.381 401.573 242.336C401.88 242.292 402.169 242.167 402.412 241.975C402.412 242.569 402.412 243.164 402.412 243.758C402.59 243.769 402.762 243.827 402.91 243.927C403.057 244.026 403.176 244.163 403.253 244.324C403.331 244.485 403.363 244.663 403.349 244.841C403.334 245.019 403.272 245.189 403.169 245.335C402.163 247.919 401.146 250.526 399.622 252.842C400.698 253.478 401.695 254.239 402.594 255.109C403.177 255.755 403.696 256.457 404.142 257.204C404.185 257.558 404.219 257.908 404.238 258.258C404.593 263.972 402.383 269.643 400.403 275.088C399.833 276.632 399.21 278.247 399.258 279.853C398.882 280.084 398.523 280.342 398.184 280.625C398.577 281.65 398.424 282.566 398.38 283.664C398.366 284.322 398.231 284.972 397.983 285.581C397.774 286.003 397.544 286.415 397.292 286.813C396.051 289.004 395.778 291.606 395.528 294.109C395.38 295.619 395.965 297.464 395.279 298.816C394.095 301.136 393.045 303.609 392.882 306.188C392.877 306.768 392.803 307.346 392.662 307.909C392.513 308.388 392.25 308.796 392.115 309.266C391.977 309.895 391.945 310.543 392.02 311.183C392.111 313.481 391.769 315.775 391.013 317.947C390.414 319.658 389.752 321.489 390.222 323.248C389.066 324.463 388.351 326.031 388.194 327.701C388.182 328.128 388.131 328.554 388.041 328.971C387.894 329.399 387.702 329.809 387.466 330.194C386.501 331.951 386.049 333.944 386.162 335.946C384.724 337.897 384.005 340.303 383.578 342.695C383.152 345.087 382.965 347.522 382.418 349.885C381.69 353.011 380.371 356.17 380.113 359.372C378.559 360.364 377.888 362.286 377.591 364.103C377.294 365.92 377.246 367.827 376.484 369.505C376.091 370.377 375.525 371.159 375.151 372.05C374.889 372.76 374.696 373.494 374.576 374.241C374.346 375.411 374.145 376.714 374.428 377.836C374.021 378.267 373.546 378.628 373.023 378.905C373.1 378.608 373.162 378.311 373.215 378.009C371.978 379.13 369.735 378.737 368.747 380.084C368.451 380.518 368.335 381.051 368.425 381.569C368.514 382.087 368.802 382.55 369.227 382.86C369.536 383.048 369.87 383.192 370.219 383.286C372.616 384.053 375.079 384.825 377.543 384.418C377.835 384.386 378.117 384.296 378.373 384.154C378.693 383.918 378.957 383.613 379.144 383.262C379.513 382.678 379.882 382.093 380.247 381.508C381.13 381.771 382.028 381.981 382.936 382.136C383.027 382.903 383.094 383.67 383.128 384.437C383.607 384.533 384.249 384.561 384.475 384.116C384.543 383.947 384.571 383.765 384.556 383.583C384.556 383.243 384.604 382.793 384.633 382.332H384.729C386.191 382.391 387.646 382.097 388.971 381.474C388.458 377.227 390.15 373.076 391.617 369.059C393.165 364.831 394.493 360.527 395.83 356.222C396.789 353.193 397.848 350.259 398.788 347.225C399.97 343.39 401.158 339.555 402.349 335.721C402.867 334.033 403.39 332.365 403.984 330.688C405.235 327.293 406.72 323.988 408.428 320.799C408.907 319.893 409.386 318.996 409.779 318.057C410.259 316.911 410.599 315.713 410.982 314.529C411.818 312.099 412.824 309.732 413.993 307.444C414.026 307.382 414.05 307.324 414.084 307.267C414.472 308.853 414.86 310.464 415.119 312.06C415.47 314.017 415.497 316.019 415.201 317.985C414.971 319.322 414.534 320.645 414.587 322.002C414.659 323.876 415.661 325.578 416.155 327.385C416.473 328.737 416.653 330.118 416.692 331.507C416.826 333.664 417.995 336.085 417.171 338.084C414.606 344.416 415.848 351.568 414.386 358.216C413.633 361.629 411.328 364.836 411.51 368.326C411.638 370.802 411.855 373.273 412.162 375.737C412.236 376.514 412.438 377.274 412.761 377.985C412.952 378.359 413.172 378.718 413.418 379.058C413.207 379.14 413.029 379.356 412.876 379.811C412.483 381.009 412.876 382.495 413.94 383.166C414.374 383.398 414.841 383.56 415.325 383.646C415.977 383.831 416.652 383.925 417.329 383.924C417.54 383.912 417.75 383.887 417.957 383.847C418.698 384.158 419.455 384.43 420.224 384.662C420.224 384.859 420.263 385.055 420.287 385.252C420.288 385.354 420.311 385.456 420.354 385.549C420.397 385.642 420.459 385.725 420.536 385.793C420.656 385.849 420.788 385.872 420.919 385.86H423.522C423.522 385.645 423.522 385.424 423.522 385.208C423.82 385.24 424.121 385.208 424.406 385.115C424.691 385.023 424.953 384.872 425.176 384.672C425.407 384.378 425.57 384.038 425.655 383.675C426.365 381.268 427.069 378.86 427.769 376.451C428.608 373.787 428.958 370.994 428.8 368.206C427.875 359.372 429.907 350.509 429.246 341.65C428.848 336.326 429.121 330.973 430.061 325.717C430.276 324.528 430.54 323.32 430.636 322.136C430.847 319.902 430.588 317.645 430.746 315.425C430.799 314.649 430.904 313.877 431 313.105C431.657 308.315 432.001 303.487 432.031 298.653C432.016 297.051 431.917 295.451 431.733 293.859C432.233 293.732 432.687 293.466 433.042 293.092C433.469 292.536 433.358 291.755 433.354 291.046C433.354 289.349 434.068 287.748 434.643 286.147C435.381 283.938 435.986 281.688 436.455 279.407C436.95 277.569 437.221 275.678 437.26 273.775C437.26 273.583 437.251 273.391 437.232 273.199C437.412 273.074 437.563 272.911 437.673 272.72C437.798 272.439 437.875 272.14 437.903 271.833C438.075 270.611 438.253 269.384 438.425 268.157C438.553 267.278 438.679 266.401 438.804 265.525L440.328 254.888C440.458 253.963 440.592 253.043 440.721 252.123L441.119 249.371C441.162 249.045 441.21 248.719 441.244 248.412C442.413 246.457 441.296 243.849 441.172 241.625ZM428.455 281.449C427.889 280.107 427.362 278.731 427.496 277.283H427.443C427.569 276.838 427.548 276.364 427.381 275.932C427.232 275.582 426.974 275.285 426.815 274.935C426.645 274.508 426.558 274.052 426.557 273.593C426.437 270.677 426.668 267.758 427.242 264.897C427.304 264.562 427.371 264.221 427.434 263.886C427.635 263.77 427.819 263.626 427.98 263.459C428.232 263.172 428.441 262.849 428.598 262.5C429.14 261.412 429.634 260.305 430.089 259.179C430.238 258.814 430.454 258.392 430.823 258.301C430.746 261.106 431.034 263.967 429.893 266.498C429.676 266.906 429.515 267.342 429.413 267.792C429.308 268.507 429.605 269.23 429.5 269.94C429.447 270.309 429.289 270.649 429.226 271.014C429.179 271.193 429.18 271.381 429.229 271.559C429.278 271.738 429.373 271.9 429.504 272.03C429.568 272.074 429.637 272.11 429.711 272.135C429.682 272.327 429.658 272.524 429.639 272.711C429.6 273.104 429.581 273.473 429.557 273.703C429.447 274.875 429.404 276.053 429.428 277.231C429.428 278.501 429.476 279.771 429.457 281.066C429.474 281.437 429.412 281.808 429.274 282.154C429.179 282.332 429.056 282.494 428.91 282.633C428.771 282.202 428.618 281.823 428.455 281.449Z" fill="url(#paint0_linear_6908_30504)"/>
<path d="M390.616 225.829C392.079 225.529 392.576 221.929 391.728 217.787C390.879 213.645 389.005 210.531 387.543 210.83C386.08 211.13 385.582 214.731 386.431 218.872C387.279 223.014 389.153 226.129 390.616 225.829Z" fill="#FBBEBE"/>
<path d="M412.952 379.902C412.559 381.091 412.952 382.577 414.017 383.224C414.448 383.454 414.912 383.615 415.392 383.703C416.043 383.887 416.715 383.979 417.391 383.976C418.22 383.938 419.016 383.612 419.845 383.497C419.941 383.473 420.042 383.487 420.128 383.535C420.17 383.58 420.201 383.633 420.219 383.691C420.237 383.749 420.242 383.811 420.234 383.871C420.243 384.342 420.278 384.813 420.339 385.28C420.34 385.383 420.362 385.485 420.405 385.578C420.448 385.671 420.511 385.755 420.588 385.822C420.708 385.878 420.84 385.901 420.972 385.889H423.57C423.629 383.607 423.379 381.327 422.827 379.111C422.791 378.942 422.726 378.779 422.635 378.632C422.415 378.39 422.125 378.223 421.806 378.152C421.171 377.888 420.485 377.769 419.798 377.802C418.959 377.913 418.259 378.454 417.545 378.905C416.83 379.356 415.857 379.753 414.99 379.523C414.122 379.293 413.398 378.569 412.952 379.902Z" fill="#2B365A"/>
<path d="M374.806 377.798C374.075 378.58 373.18 379.189 372.184 379.581L371.743 379.792C371.682 379.815 371.63 379.857 371.594 379.912C371.586 379.949 371.586 379.988 371.594 380.025C371.602 380.062 371.619 380.097 371.642 380.127C372.009 380.695 372.551 381.127 373.186 381.358C373.822 381.589 374.515 381.606 375.161 381.407C375.446 381.336 375.71 381.198 375.932 381.005C376.298 380.571 376.507 380.028 376.527 379.461C376.672 378.877 376.647 378.263 376.455 377.692C375.789 376.192 375.544 376.873 374.806 377.798Z" fill="#FBBEBE"/>
<path d="M384.767 383.702C384.782 383.884 384.754 384.066 384.685 384.234C384.46 384.675 383.832 384.651 383.343 384.556C383.269 382.929 383.072 381.311 382.754 379.714C381.824 379.671 381.153 380.553 380.654 381.344L379.369 383.381C379.184 383.732 378.921 384.037 378.602 384.273C378.346 384.413 378.064 384.503 377.773 384.536C375.319 384.944 372.841 384.172 370.473 383.405C370.124 383.312 369.79 383.17 369.48 382.983C369.058 382.673 368.772 382.211 368.683 381.695C368.593 381.178 368.707 380.647 369.001 380.213C369.993 378.87 372.222 379.254 373.459 378.142C373.33 378.924 373.118 379.691 372.826 380.428C374.48 380.179 375.592 378.664 376.925 377.653C377.259 377.369 377.663 377.177 378.094 377.097C378.417 377.07 378.743 377.104 379.053 377.198C380.59 377.584 382.027 378.292 383.271 379.273C383.775 379.671 384.561 380.232 384.781 380.845C385.016 381.579 384.767 382.921 384.767 383.702Z" fill="#2B365A"/>
<path d="M417.741 225.547C423.211 225.547 427.645 221.113 427.645 215.644C427.645 210.174 423.211 205.74 417.741 205.74C412.272 205.74 407.838 210.174 407.838 215.644C407.838 221.113 412.272 225.547 417.741 225.547Z" fill="#FBBEBE"/>
<path d="M437.251 274.115C437.211 276.008 436.942 277.89 436.45 279.719C435.981 281.99 435.376 284.231 434.638 286.43C434.068 288.026 433.354 289.627 433.359 291.319C433.359 292.024 433.474 292.805 433.042 293.361C432.658 293.751 432.174 294.028 431.642 294.161C431.377 294.232 431.133 294.363 430.928 294.546C430.723 294.728 430.564 294.956 430.463 295.211C430.013 294.539 429.676 293.797 429.466 293.016C428.607 290.383 427.808 287.735 427.069 285.073C427.002 284.92 426.973 284.752 426.984 284.585C426.996 284.418 427.048 284.257 427.137 284.114C427.258 284.009 427.4 283.929 427.554 283.879C428.045 283.679 428.495 283.39 428.881 283.026C429.063 282.865 429.212 282.672 429.322 282.456C429.462 282.112 429.525 281.743 429.509 281.373C429.509 280.102 429.509 278.837 429.476 277.566C429.456 276.394 429.501 275.221 429.61 274.053C429.61 273.823 429.653 273.454 429.692 273.061C429.763 272.308 429.907 271.436 430.315 271.143C430.923 270.736 432.745 271.282 433.435 271.378C434.624 271.541 435.832 271.733 436.992 271.958C437.16 272.665 437.247 273.389 437.251 274.115Z" fill="#2B365A"/>
<path d="M397.263 226.732C396.88 227.499 395.959 227.868 395.25 228.352L392.82 230.02C392.657 230.166 392.467 230.278 392.26 230.349C392.053 230.42 391.834 230.448 391.616 230.432C391.419 230.359 391.237 230.247 391.084 230.103C390.93 229.959 390.806 229.786 390.72 229.593C390.721 229.58 390.721 229.568 390.72 229.555L390.217 228.711L387.82 224.694C387.554 224.335 387.399 223.905 387.374 223.458C387.374 223.251 387.446 223.06 387.465 222.854C387.472 222.275 387.305 221.707 386.986 221.224C386.794 220.864 386.411 220.567 386.42 220.164C386.402 219.635 386.493 219.108 386.689 218.616C386.94 218.161 387.301 217.776 387.738 217.495C387.964 217.332 388.194 217.178 388.434 217.015C388.561 216.928 388.702 216.863 388.851 216.823C389.248 216.742 389.641 217.073 390.044 217.087C391.775 218.247 392.441 220.443 393.802 222.024C394.569 222.926 394.646 223.616 395.514 224.421C395.653 224.546 395.787 224.68 395.916 224.819C396.088 225.006 396.233 225.216 396.348 225.442C396.506 225.854 397.46 226.338 397.263 226.732Z" fill="#2B365A"/>
<path d="M414.261 225.552C414.975 227.062 415.531 228.72 415.325 230.379C415.283 230.828 415.141 231.262 414.908 231.649C414.218 232.708 412.77 232.9 411.51 232.962C411.244 232.94 410.977 232.971 410.723 233.053C410.47 233.136 410.235 233.268 410.033 233.442C409.865 233.687 409.782 233.98 409.799 234.277C409.815 234.574 409.93 234.856 410.124 235.081C410.53 235.514 411.033 235.842 411.591 236.04C413.585 236.917 415.738 237.641 417.904 237.44C418.911 237.344 419.889 237.051 420.891 236.903C421.983 236.784 423.08 236.724 424.179 236.72C425.483 236.673 426.782 236.543 428.081 236.414L431.522 236.073C431.711 236.076 431.893 236.01 432.035 235.886C432.289 235.589 431.963 235.153 431.647 234.928C429.821 233.576 427.496 232.646 426.456 230.614C425.976 229.655 425.828 228.514 425.473 227.479C425.118 226.443 424.553 225.509 424.332 224.454C424.215 223.529 424.162 222.597 424.174 221.664C424.186 220.724 423.844 219.814 423.215 219.114C422.53 218.477 421.538 218.314 420.608 218.275C418.316 218.175 415.877 218.721 414.252 220.336C413.815 220.773 413.441 221.295 412.991 221.688C412.54 222.081 411.927 222.196 412.224 222.714C412.521 223.232 413.106 223.553 413.422 224.008C413.743 224.5 414.023 225.016 414.261 225.552Z" fill="#FBBEBE"/>
<path d="M433.785 239.496C433.18 243.187 432.197 246.806 430.851 250.296C430.174 251.872 429.598 253.489 429.125 255.137C428.756 256.623 428.828 258.215 428.488 259.705C428.066 261.56 427.644 263.42 427.304 265.29C426.733 268.145 426.504 271.057 426.623 273.966C426.624 274.424 426.712 274.878 426.882 275.303C427.04 275.648 427.294 275.946 427.443 276.3C427.554 276.612 427.6 276.943 427.576 277.273C427.553 277.603 427.462 277.925 427.309 278.218C427.063 278.766 426.729 279.272 426.321 279.713C421.854 281.046 417.075 280.61 412.42 280.893C408.13 281.151 403.792 282.033 399.564 281.3C399.085 279.383 399.885 277.374 400.571 275.505C402.56 270.074 404.76 264.417 404.405 258.728C404.368 258.064 404.293 257.403 404.18 256.748C403.485 252.717 404.242 248.541 405.455 244.635C406.208 242.2 406.174 239.606 406.002 237.071C405.916 236.247 405.905 235.418 405.968 234.592C406.037 233.75 406.351 232.945 406.869 232.277C406.869 232.244 406.912 232.21 406.936 232.177C406.96 232.143 407.147 232.148 407.296 232.177C407.334 232.193 407.375 232.201 407.416 232.201C407.457 232.201 407.498 232.193 407.536 232.177L407.588 232.143C407.609 232.129 407.633 232.121 407.658 232.121C407.683 232.121 407.707 232.129 407.727 232.143C407.838 232.21 407.9 232.44 408.14 232.483C408.494 232.537 408.851 232.57 409.209 232.584C409.639 232.597 410.067 232.658 410.484 232.766H410.541C411.164 232.871 411.804 232.817 412.401 232.608C412.798 232.509 413.181 232.361 413.542 232.167C413.647 232.052 414.309 231.946 414.443 231.865C414.879 231.601 414.783 230.365 414.874 229.856C414.925 229.347 415.046 228.847 415.234 228.37C415.452 228.019 415.753 227.726 416.111 227.518C416.469 227.31 416.872 227.193 417.286 227.177C418.111 227.157 418.936 227.231 419.745 227.397C421.533 227.651 423.364 227.608 425.118 228.021C426 228.227 426.964 228.538 427.774 228.136C427.994 228.188 428.028 228.38 428.028 228.615C428.007 228.838 427.962 229.058 427.893 229.272C427.587 230.595 428.627 231.812 429.586 232.771C429.991 233.223 430.469 233.604 431 233.897C431.479 234.118 431.958 234.209 432.438 234.449C432.826 234.656 433.156 234.957 433.396 235.326C433.673 235.748 433.859 236.223 433.943 236.721C434.046 237.648 433.992 238.586 433.785 239.496Z" fill="#2B365A"/>
<path opacity="0.1" d="M433.785 239.496C433.18 243.187 432.197 246.806 430.851 250.296C430.175 251.872 429.598 253.489 429.126 255.137C428.757 256.623 428.828 258.215 428.488 259.706C428.066 261.561 427.644 263.42 427.304 265.29C427.203 265.347 427.098 265.4 426.993 265.448C426.396 265.733 425.764 265.936 425.114 266.052C423.945 266.193 422.762 266.155 421.605 265.937L414.764 265.022C412.032 264.652 409.123 264.207 407.095 262.356C405.968 261.34 405.23 259.998 404.42 258.704C404.383 258.04 404.308 257.379 404.195 256.724C403.5 252.693 404.257 248.518 405.47 244.611C406.222 242.176 406.189 239.583 406.016 237.047C405.931 236.223 405.92 235.394 405.983 234.569C406.052 233.726 406.365 232.921 406.884 232.253C407.024 232.212 407.166 232.18 407.311 232.157C407.407 232.138 407.505 232.125 407.603 232.119H407.742C407.903 232.12 408.064 232.139 408.221 232.177C408.548 232.281 408.868 232.404 409.18 232.546H409.238C409.649 232.681 410.08 232.743 410.513 232.728C411.145 232.728 411.797 232.627 412.43 232.584C413.212 232.462 414.012 232.606 414.702 232.992C415.148 233.35 415.57 233.736 415.968 234.147C416.447 234.523 416.987 234.817 417.564 235.014C421.69 236.589 426.268 236.493 430.324 234.746C430.714 234.524 431.156 234.412 431.604 234.42C431.935 234.485 432.249 234.619 432.524 234.813C432.812 234.981 433.095 235.144 433.387 235.292C433.663 235.715 433.849 236.19 433.934 236.687C434.043 237.625 433.993 238.575 433.785 239.496Z" fill="black"/>
<path d="M437.96 236.323C436.052 235.74 434.218 234.936 432.496 233.926C432.219 233.733 431.906 233.599 431.576 233.533C431.126 233.528 430.683 233.64 430.291 233.859C426.236 235.606 421.66 235.702 417.535 234.128C416.959 233.928 416.42 233.635 415.939 233.26C415.541 232.85 415.118 232.464 414.674 232.105C413.097 231.084 410.916 232.282 409.152 231.625C408.839 231.486 408.519 231.362 408.193 231.256C406.798 230.906 405.379 232.296 404.008 231.875C403.498 233.261 403.121 234.693 402.882 236.15C402.687 237.824 402.583 239.508 402.57 241.193C402.57 242.205 402.522 243.216 402.57 244.227C402.739 244.255 402.901 244.317 403.044 244.411C403.188 244.504 403.31 244.626 403.404 244.769C403.467 244.936 403.493 245.115 403.48 245.293C403.467 245.471 403.415 245.644 403.328 245.8C402.326 248.374 401.31 250.977 399.79 253.282C400.861 253.92 401.855 254.68 402.752 255.545C404.43 257.318 405.255 259.806 407.067 261.446C409.109 263.291 412.018 263.742 414.736 264.106L421.576 265.022C422.735 265.238 423.919 265.279 425.09 265.141C425.739 265.023 426.369 264.818 426.964 264.533C427.353 264.37 427.707 264.136 428.009 263.842C428.262 263.555 428.47 263.232 428.628 262.884C429.169 261.8 429.663 260.693 430.118 259.571C430.277 259.173 430.516 258.708 430.948 258.675C433.488 256.384 435.885 254.035 438.425 251.744C439.446 250.897 440.362 249.932 441.153 248.868C442.414 247.003 441.268 244.362 441.153 242.109C441.139 241.532 441.067 240.959 440.937 240.397C440.525 238.763 439.557 236.807 437.96 236.323Z" fill="#6C63FF"/>
<path opacity="0.1" d="M397.264 226.731C396.88 227.498 395.96 227.867 395.25 228.351L392.82 230.019C392.658 230.165 392.467 230.277 392.261 230.348C392.054 230.419 391.835 230.447 391.617 230.431C391.419 230.358 391.238 230.247 391.084 230.102C390.93 229.958 390.806 229.785 390.72 229.593C390.72 229.482 390.72 229.362 390.72 229.247C390.702 228.859 390.754 228.471 390.874 228.102C391.112 227.56 391.481 227.085 391.948 226.721C392.85 225.867 393.923 225.213 395.097 224.804C395.28 224.733 395.479 224.713 395.672 224.746C395.747 224.766 395.818 224.796 395.883 224.837C396.055 225.024 396.2 225.234 396.314 225.461C396.506 225.854 397.46 226.338 397.264 226.731Z" fill="black"/>
<path d="M402.987 231.784C402.172 231.745 401.506 231.156 400.911 230.595L399.095 228.908C398.973 228.805 398.867 228.685 398.778 228.553C398.68 228.366 398.606 228.168 398.558 227.963C398.173 226.995 397.569 226.129 396.794 225.432C396.659 225.261 396.477 225.131 396.271 225.058C396.076 225.022 395.875 225.042 395.691 225.116C394.518 225.525 393.444 226.178 392.542 227.033C392.076 227.398 391.707 227.872 391.468 228.414C391.348 228.783 391.296 229.171 391.315 229.56C391.326 230.826 391.611 232.075 392.149 233.222C392.23 233.399 392.322 233.576 392.417 233.749C393.057 234.806 393.813 235.788 394.67 236.678L395.811 237.953C396.933 239.209 398.055 240.465 399.272 241.62C399.708 242.085 400.238 242.454 400.825 242.703C401.12 242.824 401.443 242.86 401.757 242.81C402.072 242.759 402.366 242.623 402.608 242.416C402.838 242.15 403.011 241.84 403.116 241.505C403.855 239.587 404.554 237.593 404.598 235.527C404.608 234.7 404.573 233.873 404.492 233.049C404.42 232.177 403.802 231.836 402.987 231.784Z" fill="#6C63FF"/>
<path d="M432.036 298.892C432.008 303.713 431.665 308.528 431.01 313.306C430.914 314.077 430.809 314.849 430.756 315.621C430.598 317.859 430.856 320.108 430.646 322.332C430.535 323.535 430.286 324.728 430.075 325.903C429.138 331.144 428.865 336.483 429.26 341.793C429.922 350.628 427.894 359.467 428.814 368.277C428.926 369.99 428.831 371.711 428.532 373.401C428.36 374.45 428.112 375.485 427.789 376.498C427.089 378.898 426.386 381.295 425.68 383.688C425.596 384.052 425.433 384.393 425.2 384.685C424.956 384.897 424.669 385.053 424.359 385.145C424.049 385.237 423.723 385.262 423.403 385.217C420.637 385.131 418.034 383.937 415.522 382.773C415.233 382.659 414.966 382.497 414.731 382.293C414.209 381.752 414.252 380.898 414.022 380.184C413.792 379.47 413.169 378.799 412.814 378.065C412.522 377.372 412.346 376.635 412.291 375.884C411.972 373.43 411.754 370.966 411.639 368.493C411.457 365.013 413.758 361.811 414.516 358.427C415.954 351.773 414.736 344.641 417.291 338.328C418.096 336.333 416.927 333.918 416.812 331.77C416.77 330.385 416.59 329.007 416.275 327.657C415.795 325.855 414.784 324.158 414.712 322.289C414.659 320.937 415.096 319.619 415.321 318.286C415.62 316.325 415.592 314.328 415.239 312.376C414.985 310.765 414.597 309.154 414.209 307.582L414.122 307.76C412.955 310.042 411.95 312.405 411.117 314.83C410.733 316.004 410.398 317.203 409.919 318.344C409.526 319.302 409.041 320.179 408.567 321.081C406.865 324.259 405.383 327.55 404.133 330.931C403.538 332.59 403.016 334.287 402.498 335.95L398.946 347.454C397.988 350.479 396.938 353.403 395.998 356.423C394.671 360.737 393.343 365.013 391.799 369.231C390.361 373.234 388.65 377.38 389.163 381.608C387.841 382.229 386.39 382.523 384.93 382.466C382.46 382.247 380.036 381.659 377.74 380.721C376.824 380.381 375.875 379.997 375.257 379.245C374.193 377.946 374.457 376.043 374.778 374.389C374.899 373.643 375.091 372.911 375.353 372.203C375.717 371.321 376.312 370.54 376.685 369.667C377.438 367.994 377.486 366.101 377.783 364.284C378.08 362.467 378.742 360.55 380.295 359.563C380.559 356.37 381.872 353.221 382.596 350.1C383.142 347.737 383.324 345.307 383.756 342.91C384.187 340.513 384.882 338.117 386.33 336.175C386.216 334.173 386.668 332.18 387.634 330.423C387.867 330.037 388.058 329.627 388.204 329.201C388.294 328.784 388.345 328.361 388.358 327.935C388.516 326.27 389.228 324.705 390.38 323.492C389.901 321.742 390.567 319.916 391.167 318.219C391.921 316.054 392.263 313.766 392.173 311.474C392.099 310.835 392.13 310.187 392.264 309.557C392.398 309.078 392.662 308.67 392.816 308.21C392.952 307.647 393.025 307.069 393.031 306.489C393.218 303.896 394.268 301.451 395.428 299.136C396.118 297.784 395.533 295.948 395.677 294.443C395.926 291.941 396.2 289.353 397.441 287.172C397.671 286.759 397.921 286.366 398.127 285.94C398.376 285.331 398.511 284.68 398.525 284.022C398.568 282.925 398.721 282.014 398.328 280.993C400.892 278.86 404.392 278.261 407.728 278.117C411.064 277.973 414.439 278.275 417.703 277.565C418.662 277.35 419.621 277.053 420.632 276.909C422.928 276.573 425.258 277.096 427.525 277.613C427.367 279.051 427.894 280.432 428.484 281.769C430.786 287.187 431.993 293.006 432.036 298.892Z" fill="#33313F"/>
<path opacity="0.1" d="M420.747 299.99L415.239 312.377C414.985 310.766 414.597 309.155 414.208 307.583L414.122 307.76V307.502L417.123 300.901L420.747 299.99Z" fill="black"/>
<path opacity="0.1" d="M437.251 274.115C436.933 274.353 436.553 274.494 436.158 274.523C435.55 274.544 434.944 274.462 434.365 274.278L430.051 273.2C429.916 273.166 429.784 273.12 429.658 273.061C429.73 272.308 429.873 271.436 430.281 271.143C430.89 270.736 432.711 271.282 433.401 271.378C434.59 271.541 435.798 271.733 436.958 271.958C437.138 272.664 437.236 273.387 437.251 274.115Z" fill="black"/>
<path d="M440.899 245.593C440.99 245.991 441.119 246.384 441.196 246.786C441.325 247.774 441.291 248.777 441.095 249.753L440.702 252.495L440.309 255.252L438.79 265.86L438.416 268.486L437.889 272.153C437.864 272.458 437.786 272.757 437.658 273.035C437.501 273.296 437.282 273.513 437.02 273.668C436.758 273.823 436.462 273.91 436.158 273.922C435.551 273.941 434.945 273.859 434.365 273.678L430.051 272.594C429.862 272.561 429.682 272.487 429.524 272.379C429.392 272.25 429.297 272.088 429.248 271.911C429.199 271.733 429.199 271.545 429.246 271.367C429.308 271.003 429.466 270.663 429.519 270.298C429.625 269.589 429.327 268.86 429.433 268.156C429.536 267.707 429.697 267.273 429.912 266.866C431.35 263.688 430.516 259.978 431.005 256.527C431.445 253.81 432.593 251.258 434.332 249.126C435.405 247.78 436.638 246.569 438.004 245.521C438.54 245.104 439.394 244.246 440.07 244.083C440.937 243.901 440.755 244.989 440.899 245.593Z" fill="#6C63FF"/>
<path d="M408.25 204.302C407.934 205.309 408.427 206.416 408.202 207.442C407.958 208.573 406.894 209.36 406.592 210.496C406.112 212.226 407.579 213.803 408.653 215.241C412.631 220.581 412.109 227.973 410.748 234.487C409.652 239.713 408.137 244.843 406.218 249.826C405.619 251.374 404.957 252.947 403.778 254.107C405.983 253.474 408.327 252.836 410.537 253.45C413.336 254.226 415.752 256.944 418.59 256.326C420.296 255.947 421.494 254.433 423.028 253.594C425.904 252.045 429.37 253.018 432.577 253.517C433.268 253.68 433.991 253.643 434.662 253.412C435.175 253.136 435.61 252.735 435.928 252.247C437.359 250.411 438.216 248.193 438.391 245.871C438.467 244.715 438.297 243.557 437.891 242.472C437.485 241.387 436.854 240.4 436.038 239.578C435.357 238.935 434.542 238.418 434.02 237.66C433.512 236.776 433.239 235.775 433.229 234.755C432.85 229.483 434.135 224.099 432.812 218.999C432.333 217.182 431.551 215.442 431.34 213.583C431.077 211.267 431.705 208.789 430.784 206.67C430.06 204.988 428.464 203.794 426.743 203.181C425.022 202.567 423.182 202.395 421.355 202.222C418.729 202.002 409.348 200.875 408.25 204.302Z" fill="#33313F"/>
<g opacity="0.1">
<path opacity="0.1" d="M410.748 234.488C409.658 239.693 408.151 244.801 406.242 249.765C406.572 249.108 406.85 248.418 407.114 247.732C409.036 242.75 410.551 237.62 411.644 232.393C413.01 225.874 413.533 218.492 409.554 213.147C408.595 211.872 407.363 210.492 407.407 208.996C407.052 209.448 406.777 209.957 406.592 210.501C406.112 212.232 407.579 213.809 408.653 215.247C412.631 220.582 412.109 227.973 410.748 234.488Z" fill="black"/>
<path opacity="0.1" d="M408.26 206.958C408.644 206.481 408.931 205.932 409.103 205.343C409.177 204.631 409.158 203.912 409.046 203.205C408.677 203.483 408.399 203.865 408.25 204.303C407.967 205.151 408.293 206.072 408.26 206.958Z" fill="black"/>
<path opacity="0.1" d="M436.829 250.138C436.511 250.625 436.076 251.024 435.563 251.298C434.893 251.534 434.169 251.571 433.478 251.403C430.271 250.924 426.767 249.936 423.93 251.485C422.391 252.319 421.197 253.833 419.486 254.217C416.653 254.85 414.237 252.132 411.438 251.341C409.453 250.789 407.363 251.245 405.364 251.82C404.967 252.667 404.431 253.442 403.778 254.111C405.983 253.479 408.327 252.841 410.537 253.455C413.336 254.231 415.752 256.949 418.59 256.331C420.296 255.952 421.494 254.437 423.028 253.598C425.904 252.05 429.37 253.023 432.577 253.522C433.268 253.685 433.991 253.648 434.662 253.416C435.175 253.141 435.61 252.74 435.928 252.251C436.796 251.106 437.467 249.822 437.912 248.455C437.592 249.041 437.23 249.603 436.829 250.138Z" fill="black"/>
</g>
</g>
<defs>
<linearGradient id="paint0_linear_6908_30504" x1="368.426" y1="293.562" x2="441.766" y2="293.562" gradientUnits="userSpaceOnUse">
<stop stop-color="#808080" stop-opacity="0.25"/>
<stop offset="0.54" stop-color="#808080" stop-opacity="0.12"/>
<stop offset="1" stop-color="#808080" stop-opacity="0.1"/>
</linearGradient>
<clipPath id="clip0_6908_30504">
<rect width="559" height="385.917" fill="white"/>
</clipPath>
</defs>
</svg>
