<?xml version="1.0" encoding="utf-8"?>
<!-- Generator: Adobe Illustrator 16.0.0, SVG Export Plug-In . SVG Version: 6.00 Build 0)  -->
<!DOCTYPE svg PUBLIC "-//W3C//DTD SVG 1.1//EN" "http://www.w3.org/Graphics/SVG/1.1/DTD/svg11.dtd">
<svg version="1.1" id="Layer_2" xmlns="http://www.w3.org/2000/svg" xmlns:xlink="http://www.w3.org/1999/xlink" x="0px" y="0px"
	 width="1000px" height="1000px" viewBox="0 0 1000 1000" enable-background="new 0 0 1000 1000" xml:space="preserve">
<g>
	<defs>
		<rect id="SVGID_1_" width="1000" height="1000"/>
	</defs>
	<clipPath id="SVGID_2_">
		<use xlink:href="#SVGID_1_"  overflow="visible"/>
	</clipPath>
	<g clip-path="url(#SVGID_2_)">
		<g>
			<polygon fill="#FFFFFF" points="50.865,6.821 3.13,44.11 3.13,75.836 50.865,38.547 98.601,75.836 98.601,44.11 			"/>
			<polygon fill="#FFFFFF" points="50.865,54.023 17.606,80.026 17.606,101.865 50.865,75.876 84.139,101.865 84.139,80.026 			"/>
			<polygon fill="#FFFFFF" points="180.596,6.821 132.861,44.11 132.861,75.836 180.596,38.547 228.331,75.836 228.331,44.11 			"/>
			<polygon fill="#FFFFFF" points="180.596,54.023 147.336,80.026 147.336,101.865 180.596,75.876 213.869,101.865 213.869,80.026 
							"/>
			<polygon fill="#FFFFFF" points="310.327,6.821 262.591,44.11 262.591,75.836 310.327,38.547 358.062,75.836 358.062,44.11 			"/>
			<polygon fill="#FFFFFF" points="310.327,54.023 277.067,80.026 277.067,101.865 310.327,75.876 343.6,101.865 343.6,80.026 			
				"/>
			<polygon fill="#FFFFFF" points="440.057,6.821 392.322,44.11 392.322,75.836 440.057,38.547 487.793,75.836 487.793,44.11 			"/>
			<polygon fill="#FFFFFF" points="440.057,54.023 406.798,80.026 406.798,101.865 440.057,75.876 473.331,101.865 473.331,80.026 
							"/>
			<polygon fill="#FFFFFF" points="569.789,6.821 522.053,44.11 522.053,75.836 569.789,38.547 617.523,75.836 617.523,44.11 			"/>
			<polygon fill="#FFFFFF" points="569.789,54.023 536.529,80.026 536.529,101.865 569.789,75.876 603.063,101.865 603.063,80.026 
							"/>
			<polygon fill="#FFFFFF" points="699.52,6.821 651.783,44.11 651.783,75.836 699.52,38.547 747.254,75.836 747.254,44.11 			"/>
			<polygon fill="#FFFFFF" points="699.52,54.023 666.26,80.026 666.26,101.865 699.52,75.876 732.793,101.865 732.793,80.026 			
				"/>
			<polygon fill="#FFFFFF" points="829.248,6.821 781.514,44.11 781.514,75.836 829.248,38.547 876.984,75.836 876.984,44.11 			"/>
			<polygon fill="#FFFFFF" points="829.248,54.023 795.99,80.026 795.99,101.865 829.248,75.876 862.523,101.865 862.523,80.026 			
				"/>
			<polygon fill="#FFFFFF" points="958.98,6.821 911.244,44.11 911.244,75.836 958.98,38.547 1006.715,75.836 1006.715,44.11 			"/>
			<polygon fill="#FFFFFF" points="958.98,54.023 925.721,80.026 925.721,101.865 958.98,75.876 992.254,101.865 992.254,80.026 			
				"/>
			<polygon fill="#FFFFFF" points="1088.711,-47.265 1023.846,3.42 958.98,-47.265 894.115,3.42 829.248,-47.265 764.385,3.419 
				699.52,-47.265 634.654,3.42 569.789,-47.265 504.924,3.42 440.057,-47.265 375.192,3.42 310.327,-47.265 245.461,3.42 
				180.596,-47.265 115.731,3.42 50.865,-47.265 -14,3.42 -14,40.308 50.865,-10.363 115.731,40.308 180.596,-10.363 
				245.461,40.308 310.327,-10.363 375.192,40.308 440.057,-10.363 504.924,40.308 569.789,-10.363 634.654,40.308 699.52,-10.363 
				764.383,40.307 764.383,40.308 764.385,40.307 764.385,40.307 829.248,-10.363 894.115,40.308 958.98,-10.363 1023.846,40.308 
				1088.711,-10.363 1153.576,40.308 1153.576,3.42 			"/>
			<polygon fill="#FFFFFF" points="1088.711,6.821 1040.975,44.11 1040.975,75.836 1088.711,38.547 1136.445,75.836 1136.445,44.11 
							"/>
			<polygon fill="#FFFFFF" points="1088.711,54.023 1055.451,80.026 1055.451,101.865 1088.711,75.876 1121.984,101.865 
				1121.984,80.026 			"/>
		</g>
		<g>
			<polygon fill="#FFFFFF" points="50.865,142.206 3.13,179.495 3.13,211.221 50.865,173.932 98.601,211.221 98.601,179.495 			"/>
			<polygon fill="#FFFFFF" points="50.865,189.408 17.606,215.411 17.606,237.25 50.865,211.261 84.139,237.25 84.139,215.411 			
				"/>
			<polygon fill="#FFFFFF" points="180.596,142.206 132.861,179.495 132.861,211.221 180.596,173.932 228.331,211.221 
				228.331,179.495 			"/>
			<polygon fill="#FFFFFF" points="180.596,189.408 147.336,215.411 147.336,237.25 180.596,211.261 213.869,237.25 
				213.869,215.411 			"/>
			<polygon fill="#FFFFFF" points="310.327,142.206 262.591,179.495 262.591,211.221 310.327,173.932 358.062,211.221 
				358.062,179.495 			"/>
			<polygon fill="#FFFFFF" points="310.327,189.408 277.067,215.411 277.067,237.25 310.327,211.261 343.6,237.25 343.6,215.411 			
				"/>
			<polygon fill="#FFFFFF" points="440.057,142.206 392.322,179.495 392.322,211.221 440.057,173.932 487.793,211.221 
				487.793,179.495 			"/>
			<polygon fill="#FFFFFF" points="440.057,189.408 406.798,215.411 406.798,237.25 440.057,211.261 473.331,237.25 
				473.331,215.411 			"/>
			<polygon fill="#FFFFFF" points="569.789,142.206 522.053,179.495 522.053,211.221 569.789,173.932 617.523,211.221 
				617.523,179.495 			"/>
			<polygon fill="#FFFFFF" points="569.789,189.408 536.529,215.411 536.529,237.25 569.789,211.261 603.063,237.25 
				603.063,215.411 			"/>
			<polygon fill="#FFFFFF" points="699.52,142.206 651.783,179.495 651.783,211.221 699.52,173.932 747.254,211.221 
				747.254,179.495 			"/>
			<polygon fill="#FFFFFF" points="699.52,189.408 666.26,215.411 666.26,237.25 699.52,211.261 732.793,237.25 732.793,215.411 			
				"/>
			<polygon fill="#FFFFFF" points="829.248,142.206 781.514,179.495 781.514,211.221 829.248,173.932 876.984,211.221 
				876.984,179.495 			"/>
			<polygon fill="#FFFFFF" points="829.248,189.408 795.99,215.411 795.99,237.25 829.248,211.261 862.523,237.25 862.523,215.411 
							"/>
			<polygon fill="#FFFFFF" points="958.98,142.206 911.244,179.495 911.244,211.221 958.98,173.932 1006.715,211.221 
				1006.715,179.495 			"/>
			<polygon fill="#FFFFFF" points="958.98,189.408 925.721,215.411 925.721,237.25 958.98,211.261 992.254,237.25 992.254,215.411 
							"/>
			<polygon fill="#FFFFFF" points="1088.711,88.12 1023.846,138.805 958.98,88.12 894.115,138.805 829.248,88.12 764.385,138.804 
				699.52,88.12 634.654,138.805 569.789,88.12 504.924,138.805 440.057,88.12 375.192,138.805 310.327,88.12 245.461,138.805 
				180.596,88.12 115.731,138.805 50.865,88.12 -14,138.805 -14,175.692 50.865,125.021 115.731,175.692 180.596,125.021 
				245.461,175.692 310.327,125.021 375.192,175.692 440.057,125.021 504.924,175.692 569.789,125.021 634.654,175.692 
				699.52,125.021 764.383,175.691 764.383,175.692 764.385,175.692 764.385,175.691 829.248,125.021 894.115,175.692 
				958.98,125.021 1023.846,175.692 1088.711,125.021 1153.576,175.692 1153.576,138.805 			"/>
			<polygon fill="#FFFFFF" points="1088.711,142.206 1040.975,179.495 1040.975,211.221 1088.711,173.932 1136.445,211.221 
				1136.445,179.495 			"/>
			<polygon fill="#FFFFFF" points="1088.711,189.408 1055.451,215.411 1055.451,237.25 1088.711,211.261 1121.984,237.25 
				1121.984,215.411 			"/>
		</g>
		<g>
			<polygon fill="#FFFFFF" points="50.865,278.079 3.13,315.368 3.13,347.094 50.865,309.805 98.601,347.094 98.601,315.368 			"/>
			<polygon fill="#FFFFFF" points="50.865,325.281 17.606,351.284 17.606,373.123 50.865,347.134 84.139,373.123 84.139,351.284 			
				"/>
			<polygon fill="#FFFFFF" points="180.596,278.079 132.861,315.368 132.861,347.094 180.596,309.805 228.331,347.094 
				228.331,315.368 			"/>
			<polygon fill="#FFFFFF" points="180.596,325.281 147.336,351.284 147.336,373.123 180.596,347.134 213.869,373.123 
				213.869,351.284 			"/>
			<polygon fill="#FFFFFF" points="310.327,278.079 262.591,315.368 262.591,347.094 310.327,309.805 358.062,347.094 
				358.062,315.368 			"/>
			<polygon fill="#FFFFFF" points="310.327,325.281 277.067,351.284 277.067,373.123 310.327,347.134 343.6,373.123 343.6,351.284 
							"/>
			<polygon fill="#FFFFFF" points="440.057,278.079 392.322,315.368 392.322,347.094 440.057,309.805 487.793,347.094 
				487.793,315.368 			"/>
			<polygon fill="#FFFFFF" points="440.057,325.281 406.798,351.284 406.798,373.123 440.057,347.134 473.331,373.123 
				473.331,351.284 			"/>
			<polygon fill="#FFFFFF" points="569.789,278.079 522.053,315.368 522.053,347.094 569.789,309.805 617.523,347.094 
				617.523,315.368 			"/>
			<polygon fill="#FFFFFF" points="569.789,325.281 536.529,351.284 536.529,373.123 569.789,347.134 603.063,373.123 
				603.063,351.284 			"/>
			<polygon fill="#FFFFFF" points="699.52,278.079 651.783,315.368 651.783,347.094 699.52,309.805 747.254,347.094 
				747.254,315.368 			"/>
			<polygon fill="#FFFFFF" points="699.52,325.281 666.26,351.284 666.26,373.123 699.52,347.134 732.793,373.123 732.793,351.284 
							"/>
			<polygon fill="#FFFFFF" points="829.248,278.079 781.514,315.368 781.514,347.094 829.248,309.805 876.984,347.094 
				876.984,315.368 			"/>
			<polygon fill="#FFFFFF" points="829.248,325.281 795.99,351.284 795.99,373.123 829.248,347.134 862.523,373.123 
				862.523,351.284 			"/>
			<polygon fill="#FFFFFF" points="958.98,278.079 911.244,315.368 911.244,347.094 958.98,309.805 1006.715,347.094 
				1006.715,315.368 			"/>
			<polygon fill="#FFFFFF" points="958.98,325.281 925.721,351.284 925.721,373.123 958.98,347.134 992.254,373.123 
				992.254,351.284 			"/>
			<polygon fill="#FFFFFF" points="1088.711,223.993 1023.846,274.678 958.98,223.993 894.115,274.678 829.248,223.993 
				764.385,274.677 699.52,223.993 634.654,274.678 569.789,223.993 504.924,274.678 440.057,223.993 375.192,274.678 
				310.327,223.993 245.461,274.678 180.596,223.993 115.731,274.678 50.865,223.993 -14,274.678 -14,311.565 50.865,260.895 
				115.731,311.565 180.596,260.895 245.461,311.565 310.327,260.895 375.192,311.565 440.057,260.895 504.924,311.565 
				569.789,260.895 634.654,311.565 699.52,260.895 764.383,311.564 764.383,311.565 764.385,311.565 764.385,311.564 
				829.248,260.895 894.115,311.565 958.98,260.895 1023.846,311.565 1088.711,260.895 1153.576,311.565 1153.576,274.678 			"/>
			<polygon fill="#FFFFFF" points="1088.711,278.079 1040.975,315.368 1040.975,347.094 1088.711,309.805 1136.445,347.094 
				1136.445,315.368 			"/>
			<polygon fill="#FFFFFF" points="1088.711,325.281 1055.451,351.284 1055.451,373.123 1088.711,347.134 1121.984,373.123 
				1121.984,351.284 			"/>
		</g>
		<g>
			<polygon fill="#FFFFFF" points="50.865,413.464 3.13,450.753 3.13,482.479 50.865,445.189 98.601,482.479 98.601,450.753 			"/>
			<polygon fill="#FFFFFF" points="50.865,460.665 17.606,486.669 17.606,508.508 50.865,482.519 84.139,508.508 84.139,486.669 			
				"/>
			<polygon fill="#FFFFFF" points="180.596,413.464 132.861,450.753 132.861,482.479 180.596,445.189 228.331,482.479 
				228.331,450.753 			"/>
			<polygon fill="#FFFFFF" points="180.596,460.665 147.336,486.669 147.336,508.508 180.596,482.519 213.869,508.508 
				213.869,486.669 			"/>
			<polygon fill="#FFFFFF" points="310.327,413.464 262.591,450.753 262.591,482.479 310.327,445.189 358.062,482.479 
				358.062,450.753 			"/>
			<polygon fill="#FFFFFF" points="310.327,460.665 277.067,486.669 277.067,508.508 310.327,482.519 343.6,508.508 343.6,486.669 
							"/>
			<polygon fill="#FFFFFF" points="440.057,413.464 392.322,450.753 392.322,482.479 440.057,445.189 487.793,482.479 
				487.793,450.753 			"/>
			<polygon fill="#FFFFFF" points="440.057,460.665 406.798,486.669 406.798,508.508 440.057,482.519 473.331,508.508 
				473.331,486.669 			"/>
			<polygon fill="#FFFFFF" points="569.789,413.464 522.053,450.753 522.053,482.479 569.789,445.189 617.523,482.479 
				617.523,450.753 			"/>
			<polygon fill="#FFFFFF" points="569.789,460.665 536.529,486.669 536.529,508.508 569.789,482.519 603.063,508.508 
				603.063,486.669 			"/>
			<polygon fill="#FFFFFF" points="699.52,413.464 651.783,450.753 651.783,482.479 699.52,445.189 747.254,482.479 
				747.254,450.753 			"/>
			<polygon fill="#FFFFFF" points="699.52,460.665 666.26,486.669 666.26,508.508 699.52,482.519 732.793,508.508 732.793,486.669 
							"/>
			<polygon fill="#FFFFFF" points="829.248,413.464 781.514,450.753 781.514,482.479 829.248,445.189 876.984,482.479 
				876.984,450.753 			"/>
			<polygon fill="#FFFFFF" points="829.248,460.665 795.99,486.669 795.99,508.508 829.248,482.519 862.523,508.508 
				862.523,486.669 			"/>
			<polygon fill="#FFFFFF" points="958.98,413.464 911.244,450.753 911.244,482.479 958.98,445.189 1006.715,482.479 
				1006.715,450.753 			"/>
			<polygon fill="#FFFFFF" points="958.98,460.665 925.721,486.669 925.721,508.508 958.98,482.519 992.254,508.508 
				992.254,486.669 			"/>
			<polygon fill="#FFFFFF" points="1088.711,359.378 1023.846,410.063 958.98,359.378 894.115,410.063 829.248,359.378 
				764.385,410.062 699.52,359.378 634.654,410.063 569.789,359.378 504.924,410.063 440.057,359.378 375.192,410.063 
				310.327,359.378 245.461,410.063 180.596,359.378 115.731,410.063 50.865,359.378 -14,410.063 -14,446.95 50.865,396.279 
				115.731,446.95 180.596,396.279 245.461,446.95 310.327,396.279 375.192,446.95 440.057,396.279 504.924,446.95 569.789,396.279 
				634.654,446.95 699.52,396.279 764.383,446.949 764.383,446.95 764.385,446.95 764.385,446.949 829.248,396.279 894.115,446.95 
				958.98,396.279 1023.846,446.95 1088.711,396.279 1153.576,446.95 1153.576,410.063 			"/>
			<polygon fill="#FFFFFF" points="1088.711,413.464 1040.975,450.753 1040.975,482.479 1088.711,445.189 1136.445,482.479 
				1136.445,450.753 			"/>
			<polygon fill="#FFFFFF" points="1088.711,460.665 1055.451,486.669 1055.451,508.508 1088.711,482.519 1121.984,508.508 
				1121.984,486.669 			"/>
		</g>
		<g>
			<polygon fill="#FFFFFF" points="50.865,548.849 3.13,586.138 3.13,617.864 50.865,580.574 98.601,617.864 98.601,586.138 			"/>
			<polygon fill="#FFFFFF" points="50.865,596.05 17.606,622.054 17.606,643.893 50.865,617.903 84.139,643.893 84.139,622.054 			
				"/>
			<polygon fill="#FFFFFF" points="180.596,548.849 132.861,586.138 132.861,617.864 180.596,580.574 228.331,617.864 
				228.331,586.138 			"/>
			<polygon fill="#FFFFFF" points="180.596,596.05 147.336,622.054 147.336,643.893 180.596,617.903 213.869,643.893 
				213.869,622.054 			"/>
			<polygon fill="#FFFFFF" points="310.327,548.849 262.591,586.138 262.591,617.864 310.327,580.574 358.062,617.864 
				358.062,586.138 			"/>
			<polygon fill="#FFFFFF" points="310.327,596.05 277.067,622.054 277.067,643.893 310.327,617.903 343.6,643.893 343.6,622.054 
							"/>
			<polygon fill="#FFFFFF" points="440.057,548.849 392.322,586.138 392.322,617.864 440.057,580.574 487.793,617.864 
				487.793,586.138 			"/>
			<polygon fill="#FFFFFF" points="440.057,596.05 406.798,622.054 406.798,643.893 440.057,617.903 473.331,643.893 
				473.331,622.054 			"/>
			<polygon fill="#FFFFFF" points="569.789,548.849 522.053,586.138 522.053,617.864 569.789,580.574 617.523,617.864 
				617.523,586.138 			"/>
			<polygon fill="#FFFFFF" points="569.789,596.05 536.529,622.054 536.529,643.893 569.789,617.903 603.063,643.893 
				603.063,622.054 			"/>
			<polygon fill="#FFFFFF" points="699.52,548.849 651.783,586.138 651.783,617.864 699.52,580.574 747.254,617.864 
				747.254,586.138 			"/>
			<polygon fill="#FFFFFF" points="699.52,596.05 666.26,622.054 666.26,643.893 699.52,617.903 732.793,643.893 732.793,622.054 
							"/>
			<polygon fill="#FFFFFF" points="829.248,548.849 781.514,586.138 781.514,617.864 829.248,580.574 876.984,617.864 
				876.984,586.138 			"/>
			<polygon fill="#FFFFFF" points="829.248,596.05 795.99,622.054 795.99,643.893 829.248,617.903 862.523,643.893 862.523,622.054 
							"/>
			<polygon fill="#FFFFFF" points="958.98,548.849 911.244,586.138 911.244,617.864 958.98,580.574 1006.715,617.864 
				1006.715,586.138 			"/>
			<polygon fill="#FFFFFF" points="958.98,596.05 925.721,622.054 925.721,643.893 958.98,617.903 992.254,643.893 992.254,622.054 
							"/>
			<polygon fill="#FFFFFF" points="1088.711,494.763 1023.846,545.447 958.98,494.763 894.115,545.447 829.248,494.763 
				764.385,545.446 699.52,494.763 634.654,545.447 569.789,494.763 504.924,545.447 440.057,494.763 375.192,545.447 
				310.327,494.763 245.461,545.447 180.596,494.763 115.731,545.447 50.865,494.763 -14,545.447 -14,582.335 50.865,531.664 
				115.731,582.335 180.596,531.664 245.461,582.335 310.327,531.664 375.192,582.335 440.057,531.664 504.924,582.335 
				569.789,531.664 634.654,582.335 699.52,531.664 764.383,582.334 764.383,582.335 764.385,582.335 764.385,582.334 
				829.248,531.664 894.115,582.335 958.98,531.664 1023.846,582.335 1088.711,531.664 1153.576,582.335 1153.576,545.447 			"/>
			<polygon fill="#FFFFFF" points="1088.711,548.849 1040.975,586.138 1040.975,617.864 1088.711,580.574 1136.445,617.864 
				1136.445,586.138 			"/>
			<polygon fill="#FFFFFF" points="1088.711,596.05 1055.451,622.054 1055.451,643.893 1088.711,617.903 1121.984,643.893 
				1121.984,622.054 			"/>
		</g>
		<g>
			<polygon fill="#FFFFFF" points="50.865,684.233 3.13,721.522 3.13,753.249 50.865,715.959 98.601,753.249 98.601,721.522 			"/>
			<polygon fill="#FFFFFF" points="50.865,731.435 17.606,757.438 17.606,779.277 50.865,753.288 84.139,779.277 84.139,757.438 			
				"/>
			<polygon fill="#FFFFFF" points="180.596,684.233 132.861,721.522 132.861,753.249 180.596,715.959 228.331,753.249 
				228.331,721.522 			"/>
			<polygon fill="#FFFFFF" points="180.596,731.435 147.336,757.438 147.336,779.277 180.596,753.288 213.869,779.277 
				213.869,757.438 			"/>
			<polygon fill="#FFFFFF" points="310.327,684.233 262.591,721.522 262.591,753.249 310.327,715.959 358.062,753.249 
				358.062,721.522 			"/>
			<polygon fill="#FFFFFF" points="310.327,731.435 277.067,757.438 277.067,779.277 310.327,753.288 343.6,779.277 343.6,757.438 
							"/>
			<polygon fill="#FFFFFF" points="440.057,684.233 392.322,721.522 392.322,753.249 440.057,715.959 487.793,753.249 
				487.793,721.522 			"/>
			<polygon fill="#FFFFFF" points="440.057,731.435 406.798,757.438 406.798,779.277 440.057,753.288 473.331,779.277 
				473.331,757.438 			"/>
			<polygon fill="#FFFFFF" points="569.789,684.233 522.053,721.522 522.053,753.249 569.789,715.959 617.523,753.249 
				617.523,721.522 			"/>
			<polygon fill="#FFFFFF" points="569.789,731.435 536.529,757.438 536.529,779.277 569.789,753.288 603.063,779.277 
				603.063,757.438 			"/>
			<polygon fill="#FFFFFF" points="699.52,684.233 651.783,721.522 651.783,753.249 699.52,715.959 747.254,753.249 
				747.254,721.522 			"/>
			<polygon fill="#FFFFFF" points="699.52,731.435 666.26,757.438 666.26,779.277 699.52,753.288 732.793,779.277 732.793,757.438 
							"/>
			<polygon fill="#FFFFFF" points="829.248,684.233 781.514,721.522 781.514,753.249 829.248,715.959 876.984,753.249 
				876.984,721.522 			"/>
			<polygon fill="#FFFFFF" points="829.248,731.435 795.99,757.438 795.99,779.277 829.248,753.288 862.523,779.277 
				862.523,757.438 			"/>
			<polygon fill="#FFFFFF" points="958.98,684.233 911.244,721.522 911.244,753.249 958.98,715.959 1006.715,753.249 
				1006.715,721.522 			"/>
			<polygon fill="#FFFFFF" points="958.98,731.435 925.721,757.438 925.721,779.277 958.98,753.288 992.254,779.277 
				992.254,757.438 			"/>
			<polygon fill="#FFFFFF" points="1088.711,630.147 1023.846,680.832 958.98,630.147 894.115,680.832 829.248,630.147 
				764.385,680.831 699.52,630.147 634.654,680.832 569.789,630.147 504.924,680.832 440.057,630.147 375.192,680.832 
				310.327,630.147 245.461,680.832 180.596,630.147 115.731,680.832 50.865,630.147 -14,680.832 -14,717.72 50.865,667.049 
				115.731,717.72 180.596,667.049 245.461,717.72 310.327,667.049 375.192,717.72 440.057,667.049 504.924,717.72 569.789,667.049 
				634.654,717.72 699.52,667.049 764.383,717.719 764.383,717.72 764.385,717.72 764.385,717.719 829.248,667.049 894.115,717.72 
				958.98,667.049 1023.846,717.72 1088.711,667.049 1153.576,717.72 1153.576,680.832 			"/>
			<polygon fill="#FFFFFF" points="1088.711,684.233 1040.975,721.522 1040.975,753.249 1088.711,715.959 1136.445,753.249 
				1136.445,721.522 			"/>
			<polygon fill="#FFFFFF" points="1088.711,731.435 1055.451,757.438 1055.451,779.277 1088.711,753.288 1121.984,779.277 
				1121.984,757.438 			"/>
		</g>
		<g>
			<polygon fill="#FFFFFF" points="50.865,820.696 3.13,857.985 3.13,889.712 50.865,852.422 98.601,889.712 98.601,857.985 			"/>
			<polygon fill="#FFFFFF" points="50.865,867.897 17.606,893.901 17.606,915.74 50.865,889.751 84.139,915.74 84.139,893.901 			
				"/>
			<polygon fill="#FFFFFF" points="180.596,820.696 132.861,857.985 132.861,889.712 180.596,852.422 228.331,889.712 
				228.331,857.985 			"/>
			<polygon fill="#FFFFFF" points="180.596,867.897 147.336,893.901 147.336,915.74 180.596,889.751 213.869,915.74 
				213.869,893.901 			"/>
			<polygon fill="#FFFFFF" points="310.327,820.696 262.591,857.985 262.591,889.712 310.327,852.422 358.062,889.712 
				358.062,857.985 			"/>
			<polygon fill="#FFFFFF" points="310.327,867.897 277.067,893.901 277.067,915.74 310.327,889.751 343.6,915.74 343.6,893.901 			
				"/>
			<polygon fill="#FFFFFF" points="440.057,820.696 392.322,857.985 392.322,889.712 440.057,852.422 487.793,889.712 
				487.793,857.985 			"/>
			<polygon fill="#FFFFFF" points="440.057,867.897 406.798,893.901 406.798,915.74 440.057,889.751 473.331,915.74 
				473.331,893.901 			"/>
			<polygon fill="#FFFFFF" points="569.789,820.696 522.053,857.985 522.053,889.712 569.789,852.422 617.523,889.712 
				617.523,857.985 			"/>
			<polygon fill="#FFFFFF" points="569.789,867.897 536.529,893.901 536.529,915.74 569.789,889.751 603.063,915.74 
				603.063,893.901 			"/>
			<polygon fill="#FFFFFF" points="699.52,820.696 651.783,857.985 651.783,889.712 699.52,852.422 747.254,889.712 
				747.254,857.985 			"/>
			<polygon fill="#FFFFFF" points="699.52,867.897 666.26,893.901 666.26,915.74 699.52,889.751 732.793,915.74 732.793,893.901 			
				"/>
			<polygon fill="#FFFFFF" points="829.248,820.696 781.514,857.985 781.514,889.712 829.248,852.422 876.984,889.712 
				876.984,857.985 			"/>
			<polygon fill="#FFFFFF" points="829.248,867.897 795.99,893.901 795.99,915.74 829.248,889.751 862.523,915.74 862.523,893.901 
							"/>
			<polygon fill="#FFFFFF" points="958.98,820.696 911.244,857.985 911.244,889.712 958.98,852.422 1006.715,889.712 
				1006.715,857.985 			"/>
			<polygon fill="#FFFFFF" points="958.98,867.897 925.721,893.901 925.721,915.74 958.98,889.751 992.254,915.74 992.254,893.901 
							"/>
			<polygon fill="#FFFFFF" points="1088.711,766.61 1023.846,817.295 958.98,766.61 894.115,817.295 829.248,766.61 
				764.385,817.294 699.52,766.61 634.654,817.295 569.789,766.61 504.924,817.295 440.057,766.61 375.192,817.295 310.327,766.61 
				245.461,817.295 180.596,766.61 115.731,817.295 50.865,766.61 -14,817.295 -14,854.183 50.865,803.512 115.731,854.183 
				180.596,803.512 245.461,854.183 310.327,803.512 375.192,854.183 440.057,803.512 504.924,854.183 569.789,803.512 
				634.654,854.183 699.52,803.512 764.383,854.182 764.383,854.183 764.385,854.183 764.385,854.182 829.248,803.512 
				894.115,854.183 958.98,803.512 1023.846,854.183 1088.711,803.512 1153.576,854.183 1153.576,817.295 			"/>
			<polygon fill="#FFFFFF" points="1088.711,820.696 1040.975,857.985 1040.975,889.712 1088.711,852.422 1136.445,889.712 
				1136.445,857.985 			"/>
			<polygon fill="#FFFFFF" points="1088.711,867.897 1055.451,893.901 1055.451,915.74 1088.711,889.751 1121.984,915.74 
				1121.984,893.901 			"/>
		</g>
		<g>
			<polygon fill="#FFFFFF" points="50.865,956.081 3.13,993.37 3.13,1025.097 50.865,987.807 98.601,1025.097 98.601,993.37 			"/>
			<polygon fill="#FFFFFF" points="50.865,1003.282 17.606,1029.286 17.606,1051.125 50.865,1025.136 84.139,1051.125 
				84.139,1029.286 			"/>
			<polygon fill="#FFFFFF" points="180.596,956.081 132.861,993.37 132.861,1025.097 180.596,987.807 228.331,1025.097 
				228.331,993.37 			"/>
			<polygon fill="#FFFFFF" points="180.596,1003.282 147.336,1029.286 147.336,1051.125 180.596,1025.136 213.869,1051.125 
				213.869,1029.286 			"/>
			<polygon fill="#FFFFFF" points="310.327,956.081 262.591,993.37 262.591,1025.097 310.327,987.807 358.062,1025.097 
				358.062,993.37 			"/>
			<polygon fill="#FFFFFF" points="310.327,1003.282 277.067,1029.286 277.067,1051.125 310.327,1025.136 343.6,1051.125 
				343.6,1029.286 			"/>
			<polygon fill="#FFFFFF" points="440.057,956.081 392.322,993.37 392.322,1025.097 440.057,987.807 487.793,1025.097 
				487.793,993.37 			"/>
			<polygon fill="#FFFFFF" points="440.057,1003.282 406.798,1029.286 406.798,1051.125 440.057,1025.136 473.331,1051.125 
				473.331,1029.286 			"/>
			<polygon fill="#FFFFFF" points="569.789,956.081 522.053,993.37 522.053,1025.097 569.789,987.807 617.523,1025.097 
				617.523,993.37 			"/>
			<polygon fill="#FFFFFF" points="569.789,1003.282 536.529,1029.286 536.529,1051.125 569.789,1025.136 603.063,1051.125 
				603.063,1029.286 			"/>
			<polygon fill="#FFFFFF" points="699.52,956.081 651.783,993.37 651.783,1025.097 699.52,987.807 747.254,1025.097 
				747.254,993.37 			"/>
			<polygon fill="#FFFFFF" points="699.52,1003.282 666.26,1029.286 666.26,1051.125 699.52,1025.136 732.793,1051.125 
				732.793,1029.286 			"/>
			<polygon fill="#FFFFFF" points="829.248,956.081 781.514,993.37 781.514,1025.097 829.248,987.807 876.984,1025.097 
				876.984,993.37 			"/>
			<polygon fill="#FFFFFF" points="829.248,1003.282 795.99,1029.286 795.99,1051.125 829.248,1025.136 862.523,1051.125 
				862.523,1029.286 			"/>
			<polygon fill="#FFFFFF" points="958.98,956.081 911.244,993.37 911.244,1025.097 958.98,987.807 1006.715,1025.097 
				1006.715,993.37 			"/>
			<polygon fill="#FFFFFF" points="958.98,1003.282 925.721,1029.286 925.721,1051.125 958.98,1025.136 992.254,1051.125 
				992.254,1029.286 			"/>
			<polygon fill="#FFFFFF" points="1088.711,901.995 1023.846,952.68 958.98,901.995 894.115,952.68 829.248,901.995 
				764.385,952.679 699.52,901.995 634.654,952.68 569.789,901.995 504.924,952.68 440.057,901.995 375.192,952.68 310.327,901.995 
				245.461,952.68 180.596,901.995 115.731,952.68 50.865,901.995 -14,952.68 -14,989.567 50.865,938.896 115.731,989.567 
				180.596,938.896 245.461,989.567 310.327,938.896 375.192,989.567 440.057,938.896 504.924,989.567 569.789,938.896 
				634.654,989.567 699.52,938.896 764.383,989.566 764.383,989.567 764.385,989.567 764.385,989.566 829.248,938.896 
				894.115,989.567 958.98,938.896 1023.846,989.567 1088.711,938.896 1153.576,989.567 1153.576,952.68 			"/>
			<polygon fill="#FFFFFF" points="1088.711,956.081 1040.975,993.37 1040.975,1025.097 1088.711,987.807 1136.445,1025.097 
				1136.445,993.37 			"/>
			<polygon fill="#FFFFFF" points="1088.711,1003.282 1055.451,1029.286 1055.451,1051.125 1088.711,1025.136 1121.984,1051.125 
				1121.984,1029.286 			"/>
		</g>
	</g>
</g>
</svg>
