<svg width="264" height="265" viewBox="0 0 264 265" fill="none" xmlns="http://www.w3.org/2000/svg">
<g clip-path="url(#clip0_7814_39367)">
<path d="M25.4389 223.366L23.1211 214.224C19.0114 212.482 14.8068 210.974 10.5272 209.706L10.2346 213.954L9.04814 209.274C3.74072 207.756 0.130005 207.089 0.130005 207.089C0.130005 207.089 5.006 225.635 15.2364 239.814L27.1558 241.907L17.896 243.243C19.1828 244.791 20.5658 246.257 22.0367 247.632C36.9173 261.444 53.4919 267.782 59.0565 261.786C64.6212 255.791 57.069 239.734 42.1884 225.923C37.5752 221.641 31.7802 218.205 25.9792 215.5L25.4389 223.366Z" fill="#2B365A"/>
<path d="M47.482 213.437L50.2232 204.414C47.6056 200.798 44.7863 197.334 41.7785 194.036L39.332 197.521L40.7355 192.901C36.9756 188.861 34.2299 186.423 34.2299 186.423C34.2299 186.423 28.8186 204.82 30.246 222.245L39.3674 230.199L30.7488 226.555C31.0504 228.546 31.4769 230.516 32.0258 232.454C37.6247 251.97 48.5374 265.962 56.3998 263.706C64.2622 261.451 66.0974 243.801 60.4985 224.285C58.7629 218.235 55.578 212.298 52.0103 206.984L47.482 213.437Z" fill="#2B365A"/>
<path d="M183.775 63.5301H182.33V23.9214C182.33 20.9108 181.737 17.9297 180.585 15.1483C179.432 12.3669 177.744 9.83959 175.615 7.71077C173.486 5.58196 170.959 3.89329 168.177 2.74118C165.396 1.58907 162.415 0.996094 159.404 0.996094L75.485 0.996094C69.4049 0.996094 63.5737 3.41144 59.2744 7.71077C54.975 12.0101 52.5597 17.8413 52.5597 23.9214L52.5597 241.222C52.5597 244.232 53.1527 247.213 54.3048 249.995C55.4569 252.776 57.1456 255.303 59.2744 257.432C61.4032 259.561 63.9305 261.25 66.7119 262.402C69.4933 263.554 72.4744 264.147 75.485 264.147H159.404C165.484 264.147 171.315 261.732 175.615 257.432C179.914 253.133 182.329 247.302 182.329 241.222V91.7244H183.775L183.775 63.5301Z" fill="#2B365A"/>
<path d="M160.329 6.95898H149.376C149.88 8.19409 150.072 9.53415 149.936 10.8611C149.8 12.188 149.339 13.4611 148.595 14.5682C147.851 15.6752 146.846 16.5823 145.669 17.2095C144.492 17.8366 143.178 18.1647 141.844 18.1646H93.768C92.4342 18.1645 91.1208 17.8364 89.9437 17.2092C88.7665 16.582 87.7616 15.6749 87.0176 14.5679C86.2736 13.4608 85.8132 12.1878 85.6771 10.8609C85.541 9.53403 85.7333 8.19404 86.2371 6.95898H76.0059C71.4653 6.95898 67.1107 8.76274 63.9 11.9734C60.6893 15.1841 58.8855 19.5388 58.8855 24.0794L58.8855 241.064C58.8855 245.605 60.6893 249.959 63.9 253.17C67.1107 256.381 71.4653 258.185 76.0059 258.185H160.329C164.87 258.185 169.225 256.381 172.435 253.17C175.646 249.959 177.45 245.605 177.45 241.064V24.0791C177.45 19.5385 175.646 15.1839 172.435 11.9733C169.225 8.76269 164.87 6.95898 160.329 6.95898Z" fill="#F5F5F5"/>
<path d="M107.423 93.3944C107.422 91.8777 107.822 90.3877 108.58 89.0743C109.339 87.761 110.43 86.6706 111.744 85.9129C110.431 85.1545 108.941 84.7551 107.424 84.7549C105.908 84.7547 104.418 85.1538 103.104 85.912C101.791 86.6702 100.7 87.7607 99.9417 89.0741C99.1834 90.3875 98.7842 91.8773 98.7842 93.3939C98.7842 94.9105 99.1834 96.4003 99.9417 97.7137C100.7 99.027 101.791 100.118 103.104 100.876C104.418 101.634 105.908 102.033 107.424 102.033C108.941 102.033 110.431 101.633 111.744 100.875C110.43 100.117 109.339 99.0272 108.58 97.714C107.822 96.4008 107.422 94.911 107.423 93.3944Z" fill="#2B365A"/>
<path d="M118.283 93.3944C118.283 91.8777 118.682 90.3877 119.441 89.0743C120.199 87.7609 121.29 86.6705 122.604 85.9129C121.291 85.1545 119.801 84.7551 118.285 84.7549C116.768 84.7547 115.278 85.1538 113.965 85.912C112.651 86.6702 111.561 87.7607 110.802 89.0741C110.044 90.3875 109.645 91.8773 109.645 93.3939C109.645 94.9105 110.044 96.4003 110.802 97.7137C111.561 99.027 112.651 100.118 113.965 100.876C115.278 101.634 116.768 102.033 118.285 102.033C119.801 102.033 121.291 101.633 122.604 100.875C121.29 100.117 120.199 99.0272 119.441 97.714C118.682 96.4008 118.283 94.911 118.283 93.3944Z" fill="#2B365A"/>
<path d="M128.897 102.033C133.668 102.033 137.536 98.1651 137.536 93.3939C137.536 88.6227 133.668 84.7549 128.897 84.7549C124.126 84.7549 120.258 88.6227 120.258 93.3939C120.258 98.1651 124.126 102.033 128.897 102.033Z" fill="#2B365A"/>
<path d="M143.335 120.377H92.9846C92.5053 120.377 92.0458 120.186 91.7068 119.847C91.3679 119.508 91.1772 119.049 91.1766 118.569V68.2191C91.1772 67.7398 91.3679 67.2803 91.7068 66.9413C92.0458 66.6024 92.5053 66.4117 92.9846 66.4111H143.335C143.814 66.4117 144.274 66.6024 144.613 66.9413C144.951 67.2803 145.142 67.7398 145.143 68.2191V118.569C145.142 119.049 144.951 119.508 144.613 119.847C144.274 120.186 143.814 120.377 143.335 120.377ZM92.9846 67.1348C92.697 67.135 92.4213 67.2494 92.2179 67.4528C92.0146 67.6561 91.9002 67.9319 91.8999 68.2195V118.57C91.9002 118.857 92.0146 119.133 92.2179 119.336C92.4213 119.54 92.697 119.654 92.9846 119.654H143.335C143.622 119.654 143.898 119.54 144.101 119.336C144.305 119.133 144.419 118.857 144.419 118.57V68.2195C144.419 67.9319 144.305 67.6561 144.101 67.4528C143.898 67.2494 143.622 67.135 143.335 67.1348H92.9846Z" fill="#2B365A"/>
<path d="M154.577 158.974H77.3553V159.697H154.577V158.974Z" fill="#2B365A"/>
<path d="M79.7941 154.457C81.1409 154.457 82.2328 153.365 82.2328 152.018C82.2328 150.671 81.1409 149.579 79.7941 149.579C78.4472 149.579 77.3553 150.671 77.3553 152.018C77.3553 153.365 78.4472 154.457 79.7941 154.457Z" fill="#2B365A"/>
<path d="M154.577 183.359H77.3553V184.083H154.577V183.359Z" fill="#2B365A"/>
<path d="M79.7941 178.843C81.1409 178.843 82.2328 177.751 82.2328 176.405C82.2328 175.058 81.1409 173.966 79.7941 173.966C78.4472 173.966 77.3553 175.058 77.3553 176.405C77.3553 177.751 78.4472 178.843 79.7941 178.843Z" fill="#2B365A"/>
<path d="M153.164 211.128H128.76C128.338 211.128 127.934 210.96 127.636 210.662C127.338 210.364 127.17 209.96 127.17 209.538V200.985C127.17 200.563 127.338 200.159 127.636 199.861C127.934 199.563 128.338 199.395 128.76 199.395H153.164C153.585 199.395 153.99 199.563 154.288 199.861C154.586 200.159 154.753 200.563 154.754 200.985V209.538C154.753 209.96 154.586 210.364 154.288 210.662C153.99 210.96 153.585 211.128 153.164 211.128Z" fill="#2B365A"/>
<path d="M87.749 154.457C89.0959 154.457 90.1877 153.365 90.1877 152.018C90.1877 150.671 89.0959 149.579 87.749 149.579C86.4022 149.579 85.3103 150.671 85.3103 152.018C85.3103 153.365 86.4022 154.457 87.749 154.457Z" fill="#2B365A"/>
<path d="M95.704 154.457C97.0508 154.457 98.1427 153.365 98.1427 152.018C98.1427 150.671 97.0508 149.579 95.704 149.579C94.3571 149.579 93.2653 150.671 93.2653 152.018C93.2653 153.365 94.3571 154.457 95.704 154.457Z" fill="#2B365A"/>
<path d="M87.749 178.843C89.0959 178.843 90.1877 177.751 90.1877 176.405C90.1877 175.058 89.0959 173.966 87.749 173.966C86.4022 173.966 85.3103 175.058 85.3103 176.405C85.3103 177.751 86.4022 178.843 87.749 178.843Z" fill="#2B365A"/>
<path d="M95.704 178.843C97.0508 178.843 98.1427 177.751 98.1427 176.405C98.1427 175.058 97.0508 173.966 95.704 173.966C94.3571 173.966 93.2653 175.058 93.2653 176.405C93.2653 177.751 94.3571 178.843 95.704 178.843Z" fill="#2B365A"/>
<path d="M262.327 264.966H8.63825C8.09518 264.966 7.65527 264.773 7.65527 264.535C7.65527 264.298 8.09518 264.104 8.63825 264.104H262.327C262.87 264.104 263.31 264.297 263.31 264.535C263.31 264.773 262.87 264.966 262.327 264.966Z" fill="#3F3D56"/>
<path d="M199.649 173.94C199.822 174.02 199.989 174.113 200.148 174.219L215.995 167.455L216.561 163.28L222.893 163.241L222.519 172.816L201.602 178.348C201.558 178.493 201.505 178.636 201.444 178.775C201.142 179.42 200.655 179.961 200.046 180.331C199.437 180.701 198.732 180.883 198.02 180.853C197.308 180.824 196.62 180.584 196.044 180.166C195.467 179.747 195.027 179.167 194.779 178.499C194.531 177.831 194.486 177.104 194.65 176.41C194.813 175.717 195.178 175.087 195.698 174.6C196.219 174.113 196.871 173.79 197.574 173.673C198.277 173.556 198.999 173.649 199.649 173.94Z" fill="#FFB8B8"/>
<path d="M225.196 260.705H220.865L218.804 243.996L225.197 243.996L225.196 260.705Z" fill="#FFB8B8"/>
<path d="M217.77 259.467H226.124V264.727H212.51C212.51 263.332 213.064 261.994 214.051 261.007C215.037 260.021 216.375 259.467 217.77 259.467Z" fill="#2F2E41"/>
<path d="M242.043 259.479L237.732 259.904L234.043 243.478L240.406 242.852L242.043 259.479Z" fill="#FFB8B8"/>
<path d="M234.532 258.977L242.846 258.158L243.362 263.392L229.813 264.727C229.745 264.039 229.814 263.345 230.014 262.684C230.215 262.023 230.543 261.408 230.982 260.874C231.42 260.34 231.959 259.898 232.568 259.572C233.177 259.247 233.845 259.044 234.532 258.977Z" fill="#2F2E41"/>
<path d="M226.402 145.558C231.195 145.558 235.08 141.672 235.08 136.879C235.08 132.087 231.195 128.201 226.402 128.201C221.609 128.201 217.724 132.087 217.724 136.879C217.724 141.672 221.609 145.558 226.402 145.558Z" fill="#FFB8B8"/>
<path d="M219.897 257.326C219.524 257.327 219.164 257.196 218.878 256.957C218.593 256.718 218.401 256.386 218.337 256.019C216.094 243.573 208.766 202.876 208.59 201.749C208.586 201.723 208.585 201.697 208.585 201.67V198.636C208.584 198.526 208.619 198.418 208.683 198.328L209.652 196.972C209.698 196.907 209.758 196.853 209.828 196.815C209.898 196.776 209.976 196.755 210.056 196.751C215.575 196.492 233.653 195.734 234.526 196.825C235.403 197.922 235.093 201.244 235.022 201.899L235.026 201.967L243.147 253.906C243.211 254.32 243.109 254.742 242.863 255.082C242.617 255.421 242.248 255.651 241.835 255.72L236.762 256.556C236.384 256.616 235.997 256.539 235.671 256.339C235.346 256.138 235.102 255.827 234.986 255.463C233.417 250.45 228.157 233.585 226.334 227.059C226.322 227.018 226.296 226.982 226.26 226.959C226.224 226.935 226.181 226.926 226.139 226.932C226.096 226.938 226.058 226.959 226.03 226.991C226.002 227.024 225.987 227.066 225.987 227.108C226.078 233.329 226.298 249.2 226.374 254.682L226.383 255.272C226.386 255.672 226.239 256.058 225.971 256.355C225.704 256.652 225.334 256.837 224.936 256.875L220.045 257.319C219.995 257.324 219.946 257.326 219.897 257.326Z" fill="#2F2E41"/>
<path d="M220.895 148.97C219.38 149.871 218.474 151.525 217.954 153.209C216.991 156.326 216.412 159.548 216.228 162.805L215.678 172.557L208.875 198.41C214.772 203.4 218.173 202.266 226.111 198.185C234.048 194.104 234.956 199.546 234.956 199.546L236.543 177.548L238.811 153.509C238.302 152.896 237.725 152.342 237.093 151.858C234.997 150.228 232.558 149.095 229.96 148.544C227.363 147.994 224.674 148.04 222.097 148.68L220.895 148.97Z" fill="#2B365A"/>
<path d="M218.685 179.162C218.868 179.231 219.045 179.314 219.215 179.411L234.885 171.568L235.145 167.319L241.609 166.873L241.955 176.559L221.015 183.484C220.844 184.217 220.453 184.881 219.896 185.388C219.338 185.894 218.64 186.218 217.893 186.318C217.147 186.417 216.388 186.287 215.717 185.945C215.046 185.603 214.496 185.064 214.138 184.402C213.781 183.739 213.634 182.983 213.717 182.234C213.8 181.486 214.108 180.78 214.602 180.211C215.095 179.643 215.75 179.238 216.48 179.05C217.209 178.863 217.978 178.902 218.685 179.162Z" fill="#FFB8B8"/>
<path d="M238.697 153.619C242.553 154.98 243.232 169.722 243.232 169.722C238.696 167.227 233.253 171.31 233.253 171.31C233.253 171.31 232.119 167.454 230.758 162.465C230.347 161.062 230.298 159.577 230.616 158.15C230.933 156.722 231.606 155.398 232.573 154.301C232.573 154.301 234.842 152.258 238.697 153.619Z" fill="#2B365A"/>
<path d="M234.184 139.175C233.102 138.31 231.627 139.882 231.627 139.882L230.762 132.097C230.762 132.097 225.356 132.745 221.896 131.881C218.436 131.017 217.895 135.017 217.895 135.017C217.717 133.401 217.68 131.773 217.787 130.151C218.003 128.205 220.814 126.259 225.788 124.961C230.762 123.663 233.357 129.286 233.357 129.286C236.817 131.016 235.265 140.04 234.184 139.175Z" fill="#2F2E41"/>
</g>
<defs>
<clipPath id="clip0_7814_39367">
<rect width="263.18" height="263.967" fill="white" transform="translate(0.130005 0.996094)"/>
</clipPath>
</defs>
</svg>
