<svg width="95" height="129" viewBox="0 0 95 129" fill="none" xmlns="http://www.w3.org/2000/svg">
<path d="M11.3795 126.08C11.94 125.59 12.3486 124.928 12.5509 124.182C12.7039 123.427 12.4041 122.524 11.7312 122.248C10.9788 121.939 10.1744 122.497 9.56569 123.065C8.95702 123.634 8.2566 124.277 7.45829 124.156C7.8686 123.756 8.17553 123.25 8.34921 122.685C8.52289 122.121 8.55737 121.517 8.44929 120.934C8.41478 120.692 8.31961 120.465 8.17401 120.277C7.75497 119.798 6.99949 120.005 6.49787 120.382C4.90738 121.584 4.46387 123.903 4.4547 125.992C4.29565 125.239 4.43022 124.455 4.4241 123.693C4.41798 122.931 4.22224 122.051 3.61663 121.65C3.24109 121.433 2.81934 121.326 2.39317 121.338C1.67745 121.308 0.882188 121.387 0.392804 121.949C-0.218926 122.645 -0.0568145 123.817 0.472332 124.576C1.00148 125.335 1.80285 125.824 2.54304 126.356C3.13628 126.735 3.64229 127.252 4.02342 127.87C4.06824 127.956 4.10512 128.046 4.13352 128.139H8.61445C9.61842 127.59 10.5485 126.897 11.3795 126.08Z" fill="#6C63FF"/>
<path d="M71.5491 1C71.5491 1 58.7517 14.7407 65.9763 35.1285C73.2008 55.5162 53.5918 89.4214 53.5918 89.4214C53.5918 89.4214 53.8028 89.3885 54.2035 89.3163C80.4865 84.3343 93.5439 52.0613 78.9297 28.0841C73.4853 19.1677 69.0258 8.71109 71.5491 1Z" fill="#6C63FF"/>
<path opacity="0.1" d="M71.5491 1.22656C71.5491 1.22656 58.7517 14.9673 65.9763 35.355C73.2008 55.7428 53.5918 89.6479 53.5918 89.6479C53.5918 89.6479 53.8028 89.6151 54.2035 89.5428C80.4743 84.5608 93.5317 52.2748 78.9174 28.3008C73.4853 19.3975 69.0258 8.92452 71.5491 1.22656Z" fill="black"/>
<path d="M71.5491 1C71.5491 1 64.3246 17.8409 71.5491 31.5816C78.7737 45.3223 72.7726 83.8811 53.5918 89.4214" stroke="#535461" stroke-miterlimit="10"/>
<path d="M94.339 56.57C94.339 56.57 79.737 54.0741 78.4065 68.1235C77.076 82.1729 50.3281 84.1302 50.3281 84.1302L50.8297 84.4882C72.9132 100.055 94.0271 94.4029 90.843 73.7327C89.6624 66.0446 89.7572 58.327 94.339 56.57Z" fill="#6C63FF"/>
<path d="M94.339 56.5703C94.339 56.5703 83.0037 59.2403 83.9396 70.3077C84.8756 81.3752 67.1048 94.6397 50.3281 84.1306" stroke="#535461" stroke-miterlimit="10"/>
<path d="M81.4928 84.636C81.4928 84.636 69.9922 82.1598 66.9244 78.8757C63.8566 75.5916 50.0559 69.8214 48.5235 73.9495C46.9911 78.0777 27.8226 92.045 40.8463 94.5146C53.8701 96.9843 71.5154 97.7987 75.3479 96.1567C79.1804 94.5146 81.4928 84.636 81.4928 84.636Z" fill="#A8A8A8"/>
<path opacity="0.2" d="M40.8468 92.9968C53.8827 95.4665 71.5159 96.2809 75.3483 94.6389C78.2693 93.3843 80.2972 87.3613 81.0986 84.5566L81.4809 84.642C81.4809 84.642 79.1808 94.5206 75.3483 96.166C71.5159 97.8113 53.8797 96.9903 40.8468 94.5239C37.0846 93.8113 36.008 92.1364 36.4148 90.0181C36.7451 91.3909 38.0573 92.4549 40.8468 92.9968Z" fill="black"/>
</svg>
