<svg width="601" height="442" viewBox="0 0 601 442" fill="none" xmlns="http://www.w3.org/2000/svg">
<g clip-path="url(#clip0_6910_32860)">
<path d="M169.246 388.626C171.43 371.063 182.315 353.758 199.064 348.043C192.458 366.12 192.46 385.951 199.068 404.027C201.642 410.989 205.229 418.464 202.808 425.481C201.302 429.847 197.617 433.187 193.498 435.276C189.379 437.364 184.807 438.36 180.293 439.335L179.405 440.07C172.238 423.888 167.062 406.188 169.246 388.626Z" fill="#F0F0F0"/>
<path d="M199.23 348.376C189.476 359.306 183.414 373.03 181.904 387.601C181.523 390.732 181.638 393.904 182.245 396.999C182.934 399.995 184.412 402.752 186.527 404.983C188.456 407.103 190.676 409.049 192.057 411.601C192.744 412.918 193.145 414.365 193.234 415.848C193.323 417.331 193.097 418.816 192.572 420.206C191.353 423.702 188.95 426.552 186.503 429.257C183.787 432.261 180.918 435.338 179.764 439.32C179.624 439.802 178.883 439.557 179.023 439.075C181.032 432.147 187.757 428.212 190.964 421.972C192.461 419.06 193.089 415.68 191.686 412.606C190.459 409.918 188.172 407.91 186.2 405.78C184.105 403.634 182.568 401.007 181.723 398.129C180.96 395.075 180.723 391.913 181.021 388.78C181.58 381.714 183.247 374.78 185.96 368.231C189.015 360.74 193.328 353.828 198.714 347.791C199.048 347.418 199.562 348.005 199.23 348.376L199.23 348.376Z" fill="white"/>
<path d="M182.114 382.881C179.703 382.296 177.58 380.873 176.122 378.867C174.663 376.86 173.966 374.401 174.154 371.928C174.163 371.827 174.21 371.733 174.286 371.667C174.362 371.6 174.461 371.566 174.562 371.571C174.664 371.576 174.759 371.62 174.828 371.694C174.897 371.768 174.935 371.865 174.933 371.966C174.754 374.269 175.404 376.56 176.765 378.426C178.127 380.291 180.111 381.609 182.358 382.141C182.847 382.257 182.599 382.997 182.114 382.881Z" fill="white"/>
<path d="M185.407 404.037C189.76 401.437 192.973 397.293 194.407 392.429C194.548 391.947 195.289 392.193 195.147 392.674C193.646 397.732 190.293 402.039 185.757 404.733C185.325 404.99 184.976 404.292 185.407 404.037Z" fill="white"/>
<path d="M189.739 361.477C190.624 361.898 191.6 362.092 192.579 362.043C193.558 361.993 194.51 361.701 195.348 361.193C195.777 360.931 196.125 361.629 195.699 361.889C194.77 362.446 193.719 362.768 192.637 362.825C191.556 362.882 190.476 362.674 189.494 362.218C189.398 362.183 189.319 362.112 189.273 362.021C189.226 361.929 189.217 361.824 189.246 361.725C189.279 361.627 189.349 361.547 189.441 361.5C189.534 361.454 189.64 361.445 189.739 361.477Z" fill="white"/>
<path d="M250.119 379.412C249.856 379.584 249.593 379.755 249.329 379.933C245.802 382.252 242.468 384.854 239.362 387.714C239.119 387.931 238.875 388.155 238.638 388.379C231.228 395.348 225.177 403.631 220.791 412.809C219.049 416.463 217.588 420.244 216.42 424.119C214.807 429.471 213.484 435.403 210.291 439.78C209.963 440.241 209.607 440.681 209.224 441.097H180.37C180.304 441.064 180.238 441.038 180.173 441.005L179.021 441.058C179.067 440.854 179.119 440.643 179.166 440.439C179.192 440.32 179.225 440.202 179.251 440.083C179.271 440.004 179.291 439.925 179.304 439.853C179.31 439.827 179.317 439.8 179.323 439.78C179.337 439.708 179.356 439.642 179.37 439.576C179.659 438.398 179.958 437.22 180.265 436.041C180.265 436.035 180.265 436.035 180.271 436.028C182.526 427.026 185.841 418.324 190.146 410.103C190.278 409.86 190.409 409.61 190.554 409.366C192.548 405.727 194.835 402.257 197.394 398.991C198.801 397.207 200.298 395.495 201.878 393.862C205.968 389.652 210.696 386.111 215.887 383.369C226.235 377.905 238.217 375.811 249.277 379.149C249.559 379.235 249.836 379.32 250.119 379.412Z" fill="#F0F0F0"/>
<path d="M250.054 379.78C235.686 382.634 222.582 389.943 212.604 400.668C210.415 402.938 208.597 405.54 207.218 408.377C205.964 411.183 205.485 414.275 205.83 417.329C206.094 420.184 206.695 423.073 206.261 425.943C206.016 427.408 205.465 428.805 204.643 430.043C203.821 431.28 202.747 432.33 201.491 433.123C198.413 435.181 194.778 436.01 191.196 436.697C187.219 437.46 183.076 438.189 179.756 440.673C179.354 440.974 178.911 440.333 179.312 440.032C185.088 435.71 192.827 436.617 199.145 433.566C202.093 432.142 204.629 429.821 205.36 426.522C205.998 423.637 205.381 420.657 205.089 417.769C204.709 414.794 205.063 411.771 206.12 408.965C207.35 406.067 209.065 403.4 211.19 401.077C215.89 395.772 221.395 391.239 227.504 387.643C234.453 383.502 242.06 380.579 249.994 379.003C250.485 378.905 250.542 379.684 250.054 379.78H250.054Z" fill="white"/>
<path d="M215.613 397.025C214.041 395.106 213.202 392.692 213.246 390.212C213.29 387.732 214.214 385.348 215.853 383.487C216.186 383.111 216.785 383.611 216.451 383.987C214.922 385.718 214.062 387.938 214.025 390.247C213.989 392.557 214.78 394.803 216.254 396.581C216.574 396.967 215.931 397.409 215.613 397.025Z" fill="white"/>
<path d="M205.506 415.9C210.546 416.445 215.608 415.071 219.68 412.05C220.083 411.751 220.527 412.392 220.124 412.692C215.88 415.827 210.611 417.246 205.366 416.667C204.866 416.612 205.008 415.844 205.506 415.9Z" fill="white"/>
<path d="M234.587 384.527C235.04 385.396 235.703 386.138 236.514 386.688C237.326 387.238 238.261 387.577 239.237 387.676C239.737 387.725 239.594 388.493 239.097 388.444C238.02 388.33 236.988 387.953 236.09 387.348C235.191 386.742 234.455 385.926 233.945 384.971C233.89 384.885 233.869 384.781 233.887 384.68C233.906 384.579 233.962 384.489 234.044 384.428C234.129 384.37 234.234 384.347 234.336 384.366C234.437 384.384 234.527 384.442 234.587 384.527L234.587 384.527Z" fill="white"/>
<path d="M194.546 136.361H99.0824C96.1324 136.358 93.3041 135.184 91.2182 133.098C89.1322 131.012 87.9589 128.184 87.9556 125.234V73.2398C87.9589 70.2898 89.1323 67.4616 91.2182 65.3757C93.3042 63.2898 96.1324 62.1165 99.0824 62.1133H194.546C197.496 62.1165 200.324 63.2898 202.41 65.3757C204.496 67.4616 205.669 70.2898 205.673 73.2398V125.234C205.669 128.184 204.496 131.012 202.41 133.098C200.324 135.184 197.496 136.358 194.546 136.361Z" fill="#E6E6E6"/>
<path d="M340.291 136.361H244.828C241.878 136.358 239.049 135.184 236.963 133.098C234.877 131.012 233.704 128.184 233.701 125.234V73.2398C233.704 70.2898 234.877 67.4616 236.963 65.3757C239.049 63.2898 241.878 62.1165 244.828 62.1133H340.291C343.241 62.1165 346.069 63.2898 348.155 65.3757C350.241 67.4616 351.415 70.2898 351.418 73.2398V125.234C351.415 128.184 350.241 131.012 348.155 133.098C346.069 135.184 343.241 136.358 340.291 136.361Z" fill="#2B365A"/>
<path d="M486.036 136.361H390.572C387.622 136.358 384.794 135.184 382.708 133.098C380.622 131.012 379.449 128.184 379.445 125.234V73.2398C379.449 70.2898 380.622 67.4616 382.708 65.3757C384.794 63.2898 387.622 62.1165 390.572 62.1133H486.036C488.986 62.1165 491.814 63.2898 493.9 65.3757C495.986 67.4616 497.159 70.2898 497.162 73.2398V125.234C497.159 128.184 495.986 131.012 493.9 133.098C491.814 135.184 488.986 136.358 486.036 136.361Z" fill="#F2F2F2"/>
<path d="M194.546 252.211H99.0824C96.1324 252.207 93.3041 251.034 91.2182 248.948C89.1322 246.862 87.9589 244.033 87.9556 241.083V189.089C87.9589 186.139 89.1323 183.311 91.2182 181.225C93.3042 179.139 96.1324 177.966 99.0824 177.963H194.546C197.496 177.966 200.324 179.139 202.41 181.225C204.496 183.311 205.669 186.139 205.673 189.089V241.083C205.669 244.033 204.496 246.862 202.41 248.948C200.324 251.034 197.496 252.207 194.546 252.211Z" fill="#F2F2F2"/>
<path d="M495.019 148.919C504.435 148.919 512.069 141.285 512.069 131.868C512.069 122.452 504.435 114.818 495.019 114.818C485.602 114.818 477.969 122.452 477.969 131.868C477.969 141.285 485.602 148.919 495.019 148.919Z" fill="#2B365A"/>
<path d="M502.099 130.435H496.302V124.638C496.302 124.458 496.267 124.281 496.198 124.116C496.13 123.95 496.029 123.8 495.903 123.673C495.776 123.546 495.626 123.446 495.46 123.377C495.295 123.309 495.117 123.273 494.938 123.273C494.759 123.273 494.582 123.309 494.416 123.377C494.251 123.446 494.1 123.546 493.974 123.673C493.847 123.8 493.747 123.95 493.678 124.116C493.609 124.281 493.574 124.458 493.574 124.638V130.435H487.777C487.598 130.435 487.421 130.47 487.255 130.538C487.09 130.607 486.939 130.707 486.813 130.834C486.686 130.961 486.585 131.111 486.517 131.277C486.448 131.442 486.413 131.62 486.413 131.799C486.413 131.978 486.448 132.155 486.517 132.321C486.585 132.486 486.686 132.637 486.813 132.763C486.939 132.89 487.09 132.99 487.255 133.059C487.421 133.127 487.598 133.163 487.777 133.163H493.574V138.96C493.574 139.139 493.609 139.316 493.678 139.482C493.747 139.647 493.847 139.798 493.974 139.924C494.1 140.051 494.251 140.151 494.416 140.22C494.582 140.289 494.759 140.324 494.938 140.324C495.3 140.324 495.647 140.18 495.903 139.924C496.159 139.669 496.302 139.322 496.302 138.96V133.163H502.099C502.278 133.163 502.456 133.127 502.621 133.059C502.787 132.99 502.937 132.89 503.064 132.763C503.19 132.637 503.291 132.486 503.36 132.321C503.428 132.155 503.463 131.978 503.463 131.799C503.463 131.619 503.428 131.442 503.36 131.277C503.291 131.111 503.19 130.961 503.064 130.834C502.937 130.707 502.787 130.607 502.621 130.538C502.456 130.47 502.278 130.435 502.099 130.435L502.099 130.435Z" fill="white"/>
<path d="M328.937 106.82C329.248 107.76 329.349 108.758 329.233 109.742C329.117 110.726 328.786 111.673 328.264 112.516C327.743 113.358 327.043 114.076 326.213 114.619C325.384 115.162 324.446 115.516 323.465 115.657L315.581 169.471L302.649 163.155L315.657 109.438C315.529 107.775 316.016 106.122 317.025 104.794C318.035 103.465 319.497 102.553 321.134 102.23C322.771 101.908 324.469 102.196 325.907 103.042C327.345 103.888 328.423 105.232 328.937 106.819L328.937 106.82Z" fill="#9E616A"/>
<path d="M234.773 279.172C235.349 278.365 235.74 277.442 235.921 276.468C236.101 275.493 236.066 274.491 235.817 273.532C235.568 272.573 235.112 271.68 234.481 270.916C233.849 270.152 233.058 269.536 232.163 269.111L237.482 211.869L226.342 217.579L222.863 272.739C222.249 274.29 222.225 276.013 222.796 277.581C223.366 279.148 224.493 280.452 225.961 281.245C227.429 282.038 229.137 282.265 230.761 281.883C232.385 281.501 233.812 280.536 234.773 279.172H234.773Z" fill="#9E616A"/>
<path d="M242.384 250.223L290.189 248.384L292.947 198.74H237.787L242.384 250.223Z" fill="#9E616A"/>
<path d="M233.511 425.543L241.68 425.542L245.566 394.033H233.509L233.511 425.543Z" fill="#9E616A"/>
<path d="M231.485 421.511L244.398 420.74V426.273L256.676 434.752C257.282 435.171 257.739 435.772 257.979 436.469C258.219 437.166 258.231 437.921 258.011 438.625C257.792 439.328 257.354 439.943 256.76 440.38C256.166 440.817 255.449 441.052 254.712 441.052H239.338L236.688 435.579L235.653 441.052H229.856L231.485 421.511Z" fill="#2F2E41"/>
<path d="M269.846 425.543L278.015 425.542L281.901 394.033H269.845L269.846 425.543Z" fill="#9E616A"/>
<path d="M247.55 157.48C247.55 157.48 229.484 161.053 226.371 176.461C223.258 191.868 221.255 226.734 221.255 226.734L221.937 231.589L239.413 235.641L250.567 186.789L247.55 157.48Z" fill="#2B365A"/>
<path d="M267.819 421.511L280.733 420.74V426.273L293.01 434.752C293.617 435.171 294.073 435.772 294.314 436.469C294.554 437.166 294.565 437.921 294.346 438.625C294.127 439.328 293.688 439.943 293.095 440.38C292.501 440.817 291.783 441.052 291.046 441.052H275.672L273.022 435.579L271.988 441.052H266.191L267.819 421.511Z" fill="#2F2E41"/>
<path d="M281.382 127.313C283.07 116.912 276.007 107.112 265.606 105.424C255.205 103.736 245.405 110.8 243.717 121.201C242.029 131.602 249.093 141.401 259.494 143.089C269.895 144.777 279.694 137.714 281.382 127.313Z" fill="#9E616A"/>
<path d="M512.106 442.001H88.1042C87.869 441.999 87.6438 441.905 87.4778 441.738C87.3119 441.572 87.2188 441.346 87.2188 441.111C87.2188 440.875 87.3119 440.65 87.4778 440.483C87.6438 440.316 87.869 440.222 88.1042 440.221H512.106C512.341 440.222 512.566 440.316 512.732 440.483C512.898 440.65 512.991 440.875 512.991 441.111C512.991 441.346 512.898 441.572 512.732 441.738C512.566 441.905 512.341 441.999 512.106 442.001Z" fill="#CCCCCC"/>
<path d="M199.337 264.018C208.754 264.018 216.387 256.385 216.387 246.968C216.387 237.552 208.754 229.918 199.337 229.918C189.921 229.918 182.287 237.552 182.287 246.968C182.287 256.385 189.921 264.018 199.337 264.018Z" fill="#E6E6E6"/>
<path d="M455.875 237.168H396.072C394.224 237.166 392.453 236.431 391.146 235.124C389.839 233.817 389.104 232.046 389.102 230.198V197.626C389.104 195.778 389.839 194.007 391.146 192.7C392.453 191.393 394.224 190.658 396.072 190.656H455.875C457.723 190.658 459.495 191.393 460.801 192.7C462.108 194.007 462.843 195.778 462.845 197.626V230.198C462.843 232.046 462.108 233.817 460.801 235.124C459.495 236.431 457.723 237.166 455.875 237.168Z" fill="#F2F2F2"/>
<path d="M455.033 249.354C464.45 249.354 472.083 241.721 472.083 232.304C472.083 222.888 464.45 215.254 455.033 215.254C445.616 215.254 437.983 222.888 437.983 232.304C437.983 241.721 445.616 249.354 455.033 249.354Z" fill="#2B365A"/>
<path d="M462.112 230.872H456.316V225.075C456.316 224.896 456.28 224.719 456.212 224.553C456.143 224.388 456.043 224.237 455.916 224.11C455.789 223.984 455.639 223.883 455.473 223.815C455.308 223.746 455.131 223.711 454.951 223.711C454.772 223.711 454.595 223.746 454.429 223.815C454.264 223.883 454.114 223.984 453.987 224.11C453.86 224.237 453.76 224.388 453.691 224.553C453.623 224.719 453.587 224.896 453.587 225.075V230.872H447.79C447.611 230.872 447.434 230.907 447.268 230.976C447.103 231.044 446.952 231.145 446.826 231.272C446.699 231.398 446.599 231.549 446.53 231.714C446.462 231.88 446.426 232.057 446.426 232.236C446.426 232.415 446.462 232.593 446.53 232.758C446.599 232.924 446.699 233.074 446.826 233.201C446.952 233.327 447.103 233.428 447.268 233.496C447.434 233.565 447.611 233.6 447.79 233.6H453.587V239.397C453.587 239.576 453.623 239.754 453.691 239.919C453.76 240.085 453.86 240.235 453.987 240.362C454.114 240.489 454.264 240.589 454.429 240.658C454.595 240.726 454.772 240.761 454.951 240.761C455.313 240.761 455.66 240.618 455.916 240.362C456.172 240.106 456.316 239.759 456.316 239.397V233.6H462.112C462.292 233.6 462.469 233.565 462.634 233.496C462.8 233.428 462.95 233.327 463.077 233.201C463.204 233.074 463.304 232.924 463.373 232.758C463.441 232.593 463.477 232.415 463.477 232.236C463.477 232.057 463.441 231.88 463.373 231.714C463.304 231.549 463.204 231.398 463.077 231.272C462.95 231.145 462.8 231.044 462.634 230.976C462.469 230.907 462.292 230.872 462.112 230.872L462.112 230.872Z" fill="white"/>
<path d="M199.418 264.303C208.835 264.303 216.468 256.67 216.468 247.253C216.468 237.837 208.835 230.203 199.418 230.203C190.002 230.203 182.368 237.837 182.368 247.253C182.368 256.67 190.002 264.303 199.418 264.303Z" fill="#2B365A"/>
<path d="M206.498 245.821H200.701V240.024C200.701 239.845 200.666 239.668 200.597 239.502C200.529 239.337 200.428 239.186 200.302 239.06C200.175 238.933 200.025 238.833 199.859 238.764C199.694 238.695 199.516 238.66 199.337 238.66C199.158 238.66 198.981 238.695 198.815 238.764C198.65 238.833 198.499 238.933 198.373 239.06C198.246 239.186 198.146 239.337 198.077 239.502C198.008 239.668 197.973 239.845 197.973 240.024V245.821H192.176C191.997 245.821 191.82 245.857 191.654 245.925C191.489 245.994 191.338 246.094 191.212 246.221C191.085 246.347 190.984 246.498 190.916 246.663C190.847 246.829 190.812 247.006 190.812 247.185C190.812 247.547 190.956 247.894 191.212 248.15C191.467 248.406 191.814 248.549 192.176 248.55H197.973V254.346C197.973 254.526 198.008 254.703 198.077 254.869C198.146 255.034 198.246 255.184 198.373 255.311C198.499 255.438 198.65 255.538 198.815 255.607C198.981 255.675 199.158 255.711 199.337 255.711C199.516 255.711 199.694 255.675 199.859 255.607C200.025 255.538 200.175 255.438 200.302 255.311C200.428 255.184 200.529 255.034 200.597 254.869C200.666 254.703 200.701 254.526 200.701 254.347V248.549H206.498C206.677 248.549 206.855 248.514 207.02 248.446C207.186 248.377 207.336 248.277 207.463 248.15C207.59 248.023 207.69 247.873 207.759 247.707C207.827 247.542 207.862 247.364 207.862 247.185C207.862 246.824 207.719 246.477 207.463 246.221C207.207 245.965 206.86 245.821 206.498 245.821V245.821Z" fill="white"/>
<path d="M199.418 149.1C208.835 149.1 216.468 141.467 216.468 132.05C216.468 122.634 208.835 115 199.418 115C190.002 115 182.368 122.634 182.368 132.05C182.368 141.467 190.002 149.1 199.418 149.1Z" fill="#2B365A"/>
<path d="M206.498 130.618H200.701V124.821C200.701 124.642 200.666 124.465 200.597 124.299C200.529 124.134 200.428 123.983 200.302 123.857C200.175 123.73 200.025 123.629 199.859 123.561C199.694 123.492 199.516 123.457 199.337 123.457C199.158 123.457 198.981 123.492 198.815 123.561C198.65 123.629 198.499 123.73 198.373 123.857C198.246 123.983 198.146 124.134 198.077 124.299C198.008 124.465 197.973 124.642 197.973 124.821V130.618H192.176C191.997 130.618 191.82 130.653 191.654 130.722C191.489 130.791 191.338 130.891 191.212 131.018C191.085 131.144 190.984 131.295 190.916 131.46C190.847 131.626 190.812 131.803 190.812 131.982C190.812 132.344 190.956 132.691 191.212 132.947C191.467 133.203 191.814 133.346 192.176 133.346H197.973V139.143C197.973 139.323 198.008 139.5 198.077 139.665C198.146 139.831 198.246 139.981 198.373 140.108C198.499 140.235 198.65 140.335 198.815 140.404C198.981 140.472 199.158 140.507 199.337 140.507C199.516 140.507 199.694 140.472 199.859 140.404C200.025 140.335 200.175 140.235 200.302 140.108C200.428 139.981 200.529 139.831 200.597 139.665C200.666 139.5 200.701 139.323 200.701 139.143V133.346H206.498C206.677 133.346 206.855 133.311 207.02 133.242C207.186 133.174 207.336 133.073 207.463 132.947C207.59 132.82 207.69 132.67 207.759 132.504C207.827 132.339 207.862 132.161 207.862 131.982C207.862 131.62 207.719 131.273 207.463 131.018C207.207 130.762 206.86 130.618 206.498 130.618V130.618Z" fill="white"/>
<path d="M340.291 252.211H244.828C241.878 252.207 239.049 251.034 236.963 248.948C234.877 246.862 233.704 244.033 233.701 241.083V189.089C233.704 186.139 234.877 183.311 236.963 181.225C239.049 179.139 241.878 177.966 244.828 177.963H340.291C343.241 177.966 346.069 179.139 348.155 181.225C350.241 183.311 351.415 186.139 351.418 189.089V241.083C351.415 244.033 350.241 246.862 348.155 248.948C346.069 251.034 343.241 252.207 340.291 252.211Z" fill="#F2F2F2"/>
<path d="M347.032 261.776C356.448 261.776 364.082 254.142 364.082 244.726C364.082 235.309 356.448 227.676 347.032 227.676C337.615 227.676 329.981 235.309 329.981 244.726C329.981 254.142 337.615 261.776 347.032 261.776Z" fill="#2B365A"/>
<path d="M354.112 243.294H348.315V237.497C348.315 237.318 348.28 237.14 348.211 236.975C348.143 236.809 348.042 236.659 347.915 236.532C347.789 236.406 347.638 236.305 347.473 236.237C347.307 236.168 347.13 236.133 346.951 236.133C346.772 236.133 346.594 236.168 346.429 236.237C346.263 236.305 346.113 236.406 345.986 236.532C345.86 236.659 345.759 236.809 345.691 236.975C345.622 237.14 345.587 237.318 345.587 237.497V243.294H339.79C339.611 243.294 339.433 243.329 339.268 243.398C339.102 243.466 338.952 243.567 338.825 243.693C338.699 243.82 338.598 243.971 338.53 244.136C338.461 244.302 338.426 244.479 338.426 244.658C338.426 244.837 338.461 245.015 338.53 245.18C338.598 245.346 338.699 245.496 338.825 245.623C338.952 245.749 339.102 245.85 339.268 245.918C339.433 245.987 339.611 246.022 339.79 246.022H345.587V251.819C345.587 251.998 345.622 252.176 345.691 252.341C345.759 252.507 345.86 252.657 345.986 252.784C346.113 252.91 346.263 253.011 346.429 253.079C346.594 253.148 346.772 253.183 346.951 253.183C347.313 253.183 347.66 253.04 347.916 252.784C348.171 252.528 348.315 252.181 348.315 251.819V246.022H354.112C354.291 246.022 354.468 245.987 354.634 245.918C354.799 245.85 354.95 245.749 355.077 245.623C355.203 245.496 355.304 245.346 355.372 245.18C355.441 245.015 355.476 244.837 355.476 244.658C355.476 244.479 355.441 244.301 355.372 244.136C355.304 243.97 355.203 243.82 355.077 243.693C354.95 243.567 354.799 243.466 354.634 243.398C354.468 243.329 354.291 243.294 354.112 243.294L354.112 243.294Z" fill="white"/>
<path d="M347.032 149.1C356.448 149.1 364.082 141.467 364.082 132.05C364.082 122.634 356.448 115 347.032 115C337.615 115 329.981 122.634 329.981 132.05C329.981 141.467 337.615 149.1 347.032 149.1Z" fill="white"/>
<path d="M354.112 130.618H348.315V124.821C348.315 124.642 348.28 124.465 348.211 124.299C348.143 124.134 348.042 123.983 347.915 123.857C347.789 123.73 347.638 123.629 347.473 123.561C347.307 123.492 347.13 123.457 346.951 123.457C346.772 123.457 346.594 123.492 346.429 123.561C346.263 123.629 346.113 123.73 345.986 123.857C345.86 123.983 345.759 124.134 345.691 124.299C345.622 124.465 345.587 124.642 345.587 124.821V130.618H339.79C339.611 130.618 339.433 130.653 339.268 130.722C339.102 130.791 338.952 130.891 338.825 131.018C338.699 131.144 338.598 131.295 338.53 131.46C338.461 131.626 338.426 131.803 338.426 131.982C338.426 132.161 338.461 132.339 338.53 132.504C338.598 132.67 338.699 132.82 338.825 132.947C338.952 133.073 339.102 133.174 339.268 133.243C339.433 133.311 339.611 133.346 339.79 133.346H345.587V139.143C345.587 139.323 345.622 139.5 345.691 139.665C345.759 139.831 345.86 139.981 345.986 140.108C346.113 140.235 346.263 140.335 346.429 140.404C346.594 140.472 346.772 140.507 346.951 140.507C347.313 140.507 347.66 140.364 347.916 140.108C348.171 139.852 348.315 139.505 348.315 139.143V133.346H354.112C354.291 133.346 354.468 133.311 354.634 133.242C354.799 133.174 354.95 133.073 355.077 132.947C355.203 132.82 355.304 132.67 355.372 132.504C355.441 132.339 355.476 132.161 355.476 131.982C355.476 131.803 355.441 131.626 355.372 131.46C355.304 131.295 355.203 131.144 355.077 131.018C354.95 130.891 354.799 130.791 354.634 130.722C354.468 130.653 354.291 130.618 354.112 130.618L354.112 130.618Z" fill="#2B365A"/>
<path d="M241.721 230.939C241.721 230.939 227.417 242.487 235.171 283.728C233.99 283.868 235.327 286.196 235.327 286.196L236.446 319.799L237.311 323.65L234.436 329.865L235.621 336.617L231.968 397.898L245.464 399.644L258.379 336.007L260.839 328.852L263.306 322.581L261.975 315.893L263.067 305.513L270.512 270.512L272.335 331.216L269.792 337.011L271.207 343.373L268.054 346.75L266.807 403.545L281.198 404.218L293.105 346.964L292.182 339.658L293.766 334.256V321.637L296.48 315.682L302.395 283.209C302.395 283.209 304.179 257.828 291.16 227.961L241.721 230.939Z" fill="#2F2E41"/>
<path d="M278.535 234.545C270.797 234.545 259.15 233.691 241.616 231.088C240.486 230.918 239.441 230.391 238.632 229.584C237.824 228.778 237.294 227.734 237.121 226.605C236.549 226 236.176 225.234 236.054 224.41C235.932 223.586 236.067 222.745 236.44 222.001L236.456 221.969L236.059 221.5C235.445 220.779 235.084 219.875 235.031 218.929C234.979 217.982 235.239 217.045 235.77 216.26L230.34 177.413C229.789 173.556 230.632 169.628 232.719 166.337C234.805 163.046 237.997 160.607 241.721 159.46L243.726 158.835L251.306 148.92L251.456 148.922L275.792 149.246L283.69 159.275L296.456 162.285L296.489 162.479L299.453 179.605C300.995 188.513 297.459 192.017 292.947 199.85L294.271 221.849L294.872 222.941C295.206 223.546 295.317 224.248 295.188 224.926C295.059 225.604 294.696 226.215 294.164 226.654C294.566 227.805 294.594 229.054 294.242 230.221L293.93 231.253C293.93 231.283 293.847 231.702 293.173 232.214C291.958 233.137 288.468 234.545 278.535 234.545Z" fill="#2B365A"/>
<path d="M288.779 162.682C288.779 162.682 290.611 160.115 300.866 159.72C301.288 159.703 300.765 158.866 300.765 158.866L305.697 134.76L322.133 143.86L319.359 169.132L292.351 199.851L288.779 162.682Z" fill="#2B365A"/>
<path d="M273.706 105.613C266.713 100.804 260.555 100.071 255.497 101.435C254.841 100.421 253.922 99.6047 252.837 99.0735C248.892 89.1329 236.886 83.163 226.583 86.0651C216.213 88.9859 209.058 100.473 211.009 111.068C212.218 117.635 216.351 123.322 218.014 129.79C221.232 142.31 213.382 156.652 201.101 160.688C212.728 163.023 225.528 155.92 229.7 144.818C231.726 139.425 231.848 133.538 232.105 127.783C232.173 123.811 232.66 119.857 233.557 115.987C234.003 114.25 234.632 112.566 235.435 110.964C237.183 107.441 240.086 104.624 243.661 102.983C243.34 103.973 243.26 105.025 243.427 106.052C243.594 107.079 244.002 108.051 244.619 108.889C241.892 112.305 240.407 116 240.407 118.212C234.742 128.566 242.843 137.459 253.197 143.124C257.327 145.395 262.095 146.226 266.75 145.486L267.183 143.637L267.77 145.303L269.729 150.887C271.989 151.98 274.229 153.179 276.45 154.483C275.607 150.52 274.924 146.565 274.454 142.698C273.804 137.435 276.071 129.599 277.706 124.834C278.72 121.898 279.24 118.813 279.246 115.706V115.57L280.838 120.685L286.635 118.212C285.557 112.026 286.635 105.004 273.706 105.613Z" fill="#2F2E41"/>
</g>
<defs>
<clipPath id="clip0_6910_32860">
<rect width="600.21" height="442" fill="white"/>
</clipPath>
</defs>
</svg>
