<svg width="99" height="183" viewBox="0 0 99 183" fill="none" xmlns="http://www.w3.org/2000/svg">
<path d="M44.8084 103.992C44.9012 103.937 44.9965 103.888 45.0938 103.845C45.0938 103.845 37.0362 98.6661 34.7927 97.2283C33.9818 96.676 33.2084 96.0553 32.4788 95.3713C35.2812 94.2121 39.2016 92.1411 41.2731 89.0313C41.2731 89.0313 40.6868 88.474 39.9344 87.6648L40.7435 86.5858C40.7435 86.5858 44.9687 82.7024 42.0646 80.6894C39.7038 79.0531 38.2146 83.398 37.7397 85.0855L37.5736 84.8626C37.5736 84.8626 33.0279 92.7831 26.8973 88.844C26.5155 88.2324 26.1981 87.5717 25.9514 86.8756C25.4869 85.5497 24.7496 84.3707 23.8017 83.4381L23.1783 80.6894L22.0663 79.6439C22.0663 78.1414 22.1093 76.3335 22.2617 74.7395C22.2709 74.6385 22.2806 74.5382 22.291 74.4386C24.4408 73.4644 25.9573 71.1549 25.9573 68.4597C25.9577 67.5123 25.7679 66.5774 25.4023 65.7267C26.2719 64.592 26.9032 63.0516 26.7156 61.714C26.569 60.6774 25.7931 60.0019 24.8629 59.5249C23.9678 59.0077 22.8734 58.7045 22.0546 58.4504C20.5478 57.9845 18.9023 57.7638 17.4366 58.3679C15.0133 59.3644 13.5163 60.5124 11.6323 62.4496C10.1432 63.9811 8.50546 66.6473 6.74659 67.7999C4.98773 68.9524 3.26599 70.446 2.58394 72.5393C1.62243 75.4997 2.93963 78.6809 3.53373 81.7528C4.19752 85.2105 3.93748 88.8158 2.78719 92.1032C1.63416 95.3914 -0.427622 98.6037 0.0785405 102.079C0.469399 104.719 2.30057 106.761 4.55387 107.94C5.5539 108.502 6.62144 108.893 7.72178 109.099C9.6194 109.454 11.646 109.34 13.399 108.522C12.661 110.929 11.5916 113.186 10.2311 115.209C8.93149 117.095 9.05852 118.121 10.2076 118.219C10.1673 118.396 10.1295 118.584 10.0943 118.783C9.72103 120.872 9.60181 124.289 10.2311 129.88C11.816 143.976 8.38233 148.289 8.38233 148.289C8.38233 148.289 8.74974 148.436 9.4142 148.655C9.38684 148.74 9.35948 148.827 9.33212 148.916C8.60512 151.27 7.91721 155.416 9.30867 160.954C10.8076 166.906 11.2473 169.648 11.3744 170.825V170.894C11.2239 170.961 10.6767 171.257 10.2741 172.183C9.99916 172.831 9.89813 173.558 9.98365 174.272C10.0692 174.985 10.3374 175.655 10.7548 176.195V181.657H11.4154V177.053C11.9957 177.839 12.4923 178.7 12.8948 179.619C13.2702 180.478 13.826 181.218 14.5128 181.773C15.1995 182.327 15.9958 182.68 16.8307 182.798C18.531 183.061 20.4071 183.157 21.1888 182.517C21.1888 182.517 21.7751 181.258 18.9707 179.731L18.9472 179.691C18.0248 178.157 16.6021 175.495 16.3871 173.406C16.2686 172.125 16.0261 170.862 15.664 169.641C15.3834 168.724 15.2099 167.768 15.1481 166.799C14.9527 163.836 14.6126 157.342 15.1168 155.909C15.4569 154.944 15.6582 152.52 15.7715 150.403C15.7715 150.307 15.7813 150.211 15.7872 150.117C18.7204 150.546 21.6881 150.57 24.6264 150.191V151.595C24.6264 151.595 23.4382 155.911 25.8146 162.095C25.8146 162.095 29.0373 167.711 29.7662 171.028C29.7871 171.123 29.806 171.216 29.8229 171.306C29.391 171.364 27.4875 171.875 28.193 176.476L28.0601 182.517H28.7207L28.8536 177.196C28.8536 177.196 29.5141 175.901 31.7596 178.634C32.0997 179.049 32.4071 179.433 32.682 179.787C33.487 180.806 34.479 181.611 35.5876 182.145C36.6961 182.678 37.8939 182.926 39.096 182.872C40.5383 182.814 41.9161 182.649 42.4555 182.23C42.4555 182.23 43.7766 181.079 40.4738 180.504L38.9534 179.989H38.8967L38.6798 179.713C37.5267 178.224 35.8519 175.7 35.4239 173.137C35.2721 172.252 35.0321 171.391 34.7086 170.569L33.4735 167.399L30.5675 150.443C30.5675 150.443 30.7199 149.698 30.8684 148.786C30.8841 148.686 30.9017 148.581 30.9173 148.479L31.359 148.285C31.359 148.285 34.0012 146.127 30.0379 133.039C30.0379 133.039 28.4979 125.749 27.7181 119.942L29.6411 119.521C29.6411 119.521 29.3441 114.394 28.7519 110.827C29.1428 109.155 29.3578 107.706 29.1135 106.997C28.9118 106.352 28.7985 105.675 28.7773 104.991C28.7004 103.444 28.5549 101.903 28.3415 100.374L30.8294 102.38L43.3759 109.291C42.8952 108.163 42.819 107.238 42.9577 106.491C43.8723 107.982 46.2995 111.31 48.3946 108.571C50.5326 105.8 46.4481 104.418 44.8084 103.992Z" fill="url(#paint0_linear_8204_44340)"/>
<path d="M43.4828 104C43.4828 104 49.9049 105.341 47.4343 108.915C44.9636 112.49 42 106.086 42 106.086L43.4828 104Z" fill="#F8BDC5"/>
<path d="M22 82C22 82 25.1772 83.7419 26.2778 87.367C27.3785 90.9921 32.3901 96.3614 34.4666 97.8137C36.5431 99.266 44 104.487 44 104.487C44 104.487 40.8228 105.937 42.4114 110L30.7996 103.037L25.546 98.3951L22 82Z" fill="#575988"/>
<path opacity="0.1" d="M22 82C22 82 25.1772 83.7419 26.2778 87.367C27.3785 90.9921 32.3901 96.3614 34.4666 97.8137C36.5431 99.266 44 104.487 44 104.487C44 104.487 40.8228 105.937 42.4114 110L30.7996 103.037L25.546 98.3951L22 82Z" fill="black"/>
<path d="M71.3885 0.546721C71.3885 0.546721 57.1429 -5.36499 41.9943 21.6908C41.9943 21.6908 35.626 36.7921 21.396 36.7321L19.8714 32.7836L17 34.0649L55.5068 134L58.4115 132.941L40.2761 85.607C46.2926 85.0829 59.6996 80.1617 71.9279 49.486C71.9279 49.486 82.9131 26.1901 99 28.9438L71.3885 0.546721Z" fill="url(#paint1_linear_8204_44340)"/>
<path d="M19 37.7251L37.8357 85.7992C37.8357 85.7992 56.1014 90.8305 72.2761 50.5261C72.2761 50.5261 83.1251 27.6824 99 30.3828L71.7514 2.53439C71.7514 2.53439 57.6873 -3.25392 42.7355 23.2699C42.7355 23.2699 35.4391 40.4678 19 37.7251Z" fill="white"/>
<path d="M18 35.2592L56.1157 133L59 131.959L20.8585 34L18 35.2592Z" fill="#2B365A"/>
<path d="M37 86.5048C37 86.5048 38.4385 79.3146 41.0746 81.3693C43.7107 83.424 39.8771 87.3858 39.8771 87.3858L38.7982 89L37 86.5048Z" fill="#F8BDC5"/>
<path d="M22.0019 80L23.407 81.3405L24 84L23.0368 83.3833V81.3405L22 81.2034L22.0019 80Z" fill="#DEDFF7"/>
<path opacity="0.1" d="M22.0019 80L23.407 81.3405L24 84L23.0368 83.3833V81.3405L22 81.2034L22.0019 80Z" fill="black"/>
<path d="M26 107.759L26.7518 120L29 119.43C29 119.43 28.5006 109.468 27.5018 107.759C26.503 106.051 26 107.759 26 107.759Z" fill="#575988"/>
<path opacity="0.1" d="M26 107.759L26.7518 120L29 119.43C29 119.43 28.5006 109.468 27.5018 107.759C26.503 106.051 26 107.759 26 107.759Z" fill="black"/>
<path d="M20 180.28L15.8669 181L13.5425 178.983L11.8637 173.078V170.915C11.867 170.656 11.8514 170.397 11.817 170.141C11.6931 168.97 11.2628 166.218 9.78695 160.257C8.4248 154.718 9.09877 150.567 9.80928 148.211C10.0268 147.439 10.3223 146.697 10.6903 146H16.2445C16.2445 146 16.214 147.718 16.1105 149.703C15.9988 151.824 15.8039 154.252 15.469 155.219C14.9737 156.653 15.3127 163.156 15.4994 166.123C15.5601 167.091 15.73 168.046 16.0049 168.966C16.3601 170.191 16.5976 171.455 16.7134 172.737C16.9164 174.83 18.3151 177.49 19.2164 179.031C19.6752 179.796 20 180.28 20 180.28Z" fill="#F8BDC5"/>
<path d="M39 180.426L37.2079 181L33.7525 179.424L29.4001 174.269V171.406C29.3808 171.073 29.3343 170.743 29.2613 170.42C28.5553 167.116 25.4398 161.524 25.4398 161.524C23.1369 155.365 24.2874 151.068 24.2874 151.068V146.625C24.2874 146.625 30.3032 144.333 30.5586 145.193C30.7014 145.675 30.5224 147.109 30.3394 148.27C30.1945 149.171 30.0477 149.918 30.0477 149.918L32.8635 166.821L34.0603 169.972C34.3741 170.794 34.6062 171.651 34.7521 172.529C35.1685 175.075 36.7916 177.594 37.9079 179.078C38.5314 179.922 39 180.426 39 180.426Z" fill="#F8BDC5"/>
<path opacity="0.1" d="M20 180.277L15.9593 181L13.6869 178.974L12.0456 173.042V170.869C12.0489 170.608 12.0336 170.348 12 170.091C12.0547 170.054 12.1126 170.024 12.1727 170C12.1727 170 12.6787 172.171 12.4247 173.183C12.2262 173.99 13.9469 177.005 14.6554 178.185C15.0054 178.792 15.5149 179.255 16.1101 179.508C17.4895 180.068 18.8132 179.313 19.2458 179.022C19.6825 179.79 20 180.277 20 180.277Z" fill="black"/>
<path d="M18.9869 178.756C18.9869 178.756 17.505 180.012 15.944 179.339C15.3936 179.093 14.9217 178.641 14.5963 178.047C13.9399 176.878 12.3422 173.914 12.5297 173.13C12.7632 172.135 12.2962 170 12.2962 170C12.2962 170 11.7023 170.224 11.285 171.292C11.0403 171.936 10.9505 172.651 11.026 173.354C11.1015 174.058 11.3391 174.721 11.7115 175.267V180.667H12.2962V176.12C12.8126 176.902 13.2525 177.753 13.6071 178.658C13.9265 179.495 14.4137 180.222 15.0241 180.771C15.6344 181.32 16.3484 181.674 17.1005 181.801C18.6063 182.06 20.2685 182.156 20.9616 181.523C20.9524 181.523 21.4672 180.278 18.9869 178.756Z" fill="#575988"/>
<path opacity="0.1" d="M39 180.404L37.1599 181L33.6117 179.364L29.1425 174.013V171.04C29.1227 170.695 29.075 170.352 29 170.016C29.0471 170.007 29.0947 170.001 29.1425 170C29.1425 170.774 30.3073 172.615 31.1252 173.809C31.5514 174.436 31.9491 175.088 32.3168 175.761C34.0186 178.864 36.9657 179.032 37.8724 179.014C38.5188 179.881 39 180.404 39 180.404Z" fill="black"/>
<path d="M29.7843 171C29.7843 171 27.3917 171 28.1477 175.919L28.023 181.657H28.6523L28.779 176.604C28.779 176.604 29.4083 175.373 31.5496 177.969C31.8742 178.363 32.1677 178.728 32.4303 179.064C33.1788 180.023 34.1184 180.785 35.178 181.293C36.2377 181.8 37.3899 182.04 38.5475 181.994C39.9209 181.939 41.237 181.78 41.7515 181.385C41.7515 181.385 43.0102 180.292 39.8616 179.744L38.4129 179.266C38.4129 179.266 34.7735 179.695 32.8281 176.292C32.4756 175.671 32.0938 175.07 31.6842 174.491C30.9025 173.402 29.7843 171.711 29.7843 171Z" fill="#575988"/>
<path opacity="0.1" d="M10.8149 146H16C16 146 15.9716 147.856 15.8749 150C13.8857 149.671 11.9208 149.132 10 148.389C10.2006 147.555 10.474 146.754 10.8149 146Z" fill="black"/>
<path opacity="0.1" d="M30.7418 148.301C28.8936 149.145 26.9652 149.716 25 150V146.64C25 146.64 30.7075 144.327 30.9498 145.195C31.0872 145.681 30.9174 147.131 30.7418 148.301Z" fill="black"/>
<path d="M31.1679 147.884C20.7207 152.645 9 147.884 9 147.884C9 147.884 12.3116 143.683 10.7839 129.962C10.1833 124.52 10.2914 121.193 10.6518 119.158C11.1984 116.062 12.3116 115.961 12.3116 115.961L27.3458 114C27.2117 114.561 27.2037 115.507 27.2777 116.684C27.6361 122.26 29.8926 133.042 29.8926 133.042C33.7167 145.785 31.1679 147.884 31.1679 147.884Z" fill="#575988"/>
<path d="M22.8907 72.3795C22.5463 72.9995 22.3386 74.2649 22.2143 75.7221C21.9355 79.0413 22.0989 83.3596 22.0989 83.3596C22.0989 83.3596 15.2063 87.8334 16.7883 82.0046C17.7035 78.4037 17.421 74.5174 16 71.1609C16 71.1609 24.0217 70.3471 22.8907 72.3795Z" fill="#F8BDC5"/>
<path opacity="0.1" d="M25.8907 78.3324C25.5463 78.9317 25.3386 80.155 25.2143 81.5637C24.3653 81.9651 23.4386 82.0928 22.5322 81.9333C21.6258 81.7737 20.7734 81.333 20.0653 80.6576C19.8519 79.4389 19.4934 78.2605 19 77.1564C19 77.1564 27.0217 76.3677 25.8907 78.3324Z" fill="black"/>
<path d="M23.5 82C26.5376 82 29 79.0898 29 75.5C29 71.9101 26.5376 69 23.5 69C20.4624 69 18 71.9101 18 75.5C18 79.0898 20.4624 82 23.5 82Z" fill="#F8BDC5"/>
<path opacity="0.1" d="M26.9328 116.501C26.2631 118.465 25.6548 120 25.6548 120C25.6548 120 19.9153 114.781 15.521 117.261C13.4466 118.43 11.8635 118.932 11 118.805C11.5239 115.921 12.5908 115.826 12.5908 115.826L27 114C26.8695 114.523 26.8618 115.402 26.9328 116.501Z" fill="black"/>
<path d="M25.8761 120C25.8761 120 19.956 114.306 15.4233 117.011C10.8907 119.716 8.62242 119.148 10.8887 115.729C13.155 112.31 16.1794 105.05 13.9111 99.6399C11.6429 94.2299 10.7621 85.6876 12.5256 83.41C14.2892 81.1323 15.9261 78.5683 15.9261 78C15.9261 78 22.3489 83.2668 23.6098 85.4035C23.972 86.0165 24.5638 87.5827 25.2209 89.5046C25.5752 90.5427 25.9513 91.6838 26.3214 92.8338C26.9001 94.6378 27.3697 96.4841 27.7267 98.3601C28.1792 100.755 28.4645 103.186 28.5798 105.632C28.6001 106.307 28.7081 106.974 28.9005 107.614C29.6546 109.892 25.8761 120 25.8761 120Z" fill="#575988"/>
<path d="M23 81.3848L22.86 84L16.0021 78.4861C16.0021 78.4861 15.8715 77.3794 17.6541 78.5058C19.4367 79.6322 23 81.3848 23 81.3848Z" fill="#DEDFF7"/>
<path opacity="0.1" d="M28 97.9983C21.2028 98.14 13.4996 89.5589 13.4996 89.5589C10.7977 81.4123 19.9348 83.1569 19.9348 83.1569C19.9348 83.1569 20.6871 85.3473 25.4417 88.9485C25.8037 90.0094 26.188 91.1755 26.5661 92.3507C27.1568 94.1943 27.6358 96.0812 28 97.9983Z" fill="black"/>
<path d="M13.4811 88.5593C13.4811 88.5593 21.9072 98.3062 28.7229 96.8521C28.7229 96.8521 36.7771 94.5245 40 89.2863C40 89.2863 37.893 87.1028 36.5298 85.0679C36.5298 85.0679 32.1931 93.2144 26.3686 88.996C20.5441 84.7775 19.6775 82.1573 19.6775 82.1573C19.6775 82.1573 10.8794 80.4105 13.4811 88.5593Z" fill="#575988"/>
<path opacity="0.1" d="M22.8165 59.4457C21.3934 58.9814 19.8389 58.7695 18.455 59.3623C16.1654 60.3563 14.752 61.5013 12.9663 63.4329C11.5588 64.9588 10.0102 67.6185 8.35381 68.7635C6.6974 69.9085 5.07823 71.4006 4.43331 73.4968C3.52572 76.4495 4.76851 79.6208 5.3311 82.6839C5.95784 86.1311 5.71296 89.7125 4.62542 93.0047C3.53552 96.282 1.589 99.4871 2.0771 102.954C2.58872 106.661 5.82509 109.177 9.04185 109.81C11.2334 110.243 13.6053 109.977 15.4675 108.584C15.9926 108.219 16.4357 107.717 16.7613 107.119C17.5552 105.541 17.0338 103.555 16.5437 101.82C15.5401 98.2654 14.7481 94.6366 13.9542 91.0122C13.4916 88.8958 13.0329 86.626 13.6876 84.5772C14.3267 82.5779 15.9204 81.1782 17.5866 80.2451C18.2393 79.88 18.9352 79.5509 19.4253 78.9378C19.6948 78.5879 19.9031 78.1816 20.0388 77.741C20.8778 75.1692 19.9369 71.8514 21.5561 69.8296C22.3794 68.8018 23.6476 68.4457 24.6631 67.6771C25.9451 66.7056 27.2114 64.4111 26.9703 62.5494C26.7076 60.5884 24.2886 59.9258 22.8165 59.4457Z" fill="black"/>
<path d="M21.8165 59.4369C20.3934 58.9817 18.8389 58.774 17.455 59.3552C15.1654 60.3297 13.752 61.4522 11.9663 63.346C10.5588 64.842 9.01021 67.4495 7.35381 68.572C5.6974 69.6946 4.07823 71.1575 3.43331 73.2125C2.52572 76.1073 3.76851 79.2164 4.3311 82.2195C4.95784 85.5991 4.71296 89.1103 3.62542 92.338C2.53552 95.5509 0.588997 98.6932 1.0771 102.092C1.58872 105.727 4.82509 108.193 8.04185 108.814C10.2334 109.238 12.6053 108.977 14.4675 107.612C14.9926 107.254 15.4357 106.762 15.7613 106.175C16.5552 104.629 16.0338 102.682 15.5437 100.98C14.5401 97.4955 13.7481 93.9378 12.9542 90.3845C12.4916 88.3096 12.0329 86.0844 12.6876 84.0757C13.3267 82.1156 14.9204 80.7434 16.5866 79.8285C17.2393 79.4706 17.9352 79.1479 18.4253 78.5469C18.6948 78.2039 18.9031 77.8055 19.0388 77.3735C19.8778 74.8522 18.9369 71.5994 20.5561 69.6173C21.3794 68.6096 22.6476 68.2605 23.6631 67.507C24.9451 66.5545 26.2114 64.305 25.9703 62.4798C25.7096 60.5595 23.2906 59.9076 21.8165 59.4369Z" fill="#EB6475"/>
<defs>
<linearGradient id="paint0_linear_8204_44340" x1="24.5014" y1="182.999" x2="24.5014" y2="58.0067" gradientUnits="userSpaceOnUse">
<stop stop-color="#808080" stop-opacity="0.25"/>
<stop offset="0.54" stop-color="#808080" stop-opacity="0.12"/>
<stop offset="1" stop-color="#808080" stop-opacity="0.1"/>
</linearGradient>
<linearGradient id="paint1_linear_8204_44340" x1="79337.3" y1="10922.9" x2="40811.2" y2="-38103.4" gradientUnits="userSpaceOnUse">
<stop stop-color="#808080" stop-opacity="0.25"/>
<stop offset="0.54" stop-color="#808080" stop-opacity="0.12"/>
<stop offset="1" stop-color="#808080" stop-opacity="0.1"/>
</linearGradient>
</defs>
</svg>
